<svg width="354" height="166" viewBox="0 0 354 166" fill="none" xmlns="http://www.w3.org/2000/svg">
<path d="M253.328 146.549L295.818 146.427C288.817 125.39 269.337 108.995 306.359 70.18C321.743 93.2151 356.759 73.5372 337.107 47.3788L345.437 19.934C330.734 26.9619 324.313 43.7294 302.866 57.2903C302.483 56.6123 300.197 52.5328 309.076 37.5085C349.457 24.987 291.037 -10.087 299.143 32.9993C297.728 41.7045 294.514 47.984 289.209 51.446C285.987 51.479 284.333 47.2858 282.925 42.4276C295.104 29.3102 301.49 15.777 282.317 0.409938C286.517 20.5007 283.479 31.6729 274.614 35.6638C264.339 29.7458 263.321 16.8406 267.518 0C251.685 11.9825 251.931 25.9114 265.086 41.4028C265.84 46.1907 266.086 50.722 260.018 52.0609C254.658 46.8788 250.714 38.858 249.476 32.9993C262.243 -6.12382 198.815 18.6449 240.354 37.5085C244.657 45.0952 246.797 49.527 245.687 57.2903C229.198 50.9561 223.716 28.8865 204.067 19.6766L211.854 47.3788C193.652 73.6638 226.358 93.6188 241.976 70.5077C274.098 99.0385 267.363 123.204 253.328 146.549Z" fill="white"/>
<path d="M275.609 93.793L272.518 109.256C297.021 113.386 314.381 117.523 325.055 121.273C330.08 123.039 333.316 124.699 335.21 125.934C333.787 126.84 331.918 127.941 328.567 129.17C320.477 132.138 307.552 135.179 291.344 137.835C226.511 148.461 108.63 153.693 1.02357 147.765L0 163.455C108.939 169.456 226.978 164.353 294.354 153.31C311.198 150.549 324.847 147.463 334.923 143.767C339.96 141.919 344.133 139.981 347.607 137.301C351.081 134.621 354.354 130.358 353.969 125.216C353.584 120.074 350.06 116.378 346.169 113.677C342.277 110.976 337.419 108.782 331.183 106.59C318.711 102.208 300.676 98.0183 275.609 93.793Z" fill="#F0EBE5"/>
<path d="M286.119 99.1724L284.246 107.647C288.884 108.511 293.5 109.416 298.074 110.404L300.228 101.985C295.527 100.97 290.818 100.048 286.119 99.1724ZM304.864 103.004L302.596 111.399C308.62 112.768 314.566 114.251 320.358 116.023L323.336 107.825C317.212 105.952 311.03 104.406 304.864 103.004ZM327.938 109.311L324.647 117.411C328.105 118.596 331.408 119.878 334.428 121.433C336.378 122.457 338.038 123.492 339.198 124.632L346.082 118.731C343.88 116.567 341.365 115.107 339.07 113.904L339.057 113.898L339.036 113.892C335.39 112.014 331.631 110.576 327.938 109.311ZM349.453 124.872L340.121 126.026C340.114 125.978 340.114 126.144 340 126.352C339.675 126.936 338.897 127.7 337.719 128.519C337.715 128.522 337.716 128.523 337.712 128.526C335.48 130.034 332.763 131.241 329.798 132.376L333.424 140.359C336.685 139.11 340.137 137.64 343.358 135.453L343.379 135.434L343.4 135.421C345.099 134.24 347.076 132.672 348.41 130.257V130.25L348.417 130.244C349.262 128.706 349.747 126.871 349.453 124.872ZM325.65 133.825C319.955 135.659 314.044 137.102 308.022 138.394L310.163 146.813C316.366 145.482 322.616 143.969 328.774 141.986L325.65 133.825ZM303.5 139.327C297.451 140.526 291.353 141.564 285.216 142.502L286.761 151.032C293.012 150.076 299.265 149.011 305.493 147.777L303.5 139.327ZM280.6 143.19C274.454 144.084 268.281 144.875 262.088 145.603L263.286 154.182C269.55 153.445 275.82 152.636 282.078 151.726L280.6 143.19ZM257.439 146.138C251.244 146.834 245.039 147.457 238.82 148.029L239.757 156.632C246.036 156.055 252.311 155.421 258.583 154.716L257.439 146.138ZM234.151 148.453C227.933 149.004 221.704 149.492 215.466 149.945L216.208 158.567C222.49 158.111 228.771 157.613 235.054 157.056L234.151 148.453ZM210.789 150.276C204.549 150.705 198.307 151.095 192.064 151.437L192.626 160.065C198.919 159.72 205.207 159.33 211.492 158.898L210.789 150.276ZM4.34854 151.4L3.7732 160.034C10.0609 160.387 16.3565 160.7 22.6525 160.974L23.094 152.34C16.8446 152.068 10.5969 151.75 4.34854 151.4ZM187.367 151.689C181.121 152.018 174.875 152.305 168.622 152.555L169.03 161.195C175.325 160.943 181.617 160.649 187.909 160.317L187.367 151.689ZM27.7904 152.536L27.3622 161.176C33.6567 161.437 39.9572 161.657 46.2548 161.84L46.5492 153.199C40.2938 153.018 34.0425 152.795 27.7904 152.536ZM163.926 152.739C157.672 152.976 151.417 153.172 145.16 153.335L145.428 161.981C151.725 161.817 158.018 161.618 164.314 161.379L163.926 152.739ZM51.2523 153.329L50.9713 161.969C57.2701 162.141 63.5675 162.275 69.8639 162.374L70.0245 153.728C63.7634 153.629 57.5073 153.499 51.2523 153.329ZM140.464 153.457C134.206 153.609 127.944 153.722 121.685 153.801L121.812 162.448C128.111 162.368 134.414 162.25 140.711 162.098L140.464 153.457ZM74.7209 153.801L74.5871 162.442C80.8843 162.525 87.1808 162.58 93.4797 162.595L93.5064 153.949C87.246 153.933 80.9818 153.885 74.7209 153.801ZM116.982 153.857C110.722 153.925 104.464 153.957 98.2029 153.955V162.601C104.501 162.603 110.796 162.573 117.095 162.503L116.982 153.857Z" fill="#826644"/>
<path d="M337.609 126.315L353.149 125.89Z" fill="#F0EBE5"/>
<path d="M8.43636 54.1037C8.13615 54.1037 7.84666 54.018 7.56789 53.8467C7.28913 53.654 7.14974 53.215 7.14974 52.5297V31.5222H4.31918C3.71876 31.5222 3.41855 31.2652 3.41855 30.7512C3.41855 30.2373 3.71876 29.9803 4.31918 29.9803H7.18191V27.8924C7.18191 24.4233 7.85738 22.0142 9.20833 20.665C10.5807 19.2945 12.4141 18.6093 14.7086 18.6093C15.9952 18.6093 17.1854 18.6949 18.279 18.8662C19.394 19.0161 20.7343 19.3481 22.2997 19.862C22.9644 20.0976 23.2968 20.4295 23.2968 20.8578C23.2968 21.0077 23.211 21.179 23.0395 21.3717C22.8679 21.5644 22.6213 21.6608 22.2997 21.6608C22.0852 21.6608 21.8815 21.618 21.6885 21.5323C20.5306 21.1255 19.4048 20.8471 18.3111 20.6972C17.239 20.5473 16.1882 20.4723 15.1589 20.4723C14.0439 20.4723 13.0789 20.6543 12.264 21.0184C11.4492 21.3824 10.8166 22.0998 10.3663 23.1705C9.93741 24.2198 9.72298 25.7938 9.72298 27.8924V29.9803H21.4634C22.1067 29.9803 22.4283 30.2373 22.4283 30.7512C22.4283 31.2652 22.1067 31.5222 21.4634 31.5222H9.72298V52.5297C9.72298 53.215 9.59431 53.654 9.33699 53.8467C9.10111 54.018 8.8009 54.1037 8.43636 54.1037Z" fill="white"/>
<path d="M37.7905 54.457C32.4296 54.457 28.559 53.3435 26.1788 51.1164C23.7986 48.8679 22.6084 45.7414 22.6084 41.7369C22.6084 38.4176 23.2839 35.8265 24.6349 33.9634C26.0073 32.1004 27.8621 30.7834 30.1995 30.0124C32.5368 29.2415 35.1422 28.8561 38.0157 28.8561C42.476 28.8561 45.8104 29.7126 48.0191 31.4258C50.2493 33.1175 51.3643 35.5481 51.3643 38.7174C51.3643 39.2956 51.2786 39.9809 51.107 40.7732C50.9355 41.5441 50.7639 41.9296 50.5924 41.9296L25.1817 41.6084C25.2675 45.827 26.3611 48.7073 28.4626 50.2491C30.5855 51.7909 33.6841 52.5619 37.7584 52.5619C40.16 52.5619 42.165 52.3477 43.7733 51.9194C45.403 51.4697 46.7111 50.9772 47.6975 50.4418C48.7053 49.8851 49.4451 49.4461 49.9169 49.1248C49.9812 49.082 50.067 49.0606 50.1742 49.0606C50.4101 49.0606 50.6245 49.1784 50.8175 49.4139C51.032 49.6281 51.1392 49.8636 51.1392 50.1206C51.1392 50.3562 51.032 50.5489 50.8175 50.6988C50.5816 50.9344 49.9705 51.3627 48.9841 51.9837C48.0191 52.5833 46.6146 53.1508 44.7704 53.6861C42.9477 54.2001 40.6211 54.457 37.7905 54.457ZM25.2138 40.0344H49.4666V38.5247C49.4666 37.0899 49.102 35.7944 48.3729 34.638C47.6439 33.4602 46.443 32.5179 44.7704 31.8113C43.0978 31.1046 40.8462 30.7512 38.0157 30.7512C34.0486 30.7512 30.9607 31.4365 28.752 32.807C26.5648 34.1776 25.3854 36.5867 25.2138 40.0344Z" fill="white"/>
<path d="M71.6157 54.4249C70.0932 54.4249 68.4099 54.3607 66.5657 54.2322C64.7216 54.1251 62.931 53.8574 61.1941 53.4291C59.4786 52.9794 57.999 52.2728 56.7553 51.3091C56.455 51.0736 56.3049 50.7952 56.3049 50.474C56.3049 49.7887 56.5837 49.4461 57.1412 49.4461C57.3128 49.4461 57.4415 49.4889 57.5272 49.5745C59.3285 50.8166 61.3978 51.6196 63.7352 51.9837C66.0725 52.3477 68.5921 52.5297 71.294 52.5297C73.4384 52.5297 75.4541 52.3798 77.3411 52.08C79.2282 51.7802 80.7507 51.2556 81.9086 50.5061C83.088 49.7566 83.6777 48.718 83.6777 47.3903C83.6777 46.084 83.1631 45.1096 82.1338 44.4672C81.1259 43.8248 79.7857 43.3858 78.1131 43.1502C76.4619 42.9147 74.6392 42.7755 72.645 42.7326C70.6507 42.6898 68.6457 42.6256 66.63 42.5399C64.6358 42.4542 62.8024 42.2294 61.1298 41.8653C59.4786 41.4799 58.1384 40.8482 57.1091 39.9702C56.1012 39.0922 55.5973 37.8394 55.5973 36.2119C55.5973 34.2418 56.2728 32.7321 57.6237 31.6828C58.9961 30.6121 60.7438 29.8733 62.8667 29.4664C64.9896 29.0595 67.1876 28.8561 69.4606 28.8561C72.2054 28.8561 74.8108 29.0916 77.2768 29.5627C79.7643 30.0339 82.0266 30.8048 84.0637 31.8755C84.4068 32.0682 84.5998 32.368 84.6427 32.7749C84.6427 33.0533 84.5569 33.2996 84.3854 33.5137C84.2138 33.7279 84.0208 33.8349 83.8064 33.8349C83.6777 33.8349 83.5919 33.8135 83.5491 33.7707C81.7263 32.8499 79.6463 32.1218 77.309 31.5864C74.9716 31.0296 72.3984 30.7512 69.5893 30.7512C67.6593 30.7512 65.8152 30.9226 64.0568 31.2652C62.3199 31.5864 60.9046 32.1432 59.811 32.9355C58.7173 33.7279 58.1705 34.82 58.1705 36.2119C58.1705 37.454 58.6745 38.3748 59.6823 38.9744C60.7116 39.5526 62.0518 39.9488 63.703 40.1629C65.3756 40.377 67.209 40.5055 69.2033 40.5484C71.219 40.5912 73.224 40.6661 75.2182 40.7732C77.2125 40.8803 79.0352 41.1373 80.6863 41.5441C82.3589 41.951 83.6992 42.6149 84.707 43.5357C85.7363 44.4351 86.251 45.7199 86.251 47.3903C86.251 49.1463 85.554 50.5382 84.1602 51.5661C82.7878 52.5726 80.9865 53.3007 78.7564 53.7504C76.5263 54.2001 74.146 54.4249 71.6157 54.4249Z" fill="white"/>
<path d="M100.648 54.4249C98.3323 54.4249 96.3809 53.7504 94.7941 52.4013C93.2287 51.0307 92.446 48.6109 92.446 45.1418V31.5222H89.6154C89.015 31.5222 88.7148 31.2652 88.7148 30.7512C88.7148 30.2373 89.015 29.9803 89.6154 29.9803H92.446V21.982C92.446 21.2968 92.5854 20.8685 92.8642 20.6972C93.1429 20.5044 93.4324 20.4081 93.7326 20.4081C94.0972 20.4081 94.3974 20.5044 94.6333 20.6972C94.8906 20.8685 95.0192 21.2968 95.0192 21.982V29.9803H105.698C106.341 29.9803 106.663 30.2373 106.663 30.7512C106.663 31.2652 106.341 31.5222 105.698 31.5222H95.0192V45.1418C95.0192 47.219 95.2873 48.7929 95.8234 49.8636C96.3809 50.913 97.1207 51.6196 98.0428 51.9837C98.9649 52.3477 99.9834 52.5297 101.099 52.5297C102.128 52.5297 103.136 52.3477 104.122 51.9837C105.108 51.6196 106.245 51.095 107.532 50.4097C107.789 50.2812 108.036 50.217 108.271 50.217C108.872 50.217 109.172 50.4954 109.172 51.0521C109.172 51.4804 108.936 51.8231 108.464 52.08C106.663 53.0651 105.226 53.7075 104.154 54.0073C103.082 54.2857 101.913 54.4249 100.648 54.4249Z" fill="white"/>
<path d="M111.186 54.1037C110.585 54.1037 110.221 53.9217 110.092 53.5576C109.963 53.1936 109.899 52.7011 109.899 52.08V31.4579C109.899 30.8369 109.963 30.3123 110.092 29.884C110.221 29.4343 110.585 29.2094 111.186 29.2094C111.722 29.2094 112.065 29.4343 112.215 29.884C112.386 30.3337 112.472 30.8369 112.472 31.3937V52.08C112.472 52.6368 112.408 53.1186 112.279 53.5255C112.172 53.911 111.807 54.1037 111.186 54.1037ZM111.153 23.9093C110.596 23.9093 110.146 23.7487 109.802 23.4275C109.459 23.0849 109.288 22.6459 109.288 22.1105C109.288 21.5537 109.459 21.104 109.802 20.7614C110.146 20.3974 110.596 20.2153 111.153 20.2153C111.69 20.2153 112.14 20.3974 112.504 20.7614C112.89 21.104 113.083 21.5537 113.083 22.1105C113.083 22.6459 112.89 23.0849 112.504 23.4275C112.14 23.7487 111.69 23.9093 111.153 23.9093Z" fill="white"/>
<path d="M129.378 54.4249C128.928 54.4249 128.574 54.275 128.317 53.9752C128.06 53.6754 127.867 53.4077 127.738 53.1722L115.193 31.7791C114.979 31.4365 114.872 31.0618 114.872 30.6549C114.872 29.884 115.236 29.4985 115.965 29.4985C116.523 29.4985 116.995 29.8304 117.381 30.4943L129.378 51.7588L141.376 30.4943C141.762 29.8304 142.234 29.4985 142.791 29.4985C143.092 29.4985 143.349 29.6056 143.563 29.8197C143.778 30.0124 143.885 30.2908 143.885 30.6549C143.885 30.9975 143.778 31.3723 143.563 31.7791L131.019 53.1722C130.869 53.4077 130.665 53.6754 130.408 53.9752C130.15 54.275 129.807 54.4249 129.378 54.4249Z" fill="white"/>
<path d="M158.7 54.4249C156.513 54.4249 154.519 54.1787 152.718 53.6861C150.938 53.1722 149.512 52.3691 148.44 51.277C147.389 50.1634 146.863 48.7073 146.863 46.9085C146.863 44.8098 147.432 43.1716 148.568 41.9938C149.705 40.816 151.238 39.9916 153.168 39.5205C155.098 39.0279 157.264 38.7817 159.665 38.7817C162.41 38.7817 165.058 38.9316 167.61 39.2314C170.183 39.5312 172.156 39.9809 173.529 40.5805C173.529 37.7324 173.025 35.6123 172.017 34.2204C171.03 32.807 169.626 31.8755 167.803 31.4258C166.002 30.9547 163.879 30.7191 161.434 30.7191C158.089 30.7191 155.58 30.9119 153.908 31.2973C152.235 31.6828 150.884 32.0468 149.855 32.3895C149.726 32.4323 149.64 32.4537 149.598 32.4537C149.34 32.4537 149.104 32.3252 148.89 32.0682C148.675 31.7898 148.568 31.5115 148.568 31.2331C148.568 30.9547 148.697 30.7512 148.954 30.6228C149.319 30.4514 150.552 30.1195 152.653 29.627C154.755 29.113 157.993 28.8561 162.367 28.8561C165.005 28.8561 167.364 29.1773 169.444 29.8197C171.524 30.4407 173.153 31.6721 174.333 33.5137C175.534 35.3339 176.134 38.0429 176.134 41.6405V51.8552C176.134 52.3477 176.059 52.851 175.909 53.3649C175.78 53.8574 175.416 54.1037 174.815 54.1037C174.322 54.1037 173.979 53.8789 173.786 53.4291C173.614 52.9794 173.529 52.412 173.529 51.7267V49.9279C172.907 50.5703 171.995 51.2449 170.795 51.9516C169.615 52.6368 168.05 53.2257 166.098 53.7182C164.147 54.1894 161.681 54.4249 158.7 54.4249ZM158.443 52.5297C162.667 52.5297 165.97 52.0586 168.35 51.1164C170.73 50.1742 172.456 49.264 173.529 48.386V41.9296C171.449 41.6298 169.229 41.3514 166.87 41.0944C164.533 40.816 162.217 40.6768 159.923 40.6768C156.62 40.6768 154.047 41.1051 152.203 41.9617C150.359 42.8183 149.437 44.4672 149.437 46.9085C149.437 48.9428 150.284 50.3883 151.978 51.2449C153.672 52.1015 155.827 52.5297 158.443 52.5297Z" fill="white"/>
<path d="M184.066 54.1037C183.444 54.1037 183.069 53.8896 182.94 53.4613C182.812 53.0116 182.747 52.4976 182.747 51.9194V20.6329C182.747 20.0119 182.812 19.4765 182.94 19.0268C183.09 18.5557 183.487 18.3202 184.13 18.3202C184.666 18.3202 184.999 18.5557 185.127 19.0268C185.256 19.498 185.32 20.0119 185.32 20.5687V51.8552C185.32 52.4762 185.245 53.0116 185.095 53.4613C184.945 53.8896 184.602 54.1037 184.066 54.1037Z" fill="white"/>
<path d="M8.43636 95.2963C8.13615 95.2963 7.84666 95.2106 7.56789 95.0393C7.28913 94.8466 7.14974 94.4076 7.14974 93.7223V72.7148H4.31918C3.71876 72.7148 3.41855 72.4578 3.41855 71.9438C3.41855 71.4299 3.71876 71.1729 4.31918 71.1729H7.18191V69.085C7.18191 65.6159 7.85738 63.2067 9.20833 61.8576C10.5807 60.4871 12.4141 59.8018 14.7086 59.8018C15.9952 59.8018 17.1854 59.8875 18.279 60.0588C19.394 60.2087 20.7343 60.5406 22.2997 61.0546C22.9644 61.2902 23.2968 61.6221 23.2968 62.0504C23.2968 62.2003 23.211 62.3716 23.0395 62.5643C22.8679 62.757 22.6213 62.8534 22.2997 62.8534C22.0852 62.8534 21.8815 62.8106 21.6885 62.7249C20.5306 62.318 19.4048 62.0397 18.3111 61.8898C17.239 61.7399 16.1882 61.6649 15.1589 61.6649C14.0439 61.6649 13.0789 61.8469 12.264 62.211C11.4492 62.575 10.8166 63.2924 10.3663 64.3631C9.93741 65.4124 9.72298 66.9864 9.72298 69.085V71.1729H21.4634C22.1067 71.1729 22.4283 71.4299 22.4283 71.9438C22.4283 72.4578 22.1067 72.7148 21.4634 72.7148H9.72298V93.7223C9.72298 94.4076 9.59431 94.8466 9.33699 95.0393C9.10111 95.2106 8.8009 95.2963 8.43636 95.2963ZM28.4111 95.2963C27.8107 95.2963 27.4461 95.1143 27.3175 94.7502C27.1888 94.3862 27.1245 93.8936 27.1245 93.2726V72.6505C27.1245 72.0295 27.1888 71.5048 27.3175 71.0766C27.4461 70.6268 27.8107 70.402 28.4111 70.402C28.9472 70.402 29.2903 70.6268 29.4404 71.0766C29.6119 71.5263 29.6977 72.0295 29.6977 72.5863V93.2726C29.6977 93.8294 29.6334 94.3112 29.5047 94.7181C29.3975 95.1036 29.033 95.2963 28.4111 95.2963ZM28.3789 65.1019C27.8214 65.1019 27.3711 64.9413 27.028 64.6201C26.6849 64.2775 26.5133 63.8385 26.5133 63.3031C26.5133 62.7463 26.6849 62.2966 27.028 61.954C27.3711 61.59 27.8214 61.4079 28.3789 61.4079C28.915 61.4079 29.3653 61.59 29.7299 61.954C30.1159 62.2966 30.3088 62.7463 30.3088 63.3031C30.3088 63.8385 30.1159 64.2775 29.7299 64.6201C29.3653 64.9413 28.915 65.1019 28.3789 65.1019Z" fill="white"/>
<path d="M36.6326 95.2963C36.0107 95.2963 35.6354 95.0822 35.5068 94.6539C35.3781 94.2042 35.3138 93.6902 35.3138 93.112V61.8255C35.3138 61.2045 35.3781 60.6691 35.5068 60.2194C35.6569 59.7483 36.0536 59.5128 36.6969 59.5128C37.233 59.5128 37.5654 59.7483 37.694 60.2194C37.8227 60.6905 37.887 61.2045 37.887 61.7613V93.0478C37.887 93.6688 37.812 94.2042 37.6619 94.6539C37.5118 95.0822 37.1687 95.2963 36.6326 95.2963Z" fill="white"/>
<path d="M46.3015 95.2963C46.0013 95.2963 45.6796 95.2213 45.3365 95.0714C45.0149 94.9215 44.8541 94.4397 44.8541 93.626V72.2651C44.8541 71.5798 45.0042 71.1515 45.3044 70.9802C45.6046 70.7875 45.8941 70.6911 46.1728 70.6911C46.5374 70.6911 46.8269 70.7875 47.0413 70.9802C47.2772 71.1515 47.3951 71.5798 47.3951 72.2651V76.216C48.0813 74.2673 49.4966 72.7576 51.641 71.6869C53.8068 70.5947 56.2835 70.0487 59.0712 70.0487C61.2584 70.0487 62.8881 70.4127 63.9603 71.1408C65.0539 71.8689 65.8045 72.7041 66.2119 73.6463C66.6193 74.5885 66.8874 75.3916 67.016 76.0554C67.5307 75.156 68.2812 74.2459 69.2676 73.3251C70.2755 72.4043 71.5621 71.6333 73.1275 71.0123C74.6928 70.3699 76.5692 70.0487 78.7564 70.0487C81.6942 70.0487 83.8707 70.8089 85.286 72.3293C86.7227 73.8497 87.4411 76.2696 87.4411 79.5888V93.626C87.4411 94.3755 87.291 94.8466 86.9908 95.0393C86.712 95.2106 86.4439 95.2963 86.1866 95.2963C85.865 95.2963 85.5648 95.2213 85.286 95.0714C85.0072 94.9215 84.8678 94.4397 84.8678 93.626V79.5888C84.8678 76.6122 84.3639 74.5992 83.3561 73.5499C82.3697 72.4792 80.8579 71.9438 78.8207 71.9438C76.076 71.9438 73.7922 72.5006 71.9695 73.6142C70.1682 74.7277 68.6672 76.2589 67.4663 78.2076V93.626C67.4663 94.3755 67.327 94.8466 67.0482 95.0393C66.7694 95.2106 66.5014 95.2963 66.2441 95.2963C65.9438 95.2963 65.6436 95.2213 65.3434 95.0714C65.0432 94.9215 64.8931 94.4397 64.8931 93.626V78.2076C64.8931 76.2589 64.4321 74.7277 63.51 73.6142C62.6094 72.5006 61.1512 71.9438 59.1355 71.9438C56.112 71.9438 53.528 72.5756 51.3836 73.839C49.2607 75.1025 47.9419 76.6015 47.4273 78.3361V93.626C47.4273 94.3755 47.2986 94.8466 47.0413 95.0393C46.8054 95.2106 46.5588 95.2963 46.3015 95.2963Z" fill="white"/>
<path d="M21.4312 131.892C18.1932 131.892 15.3412 131.528 12.8752 130.799C10.4306 130.071 8.52213 128.797 7.14974 126.977C5.77735 125.135 5.09116 122.544 5.09116 119.204C5.09116 115.884 5.72374 113.293 6.98891 111.43C8.27553 109.567 10.1411 108.25 12.5857 107.479C15.0303 106.708 17.9788 106.323 21.4312 106.323C23.3182 106.323 25.2696 106.515 27.2853 106.901C29.3224 107.265 31.2738 107.929 33.1394 108.892C33.5897 109.128 33.8149 109.46 33.8149 109.888C33.8149 110.445 33.5147 110.723 32.9142 110.723C32.7213 110.723 32.4961 110.67 32.2388 110.563C31.5526 110.22 30.6198 109.867 29.4404 109.503C28.261 109.139 26.9636 108.839 25.5484 108.603C24.1545 108.346 22.7821 108.218 21.4312 108.218C16.5206 108.218 12.9931 109.074 10.8488 110.788C8.72585 112.479 7.66439 115.285 7.66439 119.204C7.66439 123.144 8.8009 125.928 11.0739 127.555C13.3684 129.183 16.8101 129.996 21.399 129.996C22.7714 129.996 24.1545 129.879 25.5484 129.643C26.9636 129.386 28.261 129.076 29.4404 128.712C30.6198 128.348 31.5526 127.994 32.2388 127.652C32.4961 127.544 32.7213 127.491 32.9142 127.491C33.5147 127.491 33.8149 127.769 33.8149 128.326C33.8149 128.754 33.5897 129.086 33.1394 129.322C31.2738 130.286 29.3224 130.96 27.2853 131.346C25.2696 131.71 23.3182 131.892 21.4312 131.892Z" fill="white"/>
<path d="M53.4229 131.924C48.062 131.924 44.1914 130.81 41.8112 128.583C39.431 126.335 38.2408 123.208 38.2408 119.204C38.2408 115.884 38.9163 113.293 40.2673 111.43C41.6397 109.567 43.4945 108.25 45.8319 107.479C48.1692 106.708 50.7746 106.323 53.6481 106.323C58.1084 106.323 61.4428 107.179 63.6515 108.892C65.8817 110.584 66.9967 113.015 66.9967 116.184C66.9967 116.762 66.911 117.448 66.7394 118.24C66.5679 119.011 66.3963 119.396 66.2248 119.396L40.8141 119.075C40.8998 123.294 41.9935 126.174 44.0949 127.716C46.2179 129.258 49.3165 130.029 53.3908 130.029C55.7924 130.029 57.7974 129.814 59.4057 129.386C61.0354 128.936 62.3435 128.444 63.3299 127.909C64.3377 127.352 65.0775 126.913 65.5493 126.592C65.6136 126.549 65.6994 126.527 65.8066 126.527C66.0425 126.527 66.2569 126.645 66.4499 126.881C66.6643 127.095 66.7716 127.33 66.7716 127.587C66.7716 127.823 66.6643 128.016 66.4499 128.165C66.214 128.401 65.6029 128.829 64.6165 129.45C63.6515 130.05 62.247 130.617 60.4028 131.153C58.5801 131.667 56.2535 131.924 53.4229 131.924ZM40.8462 117.501H65.099V115.991C65.099 114.557 64.7344 113.261 64.0053 112.105C63.2763 110.927 62.0754 109.985 60.4028 109.278C58.7302 108.571 56.4786 108.218 53.6481 108.218C49.681 108.218 46.5931 108.903 44.3844 110.274C42.1972 111.644 41.0178 114.053 40.8462 117.501Z" fill="white"/>
<path d="M73.8994 131.57C73.299 131.57 72.913 131.324 72.7415 130.832C72.5914 130.339 72.5163 129.814 72.5163 129.258V108.443C72.5163 108.079 72.5914 107.747 72.7415 107.447C72.8916 107.126 73.2668 106.965 73.8673 106.965C74.4034 106.965 74.7357 107.115 74.8644 107.415C75.0145 107.693 75.0895 108.036 75.0895 108.443V111.976C76.2904 110.306 77.6735 109.074 79.2389 108.282C80.8043 107.468 82.4125 106.944 84.0637 106.708C85.7149 106.451 87.2695 106.323 88.7277 106.323C91.7941 106.323 94.2173 106.697 95.9971 107.447C97.7983 108.175 99.085 109.396 99.8569 111.109C100.629 112.822 101.015 115.167 101.015 118.144V129.258C101.015 129.814 100.918 130.339 100.725 130.832C100.554 131.324 100.211 131.57 99.6961 131.57C99.0742 131.57 98.7097 131.324 98.6025 130.832C98.4953 130.339 98.4417 129.814 98.4417 129.258V118.144C98.4417 115.916 98.195 114.075 97.7018 112.619C97.2086 111.141 96.2544 110.038 94.8391 109.31C93.4453 108.582 91.376 108.218 88.6312 108.218C86.9586 108.218 85.168 108.411 83.2596 108.796C81.3725 109.182 79.6678 109.845 78.1453 110.788C76.6228 111.73 75.6042 113.047 75.0895 114.739V129.258C75.0895 129.814 75.0252 130.339 74.8966 130.832C74.7679 131.324 74.4355 131.57 73.8994 131.57Z" fill="white"/>
<path d="M120.655 131.892C118.082 131.892 115.712 131.517 113.547 130.767C111.402 130.018 109.676 128.733 108.368 126.913C107.06 125.092 106.406 122.576 106.406 119.364C106.406 114.567 107.639 111.195 110.105 109.246C112.592 107.297 116.109 106.323 120.655 106.323C123.657 106.323 126.123 106.548 128.053 106.997C129.983 107.447 131.506 107.993 132.621 108.635C133.757 109.257 134.593 109.845 135.13 110.402V98.0675C135.13 97.4893 135.183 96.9646 135.29 96.4935C135.398 96.0224 135.762 95.7868 136.384 95.7868C137.006 95.7868 137.381 96.001 137.51 96.4293C137.638 96.8575 137.703 97.3822 137.703 98.0032V129.836C137.703 130.521 137.563 130.981 137.285 131.217C137.027 131.453 136.749 131.57 136.448 131.57C136.084 131.57 135.773 131.463 135.516 131.249C135.258 131.035 135.13 130.585 135.13 129.9V125.435C134.786 126.806 134.047 127.919 132.91 128.776C131.795 129.632 130.498 130.286 129.018 130.735C127.538 131.185 126.048 131.485 124.547 131.635C123.046 131.806 121.749 131.892 120.655 131.892ZM120.655 129.996C121.942 129.996 123.336 129.911 124.837 129.739C126.359 129.547 127.828 129.215 129.243 128.744C130.659 128.273 131.892 127.619 132.942 126.784C134.014 125.928 134.744 124.825 135.13 123.476V111.912C134.486 111.377 133.575 110.83 132.395 110.274C131.238 109.696 129.704 109.214 127.796 108.828C125.909 108.421 123.529 108.218 120.655 108.218C116.538 108.218 113.557 109.107 111.713 110.884C109.89 112.64 108.979 115.467 108.979 119.364C108.979 122.062 109.504 124.193 110.555 125.756C111.606 127.298 113.01 128.39 114.769 129.033C116.549 129.675 118.511 129.996 120.655 129.996Z" fill="white"/>
<path d="M155.703 131.892C153.515 131.892 151.521 131.645 149.72 131.153C147.94 130.639 146.514 129.836 145.442 128.744C144.391 127.63 143.866 126.174 143.866 124.375C143.866 122.276 144.434 120.638 145.57 119.461C146.707 118.283 148.24 117.458 150.17 116.987C152.1 116.495 154.266 116.248 156.667 116.248C159.412 116.248 162.061 116.398 164.612 116.698C167.186 116.998 169.158 117.448 170.531 118.047C170.531 115.199 170.027 113.079 169.019 111.687C168.033 110.274 166.628 109.342 164.805 108.892C163.004 108.421 160.881 108.186 158.437 108.186C155.091 108.186 152.582 108.379 150.91 108.764C149.237 109.149 147.886 109.513 146.857 109.856C146.728 109.899 146.643 109.92 146.6 109.92C146.342 109.92 146.107 109.792 145.892 109.535C145.678 109.257 145.57 108.978 145.57 108.7C145.57 108.421 145.699 108.218 145.956 108.089C146.321 107.918 147.554 107.586 149.655 107.094C151.757 106.58 154.995 106.323 159.369 106.323C162.007 106.323 164.366 106.644 166.446 107.286C168.526 107.907 170.156 109.139 171.335 110.98C172.536 112.801 173.136 115.51 173.136 119.107V129.322C173.136 129.814 173.061 130.318 172.911 130.832C172.782 131.324 172.418 131.57 171.817 131.57C171.324 131.57 170.981 131.346 170.788 130.896C170.617 130.446 170.531 129.879 170.531 129.193V127.395C169.909 128.037 168.998 128.712 167.797 129.418C166.617 130.103 165.052 130.692 163.101 131.185C161.149 131.656 158.683 131.892 155.703 131.892ZM155.445 129.996C159.67 129.996 162.972 129.525 165.352 128.583C167.732 127.641 169.459 126.731 170.531 125.853V119.396C168.451 119.096 166.231 118.818 163.873 118.561C161.535 118.283 159.219 118.144 156.925 118.144C153.623 118.144 151.049 118.572 149.205 119.428C147.361 120.285 146.439 121.934 146.439 124.375C146.439 126.409 147.286 127.855 148.98 128.712C150.674 129.568 152.829 129.996 155.445 129.996Z" fill="white"/>
<path d="M181.1 131.57C180.5 131.57 180.114 131.324 179.942 130.832C179.792 130.339 179.717 129.814 179.717 129.258V108.443C179.717 108.079 179.792 107.747 179.942 107.447C180.093 107.126 180.468 106.965 181.068 106.965C181.604 106.965 181.937 107.115 182.065 107.415C182.215 107.693 182.29 108.036 182.29 108.443V111.976C183.491 110.306 184.874 109.074 186.44 108.282C188.005 107.468 189.613 106.944 191.265 106.708C192.916 106.451 194.47 106.323 195.929 106.323C198.995 106.323 201.418 106.697 203.198 107.447C204.999 108.175 206.286 109.396 207.058 111.109C207.83 112.822 208.216 115.167 208.216 118.144V129.258C208.216 129.814 208.119 130.339 207.926 130.832C207.755 131.324 207.412 131.57 206.897 131.57C206.275 131.57 205.911 131.324 205.803 130.832C205.696 130.339 205.643 129.814 205.643 129.258V118.144C205.643 115.916 205.396 114.075 204.903 112.619C204.41 111.141 203.455 110.038 202.04 109.31C200.646 108.582 198.577 108.218 195.832 108.218C194.16 108.218 192.369 108.411 190.46 108.796C188.573 109.182 186.869 109.845 185.346 110.788C183.824 111.73 182.805 113.047 182.29 114.739V129.258C182.29 129.814 182.226 130.339 182.097 130.832C181.969 131.324 181.636 131.57 181.1 131.57Z" fill="white"/>
<path d="M225.797 131.892C223.61 131.892 221.616 131.645 219.815 131.153C218.035 130.639 216.609 129.836 215.537 128.744C214.486 127.63 213.961 126.174 213.961 124.375C213.961 122.276 214.529 120.638 215.665 119.461C216.802 118.283 218.335 117.458 220.265 116.987C222.195 116.495 224.361 116.248 226.762 116.248C229.507 116.248 232.155 116.398 234.707 116.698C237.28 116.998 239.253 117.448 240.626 118.047C240.626 115.199 240.122 113.079 239.114 111.687C238.128 110.274 236.723 109.342 234.9 108.892C233.099 108.421 230.976 108.186 228.531 108.186C225.186 108.186 222.677 108.379 221.005 108.764C219.332 109.149 217.981 109.513 216.952 109.856C216.823 109.899 216.737 109.92 216.695 109.92C216.437 109.92 216.201 109.792 215.987 109.535C215.773 109.257 215.665 108.978 215.665 108.7C215.665 108.421 215.794 108.218 216.051 108.089C216.416 107.918 217.649 107.586 219.75 107.094C221.852 106.58 225.09 106.323 229.464 106.323C232.102 106.323 234.461 106.644 236.541 107.286C238.621 107.907 240.25 109.139 241.43 110.98C242.631 112.801 243.231 115.51 243.231 119.107V129.322C243.231 129.814 243.156 130.318 243.006 130.832C242.877 131.324 242.513 131.57 241.912 131.57C241.419 131.57 241.076 131.346 240.883 130.896C240.711 130.446 240.626 129.879 240.626 129.193V127.395C240.004 128.037 239.092 128.712 237.892 129.418C236.712 130.103 235.147 130.692 233.195 131.185C231.244 131.656 228.778 131.892 225.797 131.892ZM225.54 129.996C229.764 129.996 233.067 129.525 235.447 128.583C237.827 127.641 239.553 126.731 240.626 125.853V119.396C238.546 119.096 236.326 118.818 233.967 118.561C231.63 118.283 229.314 118.144 227.02 118.144C223.717 118.144 221.144 118.572 219.3 119.428C217.456 120.285 216.534 121.934 216.534 124.375C216.534 126.409 217.381 127.855 219.075 128.712C220.769 129.568 222.924 129.996 225.54 129.996Z" fill="white"/>
</svg>
