<svg width="251" height="230" viewBox="0 0 251 230" fill="none" xmlns="http://www.w3.org/2000/svg">
<path d="M98.8723 214.64L155.936 214.461C146.534 183.84 120.372 159.974 170.093 103.473C190.752 137.004 237.779 108.36 211.387 70.2826L222.574 30.3326C202.828 40.5627 194.204 64.9703 165.401 84.7101C164.887 83.7232 161.816 77.7848 173.741 55.9148C227.972 37.688 149.515 -13.3674 160.401 49.351C158.501 62.0227 154.184 71.1635 147.06 76.2029C142.733 76.251 140.511 70.1472 138.621 63.0753C154.977 43.9809 163.553 24.2814 137.804 1.9124C143.444 31.1575 139.365 47.4202 127.458 53.2296C113.659 44.6151 112.293 25.8297 117.93 1.31567C96.6654 18.758 96.9954 39.0335 114.663 61.5835C115.675 68.553 116.006 75.149 107.856 77.098C100.658 69.5546 95.3611 57.8792 93.6995 49.351C110.845 -7.59845 25.6618 28.4561 81.4482 55.9148C87.2266 66.9584 90.1012 73.4095 88.6098 84.7101C66.4658 75.4897 59.1042 43.3642 32.7156 29.9579L43.1726 70.2826C18.7284 108.544 62.6521 137.592 83.6262 103.95C126.766 145.481 117.721 180.657 98.8723 214.64Z" stroke="black"/>
<path d="M135.131 144.085C167.496 149.742 191.513 155.055 208.914 160.136C226.449 165.257 236.844 168.838 244.676 176.729C246.598 178.666 248.411 181.653 249.438 185.004C250.463 188.353 250.689 192.021 249.498 195.339C247.089 202.047 242.456 204.851 238.161 207.116C229.598 211.632 218.949 214.007 205.36 216.17C151.202 224.79 55.6321 224.563 0.602539 211.489L6.37012 187.464C30.456 193.169 66.7829 196.198 103.23 196.836C139.928 197.478 176.798 195.697 201.484 191.767C207.09 190.875 208.848 189.87 212.861 188.837L214.356 188.452L212.92 187.887C209.509 186.548 206.744 185.245 201.989 183.856C186.041 179.199 162.689 173.983 130.884 168.423L135.131 144.085Z" stroke="#231919"/>
<path d="M130.357 216.255C122.055 216.403 113.752 216.406 105.449 216.279L105.634 204.434C113.801 204.557 121.975 204.546 130.142 204.4L130.357 216.255ZM73.7927 203.249C81.9375 203.742 90.0984 204.078 98.2615 204.278L97.9763 216.133C89.6721 215.929 81.366 215.582 73.0681 215.08L73.7927 203.249ZM162.747 214.948C154.444 215.486 146.133 215.855 137.831 216.082L137.514 204.235C145.678 204.012 153.832 203.653 161.967 203.126L162.747 214.948ZM42.1599 200.431C50.2172 201.415 58.3151 202.162 66.447 202.755L65.5974 214.578C57.3019 213.973 48.9949 213.206 40.7019 212.192L42.1599 200.431ZM195.135 211.839C186.829 212.958 178.516 213.776 170.216 214.417L169.312 202.603C177.434 201.975 185.517 201.174 193.537 200.093L195.135 211.839ZM11.1414 195.145C18.5432 196.882 26.0907 198.203 33.7205 199.308L33.7224 199.309L34.8923 199.473L33.241 211.212L32.0281 211.046L31.9939 211.042H31.99C24.1283 209.903 16.2422 208.517 8.40112 206.675L11.1414 195.145ZM227.675 204.931L226.677 205.274L224.991 205.819L224.968 205.826L224.954 205.83L224.941 205.834C223.09 206.408 221.238 206.919 219.399 207.385H219.395L219.335 207.399C213.76 208.8 208.165 209.855 202.608 210.742L200.763 199.034C206.085 198.184 211.328 197.185 216.44 195.9H216.441C218.112 195.478 219.754 195.026 221.362 194.529L221.368 194.527L222.899 194.033L222.91 194.03L223.785 193.726L227.675 204.931ZM228.901 174.232C230.066 174.787 231.227 175.378 232.369 176.009L232.378 176.014L232.386 176.018L232.404 176.026C234.736 177.334 237.336 178.912 239.714 181.298L239.73 181.321L239.764 181.356L239.791 181.382C241.069 182.696 242.583 184.518 243.336 187.237L243.371 187.364L243.372 187.365C243.701 188.619 243.813 189.961 243.624 191.355V191.356C243.299 193.788 242.206 195.619 241.072 196.997L241.037 197.04L241.034 197.044C239.23 199.204 237.177 200.535 235.391 201.544L229.652 191.155C230.256 190.778 230.572 190.473 230.934 190.181L231.382 189.819L230.963 189.427C229.874 188.408 228.459 187.407 226.639 186.385L226.636 186.384L225.853 185.96C225.21 185.62 224.556 185.292 223.893 184.976L228.901 174.232ZM198.024 163.697V163.696L201.483 164.642V164.641L204.787 165.575V165.576L207.942 166.504L210.932 167.424L213.763 168.334V168.333L213.784 168.341H213.785C216.427 169.213 219.085 170.144 221.737 171.172L217.407 182.208C215.026 181.287 212.587 180.438 210.107 179.618L210.105 179.617L207.377 178.73L207.368 178.728L204.514 177.857L204.51 177.856L201.498 176.961L201.491 176.959L198.311 176.063L198.307 176.062L194.969 175.15L194.965 175.149L194.501 175.025L197.511 163.563L198.024 163.697ZM165.901 156.215C170.039 157.068 174.171 157.955 178.291 158.88C182.287 159.779 186.281 160.716 190.269 161.703L187.36 173.197C183.488 172.239 179.595 171.32 175.69 170.441L175.081 170.304V170.313C171.232 169.452 167.378 168.618 163.516 167.821L165.901 156.215ZM143.955 151.93C148.836 152.83 153.713 153.756 158.59 154.727L156.274 166.35C151.464 165.393 146.642 164.474 141.809 163.582L143.955 151.93Z" stroke="#231919"/>
<path d="M141.657 4.01404V229.316" stroke="black"/>
<path d="M210.461 4.01404V229.316" stroke="black"/>
<path d="M221.255 4.01404V229.316" stroke="black"/>
<path d="M157.846 4.01404V229.316M169.988 4.01404V229.316" stroke="black"/>
<path d="M157.846 4.01404V229.316M169.988 4.01404V229.316" stroke="black"/>
</svg>
