<svg width="709" height="105" viewBox="0 0 709 105" fill="none" xmlns="http://www.w3.org/2000/svg">
<g clip-path="url(#clip0_349_92)">
<rect width="742" height="104" transform="translate(50)" fill="#552300"/>
<path d="M79.5415 48.5371C77.5184 48.5371 75.6564 48.367 73.9556 48.0269C72.2547 47.6867 70.8135 47.0601 69.6318 46.147C68.4681 45.2339 67.6535 43.9359 67.188 42.2529C67.0806 41.9486 67.0627 41.5905 67.1343 41.1787C67.2238 40.7669 67.5103 40.561 67.9937 40.561C68.2264 40.561 68.4591 40.6506 68.6919 40.8296C68.9246 40.9907 69.0768 41.2324 69.1484 41.5547C69.5244 43.1839 70.2674 44.3656 71.3774 45.0996C72.5054 45.8158 73.7944 46.2633 75.2446 46.4424C76.7127 46.6035 78.145 46.6841 79.5415 46.6841C82.0838 46.6841 84.0174 46.1291 85.3423 45.019C86.6851 43.8911 87.5981 42.244 88.0815 40.0776C88.5828 37.8934 88.8335 35.2168 88.8335 32.0479V19.9629C88.8335 19.4437 88.9051 19.005 89.0483 18.647C89.1916 18.271 89.5228 18.083 90.042 18.083C90.5075 18.083 90.8029 18.2889 90.9282 18.7007C91.0535 19.1125 91.1162 19.5332 91.1162 19.9629V32.0479C91.1162 35.7718 90.7671 38.8512 90.0688 41.2861C89.3885 43.721 88.2069 45.5382 86.5239 46.7378C84.8589 47.9373 82.5314 48.5371 79.5415 48.5371ZM105.661 48.2686C103.835 48.2686 102.17 48.0627 100.666 47.6509C99.18 47.2212 97.9894 46.5498 97.0942 45.6367C96.217 44.7057 95.7783 43.4883 95.7783 41.9844C95.7783 40.2298 96.2528 38.8602 97.2017 37.8755C98.1506 36.8908 99.4307 36.2015 101.042 35.8076C102.653 35.3958 104.462 35.1899 106.467 35.1899C108.758 35.1899 110.97 35.3153 113.1 35.5659C115.249 35.8166 116.896 36.1925 118.042 36.6938C118.042 34.3127 117.621 32.5402 116.779 31.3765C115.956 30.1948 114.783 29.416 113.261 29.04C111.757 28.6462 109.985 28.4492 107.944 28.4492C105.151 28.4492 103.056 28.6104 101.66 28.9326C100.263 29.2549 99.1353 29.5592 98.2759 29.8457C98.1685 29.8815 98.0968 29.8994 98.061 29.8994C97.8462 29.8994 97.6493 29.792 97.4702 29.5771C97.2912 29.3444 97.2017 29.1117 97.2017 28.8789C97.2017 28.6462 97.3091 28.4761 97.5239 28.3687C97.8283 28.2254 98.8577 27.9479 100.612 27.5361C102.367 27.1064 105.07 26.8916 108.723 26.8916C110.925 26.8916 112.894 27.1602 114.631 27.6973C116.368 28.2165 117.728 29.2459 118.713 30.7856C119.715 32.3075 120.217 34.5723 120.217 37.5801V46.1201C120.217 46.5319 120.154 46.9526 120.029 47.3823C119.921 47.7941 119.617 48 119.116 48C118.704 48 118.417 47.812 118.256 47.436C118.113 47.0601 118.042 46.5856 118.042 46.0127V44.5088C117.522 45.0459 116.761 45.6099 115.759 46.2007C114.774 46.7736 113.467 47.266 111.838 47.6777C110.209 48.0716 108.15 48.2686 105.661 48.2686ZM105.446 46.6841C108.973 46.6841 111.73 46.2902 113.718 45.5024C115.705 44.7147 117.146 43.9538 118.042 43.2197V37.8218C116.305 37.5711 114.452 37.3384 112.482 37.1235C110.531 36.8908 108.597 36.7744 106.682 36.7744C103.924 36.7744 101.776 37.1325 100.236 37.8486C98.6966 38.5648 97.9268 39.9434 97.9268 41.9844C97.9268 43.6852 98.634 44.8937 100.048 45.6099C101.463 46.326 103.262 46.6841 105.446 46.6841ZM133.258 48.2686C131.324 48.2686 129.695 47.7046 128.37 46.5767C127.063 45.4308 126.41 43.4077 126.41 40.5073V29.1206H124.046C123.545 29.1206 123.294 28.9058 123.294 28.4761C123.294 28.0464 123.545 27.8315 124.046 27.8315H126.41V21.1445C126.41 20.5716 126.526 20.2135 126.759 20.0703C126.992 19.9092 127.233 19.8286 127.484 19.8286C127.788 19.8286 128.039 19.9092 128.236 20.0703C128.451 20.2135 128.558 20.5716 128.558 21.1445V27.8315H137.474C138.011 27.8315 138.28 28.0464 138.28 28.4761C138.28 28.9058 138.011 29.1206 137.474 29.1206H128.558V40.5073C128.558 42.244 128.782 43.5599 129.229 44.4551C129.695 45.3324 130.313 45.9232 131.083 46.2275C131.852 46.5319 132.703 46.6841 133.634 46.6841C134.493 46.6841 135.335 46.5319 136.158 46.2275C136.982 45.9232 137.931 45.4845 139.005 44.9116C139.22 44.8042 139.426 44.7505 139.623 44.7505C140.124 44.7505 140.375 44.9832 140.375 45.4487C140.375 45.8068 140.178 46.0933 139.784 46.3081C138.28 47.1317 137.08 47.6688 136.185 47.9194C135.29 48.1522 134.314 48.2686 133.258 48.2686ZM142.056 48C141.554 48 141.25 47.8478 141.143 47.5435C141.035 47.2391 140.981 46.8273 140.981 46.3081V29.0669C140.981 28.5477 141.035 28.109 141.143 27.751C141.25 27.375 141.554 27.187 142.056 27.187C142.503 27.187 142.79 27.375 142.915 27.751C143.058 28.127 143.13 28.5477 143.13 29.0132V46.3081C143.13 46.7736 143.076 47.1764 142.969 47.5166C142.879 47.8389 142.575 48 142.056 48ZM142.029 22.7559C141.563 22.7559 141.187 22.6216 140.901 22.353C140.614 22.0666 140.471 21.6995 140.471 21.252C140.471 20.7865 140.614 20.4105 140.901 20.124C141.187 19.8197 141.563 19.6675 142.029 19.6675C142.476 19.6675 142.852 19.8197 143.157 20.124C143.479 20.4105 143.64 20.7865 143.64 21.252C143.64 21.6995 143.479 22.0666 143.157 22.353C142.852 22.6216 142.476 22.7559 142.029 22.7559ZM158.443 48C157.924 48 157.619 47.9642 157.53 47.8926C157.44 47.8031 157.396 47.5256 157.396 47.0601V19.0767C157.396 18.5575 157.44 18.262 157.53 18.1904C157.619 18.1188 157.942 18.083 158.497 18.083H176.919C180.822 18.083 184.081 18.5485 186.695 19.4795C189.327 20.4105 191.305 21.9681 192.63 24.1523C193.973 26.3187 194.644 29.2638 194.644 32.9878C194.644 36.8013 193.973 39.8001 192.63 41.9844C191.305 44.1686 189.327 45.7173 186.695 46.6304C184.081 47.5435 180.822 48 176.919 48H158.443ZM159.678 46.2275H176.919C180.805 46.2275 183.866 45.7799 186.104 44.8848C188.36 43.9717 189.962 42.5394 190.911 40.5879C191.878 38.6364 192.361 36.103 192.361 32.9878C192.361 29.9084 191.878 27.4019 190.911 25.4683C189.962 23.5347 188.36 22.1203 186.104 21.2251C183.866 20.312 180.805 19.8555 176.919 19.8555H159.678V46.2275ZM199.387 48C198.885 48 198.581 47.8478 198.474 47.5435C198.366 47.2391 198.312 46.8273 198.312 46.3081V29.0669C198.312 28.5477 198.366 28.109 198.474 27.751C198.581 27.375 198.885 27.187 199.387 27.187C199.834 27.187 200.121 27.375 200.246 27.751C200.389 28.127 200.461 28.5477 200.461 29.0132V46.3081C200.461 46.7736 200.407 47.1764 200.3 47.5166C200.21 47.8389 199.906 48 199.387 48ZM199.36 22.7559C198.894 22.7559 198.518 22.6216 198.232 22.353C197.945 22.0666 197.802 21.6995 197.802 21.252C197.802 20.7865 197.945 20.4105 198.232 20.124C198.518 19.8197 198.894 19.6675 199.36 19.6675C199.807 19.6675 200.183 19.8197 200.488 20.124C200.81 20.4105 200.971 20.7865 200.971 21.252C200.971 21.6995 200.81 22.0666 200.488 22.353C200.183 22.6216 199.807 22.7559 199.36 22.7559ZM206.17 48C205.669 48 205.356 47.8031 205.23 47.4092C205.123 47.0153 205.069 46.5856 205.069 46.1201V28.9326C205.069 28.5208 205.141 28.1717 205.284 27.8853C205.445 27.5809 205.777 27.4287 206.278 27.4287C206.672 27.4287 206.922 27.5719 207.03 27.8584C207.155 28.1449 207.218 28.5029 207.218 28.9326V32.0479C207.612 30.5798 208.337 29.4787 209.393 28.7446C210.467 28.0106 211.631 27.5182 212.884 27.2676C214.138 27.0169 215.23 26.8916 216.161 26.8916C217.539 26.8916 218.551 26.9632 219.195 27.1064C219.84 27.2497 220.413 27.3929 220.914 27.5361C221.29 27.6436 221.478 27.9121 221.478 28.3418C221.478 28.5745 221.397 28.7894 221.236 28.9863C221.093 29.1833 220.869 29.2817 220.565 29.2817C220.493 29.2817 220.44 29.2817 220.404 29.2817C220.386 29.2638 220.332 29.2459 220.243 29.228C219.544 29.0311 218.873 28.8789 218.229 28.7715C217.584 28.6641 216.895 28.6104 216.161 28.6104C214.048 28.6104 212.168 29.0311 210.521 29.8726C208.892 30.6961 207.791 31.9941 207.218 33.7666V46.1201C207.218 46.5856 207.155 47.0153 207.03 47.4092C206.904 47.8031 206.618 48 206.17 48ZM224.019 48C223.517 48 223.213 47.8478 223.105 47.5435C222.998 47.2391 222.944 46.8273 222.944 46.3081V29.0669C222.944 28.5477 222.998 28.109 223.105 27.751C223.213 27.375 223.517 27.187 224.019 27.187C224.466 27.187 224.753 27.375 224.878 27.751C225.021 28.127 225.093 28.5477 225.093 29.0132V46.3081C225.093 46.7736 225.039 47.1764 224.932 47.5166C224.842 47.8389 224.538 48 224.019 48ZM223.992 22.7559C223.526 22.7559 223.15 22.6216 222.864 22.353C222.577 22.0666 222.434 21.6995 222.434 21.252C222.434 20.7865 222.577 20.4105 222.864 20.124C223.15 19.8197 223.526 19.6675 223.992 19.6675C224.439 19.6675 224.815 19.8197 225.12 20.124C225.442 20.4105 225.603 20.7865 225.603 21.252C225.603 21.6995 225.442 22.0666 225.12 22.353C224.815 22.6216 224.439 22.7559 223.992 22.7559ZM250.262 48.2686C248.113 48.2686 246.135 47.9552 244.327 47.3286C242.536 46.702 241.095 45.6278 240.003 44.106C238.911 42.5841 238.365 40.4805 238.365 37.7949C238.365 33.7845 239.394 30.9647 241.453 29.3354C243.53 27.7062 246.466 26.8916 250.262 26.8916C252.768 26.8916 254.827 27.0796 256.438 27.4556C258.05 27.8315 259.321 28.2881 260.252 28.8252C261.201 29.3444 261.899 29.8368 262.347 30.3022V19.9897C262.347 19.5063 262.391 19.0677 262.481 18.6738C262.57 18.2799 262.875 18.083 263.394 18.083C263.913 18.083 264.227 18.262 264.334 18.6201C264.441 18.9782 264.495 19.4168 264.495 19.936V46.5498C264.495 47.1227 264.379 47.5076 264.146 47.7046C263.931 47.9015 263.698 48 263.448 48C263.143 48 262.884 47.9105 262.669 47.7314C262.454 47.5524 262.347 47.1764 262.347 46.6035V42.8706C262.06 44.0164 261.443 44.9474 260.494 45.6636C259.563 46.3797 258.479 46.9258 257.244 47.3018C256.009 47.6777 254.764 47.9284 253.511 48.0537C252.258 48.1969 251.175 48.2686 250.262 48.2686ZM250.262 46.6841C251.336 46.6841 252.5 46.6125 253.753 46.4692C255.024 46.3081 256.25 46.0306 257.432 45.6367C258.614 45.2428 259.643 44.6968 260.521 43.9985C261.416 43.2824 262.024 42.3604 262.347 41.2324V31.5645C261.81 31.1169 261.049 30.6603 260.064 30.1948C259.097 29.7114 257.817 29.3086 256.224 28.9863C254.648 28.6462 252.661 28.4761 250.262 28.4761C246.824 28.4761 244.336 29.2191 242.796 30.7051C241.274 32.1732 240.513 34.5365 240.513 37.7949C240.513 40.0508 240.952 41.8322 241.829 43.1392C242.706 44.4282 243.879 45.3413 245.347 45.8784C246.833 46.4155 248.471 46.6841 250.262 46.6841ZM279.523 48.2686C277.697 48.2686 276.032 48.0627 274.528 47.6509C273.042 47.2212 271.852 46.5498 270.957 45.6367C270.079 44.7057 269.641 43.4883 269.641 41.9844C269.641 40.2298 270.115 38.8602 271.064 37.8755C272.013 36.8908 273.293 36.2015 274.904 35.8076C276.516 35.3958 278.324 35.1899 280.329 35.1899C282.621 35.1899 284.832 35.3153 286.962 35.5659C289.111 35.8166 290.758 36.1925 291.904 36.6938C291.904 34.3127 291.483 32.5402 290.642 31.3765C289.818 30.1948 288.645 29.416 287.124 29.04C285.62 28.6462 283.847 28.4492 281.806 28.4492C279.013 28.4492 276.918 28.6104 275.522 28.9326C274.125 29.2549 272.998 29.5592 272.138 29.8457C272.031 29.8815 271.959 29.8994 271.923 29.8994C271.708 29.8994 271.512 29.792 271.333 29.5771C271.153 29.3444 271.064 29.1117 271.064 28.8789C271.064 28.6462 271.171 28.4761 271.386 28.3687C271.691 28.2254 272.72 27.9479 274.475 27.5361C276.229 27.1064 278.933 26.8916 282.585 26.8916C284.787 26.8916 286.757 27.1602 288.493 27.6973C290.23 28.2165 291.59 29.2459 292.575 30.7856C293.578 32.3075 294.079 34.5723 294.079 37.5801V46.1201C294.079 46.5319 294.016 46.9526 293.891 47.3823C293.784 47.7941 293.479 48 292.978 48C292.566 48 292.28 47.812 292.119 47.436C291.975 47.0601 291.904 46.5856 291.904 46.0127V44.5088C291.385 45.0459 290.624 45.6099 289.621 46.2007C288.636 46.7736 287.329 47.266 285.7 47.6777C284.071 48.0716 282.012 48.2686 279.523 48.2686ZM279.309 46.6841C282.836 46.6841 285.593 46.2902 287.58 45.5024C289.567 44.7147 291.009 43.9538 291.904 43.2197V37.8218C290.167 37.5711 288.314 37.3384 286.345 37.1235C284.393 36.8908 282.46 36.7744 280.544 36.7744C277.787 36.7744 275.638 37.1325 274.099 37.8486C272.559 38.5648 271.789 39.9434 271.789 41.9844C271.789 43.6852 272.496 44.8937 273.911 45.6099C275.325 46.326 277.124 46.6841 279.309 46.6841ZM300.702 48C300.182 48 299.869 47.821 299.762 47.4629C299.654 47.0869 299.601 46.6572 299.601 46.1738V20.0166C299.601 19.4974 299.654 19.0498 299.762 18.6738C299.887 18.2799 300.218 18.083 300.755 18.083C301.203 18.083 301.48 18.2799 301.588 18.6738C301.695 19.0677 301.749 19.4974 301.749 19.9629V46.1201C301.749 46.6393 301.686 47.0869 301.561 47.4629C301.436 47.821 301.149 48 300.702 48ZM316.777 48.2686C314.951 48.2686 313.286 48.0627 311.782 47.6509C310.296 47.2212 309.106 46.5498 308.21 45.6367C307.333 44.7057 306.895 43.4883 306.895 41.9844C306.895 40.2298 307.369 38.8602 308.318 37.8755C309.267 36.8908 310.547 36.2015 312.158 35.8076C313.77 35.3958 315.578 35.1899 317.583 35.1899C319.875 35.1899 322.086 35.3153 324.216 35.5659C326.365 35.8166 328.012 36.1925 329.158 36.6938C329.158 34.3127 328.737 32.5402 327.896 31.3765C327.072 30.1948 325.899 29.416 324.377 29.04C322.874 28.6462 321.101 28.4492 319.06 28.4492C316.267 28.4492 314.172 28.6104 312.776 28.9326C311.379 29.2549 310.251 29.5592 309.392 29.8457C309.285 29.8815 309.213 29.8994 309.177 29.8994C308.962 29.8994 308.765 29.792 308.586 29.5771C308.407 29.3444 308.318 29.1117 308.318 28.8789C308.318 28.6462 308.425 28.4761 308.64 28.3687C308.944 28.2254 309.974 27.9479 311.729 27.5361C313.483 27.1064 316.187 26.8916 319.839 26.8916C322.041 26.8916 324.01 27.1602 325.747 27.6973C327.484 28.2165 328.844 29.2459 329.829 30.7856C330.832 32.3075 331.333 34.5723 331.333 37.5801V46.1201C331.333 46.5319 331.27 46.9526 331.145 47.3823C331.038 47.7941 330.733 48 330.232 48C329.82 48 329.534 47.812 329.373 47.436C329.229 47.0601 329.158 46.5856 329.158 46.0127V44.5088C328.639 45.0459 327.878 45.6099 326.875 46.2007C325.89 46.7736 324.583 47.266 322.954 47.6777C321.325 48.0716 319.266 48.2686 316.777 48.2686ZM316.562 46.6841C320.09 46.6841 322.847 46.2902 324.834 45.5024C326.821 44.7147 328.263 43.9538 329.158 43.2197V37.8218C327.421 37.5711 325.568 37.3384 323.599 37.1235C321.647 36.8908 319.714 36.7744 317.798 36.7744C315.041 36.7744 312.892 37.1325 311.353 37.8486C309.813 38.5648 309.043 39.9434 309.043 41.9844C309.043 43.6852 309.75 44.8937 311.165 45.6099C312.579 46.326 314.378 46.6841 316.562 46.6841ZM338.036 48C337.785 48 337.517 47.9373 337.23 47.812C336.962 47.6867 336.828 47.2839 336.828 46.6035V28.7446C336.828 28.1717 336.953 27.8136 337.204 27.6704C337.454 27.5093 337.696 27.4287 337.929 27.4287C338.233 27.4287 338.475 27.5093 338.654 27.6704C338.851 27.8136 338.949 28.1717 338.949 28.7446V32.0479C339.522 30.4186 340.704 29.1564 342.494 28.2612C344.302 27.3481 346.37 26.8916 348.698 26.8916C350.524 26.8916 351.885 27.196 352.78 27.8047C353.693 28.4134 354.319 29.1117 354.66 29.8994C355 30.6872 355.224 31.3586 355.331 31.9136C355.761 31.1616 356.387 30.4007 357.211 29.6309C358.052 28.861 359.127 28.2165 360.434 27.6973C361.741 27.1602 363.307 26.8916 365.133 26.8916C367.586 26.8916 369.403 27.5272 370.585 28.7983C371.785 30.0695 372.384 32.0926 372.384 34.8677V46.6035C372.384 47.2301 372.259 47.624 372.008 47.7852C371.776 47.9284 371.552 48 371.337 48C371.068 48 370.818 47.9373 370.585 47.812C370.352 47.6867 370.236 47.2839 370.236 46.6035V34.8677C370.236 32.3791 369.815 30.6961 368.974 29.8188C368.15 28.9237 366.888 28.4761 365.187 28.4761C362.895 28.4761 360.989 28.9416 359.467 29.8726C357.963 30.8035 356.71 32.0837 355.707 33.7129V46.6035C355.707 47.2301 355.591 47.624 355.358 47.7852C355.125 47.9284 354.901 48 354.687 48C354.436 48 354.185 47.9373 353.935 47.812C353.684 47.6867 353.559 47.2839 353.559 46.6035V33.7129C353.559 32.0837 353.174 30.8035 352.404 29.8726C351.652 28.9416 350.434 28.4761 348.751 28.4761C346.227 28.4761 344.07 29.0042 342.279 30.0605C340.507 31.1169 339.406 32.3701 338.976 33.8203V46.6035C338.976 47.2301 338.869 47.624 338.654 47.7852C338.457 47.9284 338.251 48 338.036 48ZM385.656 48.2686C385.137 48.2686 384.851 48.0358 384.797 47.5703C384.743 47.0869 384.842 46.6214 385.092 46.1738L399.89 19.4526C400.176 18.9334 400.4 18.5754 400.561 18.3784C400.722 18.1815 400.964 18.083 401.286 18.083C401.537 18.083 401.761 18.1815 401.958 18.3784C402.154 18.5575 402.396 18.9155 402.683 19.4526L417.507 46.2007C417.704 46.5409 417.802 46.89 417.802 47.248C417.802 47.9284 417.498 48.2686 416.889 48.2686C416.656 48.2686 416.415 48.179 416.164 48C415.913 47.8389 415.663 47.5345 415.412 47.0869L410.847 38.8154H391.726L387.106 47.1943C386.73 47.9105 386.247 48.2686 385.656 48.2686ZM392.504 37.231H410.068L401.286 21.1982L392.504 37.231ZM422.062 48C421.829 48 421.587 47.9105 421.336 47.7314C421.104 47.5345 420.987 47.2301 420.987 46.8184V19.2646C420.987 18.9066 421.113 18.638 421.363 18.459C421.632 18.2799 421.882 18.1904 422.115 18.1904C422.366 18.1904 422.599 18.2799 422.813 18.459C423.028 18.638 423.136 18.9066 423.136 19.2646V36.9893L439.947 27.2139C440.055 27.1602 440.171 27.1333 440.296 27.1333C440.529 27.1333 440.717 27.2228 440.86 27.4019C441.021 27.5809 441.102 27.7689 441.102 27.9658C441.102 28.1986 440.95 28.4134 440.646 28.6104L428.856 35.6196L440.968 46.4155C441.201 46.6304 441.317 46.89 441.317 47.1943C441.317 47.7314 441.03 48 440.458 48C440.153 48 439.849 47.8568 439.544 47.5703L427.218 36.4521L423.136 38.7349V46.8184C423.136 47.2301 423.019 47.5345 422.787 47.7314C422.554 47.9105 422.312 48 422.062 48ZM457.366 48.2686C456.095 48.2686 454.689 48.2148 453.149 48.1074C451.61 48.0179 450.115 47.7941 448.665 47.436C447.232 47.0601 445.997 46.4692 444.958 45.6636C444.708 45.4666 444.583 45.2339 444.583 44.9653C444.583 44.3924 444.815 44.106 445.281 44.106C445.424 44.106 445.531 44.1418 445.603 44.2134C447.107 45.2518 448.835 45.9232 450.786 46.2275C452.738 46.5319 454.841 46.6841 457.097 46.6841C458.888 46.6841 460.57 46.5588 462.146 46.3081C463.722 46.0575 464.993 45.6188 465.959 44.9922C466.944 44.3656 467.437 43.4972 467.437 42.3872C467.437 41.2951 467.007 40.4805 466.147 39.9434C465.306 39.4062 464.187 39.0392 462.791 38.8423C461.412 38.6453 459.89 38.529 458.225 38.4932C456.56 38.4574 454.886 38.4036 453.203 38.332C451.538 38.2604 450.007 38.0724 448.611 37.7681C447.232 37.4458 446.113 36.9176 445.254 36.1836C444.412 35.4495 443.992 34.4022 443.992 33.0415C443.992 31.3944 444.556 30.1322 445.684 29.2549C446.829 28.3597 448.289 27.742 450.061 27.4019C451.833 27.0617 453.669 26.8916 455.566 26.8916C457.858 26.8916 460.033 27.0885 462.092 27.4824C464.169 27.8763 466.058 28.5208 467.759 29.416C468.045 29.5771 468.206 29.8278 468.242 30.168C468.242 30.4007 468.171 30.6066 468.027 30.7856C467.884 30.9647 467.723 31.0542 467.544 31.0542C467.437 31.0542 467.365 31.0363 467.329 31.0005C465.807 30.2306 464.071 29.6219 462.119 29.1743C460.168 28.7088 458.019 28.4761 455.674 28.4761C454.062 28.4761 452.523 28.6193 451.055 28.9058C449.604 29.1743 448.423 29.6398 447.51 30.3022C446.597 30.9647 446.14 31.8778 446.14 33.0415C446.14 34.0799 446.561 34.8498 447.402 35.3511C448.262 35.8345 449.381 36.1657 450.759 36.3447C452.156 36.5238 453.687 36.6312 455.352 36.667C457.035 36.7028 458.708 36.7655 460.374 36.855C462.039 36.9445 463.56 37.1593 464.939 37.4995C466.335 37.8397 467.454 38.3947 468.296 39.1646C469.155 39.9165 469.585 40.9907 469.585 42.3872C469.585 43.8553 469.003 45.019 467.839 45.8784C466.694 46.7199 465.19 47.3286 463.328 47.7046C461.466 48.0806 459.478 48.2686 457.366 48.2686ZM473.979 48C473.477 48 473.173 47.8478 473.065 47.5435C472.958 47.2391 472.904 46.8273 472.904 46.3081V29.0669C472.904 28.5477 472.958 28.109 473.065 27.751C473.173 27.375 473.477 27.187 473.979 27.187C474.426 27.187 474.713 27.375 474.838 27.751C474.981 28.127 475.053 28.5477 475.053 29.0132V46.3081C475.053 46.7736 474.999 47.1764 474.892 47.5166C474.802 47.8389 474.498 48 473.979 48ZM473.952 22.7559C473.486 22.7559 473.11 22.6216 472.824 22.353C472.537 22.0666 472.394 21.6995 472.394 21.252C472.394 20.7865 472.537 20.4105 472.824 20.124C473.11 19.8197 473.486 19.6675 473.952 19.6675C474.399 19.6675 474.775 19.8197 475.08 20.124C475.402 20.4105 475.563 20.7865 475.563 21.252C475.563 21.6995 475.402 22.0666 475.08 22.353C474.775 22.6216 474.399 22.7559 473.952 22.7559ZM477.969 51.3301C477.54 51.3301 477.325 51.16 477.325 50.8198C477.325 50.5334 477.513 50.3812 477.889 50.3633C478.945 50.3096 479.473 49.8441 479.473 48.9668C479.473 48.752 479.366 48.5908 479.151 48.4834C478.972 48.3939 478.748 48.2238 478.479 47.9731C478.211 47.7046 478.077 47.3018 478.077 46.7646C478.077 46.2454 478.265 45.8516 478.641 45.583C479.017 45.3145 479.455 45.1802 479.957 45.1802C480.368 45.1802 480.771 45.3413 481.165 45.6636C481.577 45.9858 481.783 46.4871 481.783 47.1675C481.783 48.0806 481.434 49.0026 480.735 49.9336C480.055 50.8646 479.133 51.3301 477.969 51.3301ZM70.1152 81C69.6855 81 69.2469 80.9731 68.7993 80.9194C68.3696 80.8657 68.1548 80.5793 68.1548 80.0601C68.1548 79.6125 68.3607 79.3618 68.7725 79.3081C69.2021 79.2544 69.6497 79.2275 70.1152 79.2275H79.7026V52.8555H70.1152C69.6497 52.8555 69.2021 52.8286 68.7725 52.7749C68.3607 52.7212 68.1548 52.4705 68.1548 52.0229C68.1548 51.5037 68.3696 51.2173 68.7993 51.1636C69.2469 51.1099 69.6855 51.083 70.1152 51.083H91.5728C92.092 51.083 92.5396 51.1099 92.9155 51.1636C93.3094 51.2173 93.5063 51.4858 93.5063 51.9692C93.5063 52.4526 93.3094 52.7212 92.9155 52.7749C92.5396 52.8286 92.092 52.8555 91.5728 52.8555H81.9854V79.2275H91.5728C92.092 79.2275 92.5396 79.2544 92.9155 79.3081C93.3094 79.3618 93.5063 79.6304 93.5063 80.1138C93.5063 80.5972 93.3094 80.8657 92.9155 80.9194C92.5396 80.9731 92.092 81 91.5728 81H70.1152ZM105.339 81.2686C103.19 81.2686 101.212 80.9552 99.4038 80.3286C97.6134 79.702 96.1722 78.6278 95.0801 77.106C93.988 75.5841 93.4419 73.4805 93.4419 70.7949C93.4419 66.7845 94.4714 63.9647 96.5303 62.3354C98.6071 60.7062 101.543 59.8916 105.339 59.8916C107.845 59.8916 109.904 60.0796 111.516 60.4556C113.127 60.8315 114.398 61.2881 115.329 61.8252C116.278 62.3444 116.976 62.8368 117.424 63.3022V52.9897C117.424 52.5063 117.469 52.0677 117.558 51.6738C117.648 51.2799 117.952 51.083 118.471 51.083C118.99 51.083 119.304 51.262 119.411 51.6201C119.519 51.9782 119.572 52.4168 119.572 52.936V79.5498C119.572 80.1227 119.456 80.5076 119.223 80.7046C119.008 80.9015 118.776 81 118.525 81C118.221 81 117.961 80.9105 117.746 80.7314C117.531 80.5524 117.424 80.1764 117.424 79.6035V75.8706C117.137 77.0164 116.52 77.9474 115.571 78.6636C114.64 79.3797 113.557 79.9258 112.321 80.3018C111.086 80.6777 109.842 80.9284 108.588 81.0537C107.335 81.1969 106.252 81.2686 105.339 81.2686ZM105.339 79.6841C106.413 79.6841 107.577 79.6125 108.83 79.4692C110.101 79.3081 111.328 79.0306 112.509 78.6367C113.691 78.2428 114.72 77.6968 115.598 76.9985C116.493 76.2824 117.102 75.3604 117.424 74.2324V64.5645C116.887 64.1169 116.126 63.6603 115.141 63.1948C114.174 62.7114 112.894 62.3086 111.301 61.9863C109.725 61.6462 107.738 61.4761 105.339 61.4761C101.901 61.4761 99.4128 62.2191 97.873 63.7051C96.3512 65.1732 95.5903 67.5365 95.5903 70.7949C95.5903 73.0508 96.029 74.8322 96.9062 76.1392C97.7835 77.4282 98.9562 78.3413 100.424 78.8784C101.91 79.4155 103.549 79.6841 105.339 79.6841ZM137.044 81.2954C132.569 81.2954 129.337 80.3644 127.35 78.5024C125.362 76.6226 124.369 74.0086 124.369 70.6606C124.369 67.8856 124.933 65.7192 126.061 64.1616C127.206 62.604 128.755 61.5029 130.707 60.8584C132.658 60.2139 134.833 59.8916 137.232 59.8916C140.956 59.8916 143.74 60.6077 145.584 62.04C147.446 63.4544 148.377 65.4865 148.377 68.1362C148.377 68.6196 148.306 69.1925 148.163 69.855C148.019 70.4995 147.876 70.8218 147.733 70.8218L126.517 70.5532C126.589 74.0802 127.502 76.4883 129.256 77.7773C131.029 79.0664 133.616 79.7109 137.018 79.7109C139.023 79.7109 140.697 79.5319 142.04 79.1738C143.4 78.7979 144.492 78.3861 145.316 77.9385C146.157 77.473 146.775 77.106 147.169 76.8374C147.223 76.8016 147.294 76.7837 147.384 76.7837C147.581 76.7837 147.76 76.8822 147.921 77.0791C148.1 77.2581 148.189 77.4551 148.189 77.6699C148.189 77.8669 148.1 78.028 147.921 78.1533C147.724 78.3503 147.214 78.7083 146.39 79.2275C145.584 79.7288 144.412 80.2033 142.872 80.6509C141.35 81.0806 139.408 81.2954 137.044 81.2954ZM126.544 69.2373H146.793V67.9751C146.793 66.7756 146.489 65.6924 145.88 64.7256C145.271 63.7409 144.269 62.9531 142.872 62.3623C141.476 61.7715 139.596 61.4761 137.232 61.4761C133.92 61.4761 131.342 62.049 129.498 63.1948C127.672 64.3407 126.687 66.3548 126.544 69.2373ZM154.141 81C153.639 81 153.317 80.7941 153.174 80.3823C153.049 79.9705 152.986 79.5319 152.986 79.0664V61.6641C152.986 61.3597 153.049 61.0822 153.174 60.8315C153.299 60.563 153.612 60.4287 154.114 60.4287C154.561 60.4287 154.839 60.554 154.946 60.8047C155.072 61.0374 155.134 61.3239 155.134 61.6641V64.6182C156.137 63.2217 157.292 62.1922 158.599 61.5298C159.906 60.8494 161.248 60.4108 162.627 60.2139C164.006 59.999 165.304 59.8916 166.521 59.8916C169.081 59.8916 171.104 60.2049 172.59 60.8315C174.094 61.4403 175.168 62.4608 175.813 63.8931C176.458 65.3254 176.78 67.2858 176.78 69.7744V79.0664C176.78 79.5319 176.699 79.9705 176.538 80.3823C176.395 80.7941 176.108 81 175.679 81C175.16 81 174.855 80.7941 174.766 80.3823C174.676 79.9705 174.631 79.5319 174.631 79.0664V69.7744C174.631 67.9124 174.425 66.3727 174.014 65.1553C173.602 63.9199 172.805 62.9979 171.624 62.3892C170.46 61.7804 168.732 61.4761 166.44 61.4761C165.044 61.4761 163.549 61.6372 161.956 61.9595C160.38 62.2817 158.957 62.8368 157.686 63.6245C156.414 64.4123 155.564 65.5133 155.134 66.9277V79.0664C155.134 79.5319 155.081 79.9705 154.973 80.3823C154.866 80.7941 154.588 81 154.141 81ZM189.794 81.2686C187.86 81.2686 186.231 80.7046 184.906 79.5767C183.599 78.4308 182.946 76.4077 182.946 73.5073V62.1206H180.583C180.081 62.1206 179.831 61.9058 179.831 61.4761C179.831 61.0464 180.081 60.8315 180.583 60.8315H182.946V54.1445C182.946 53.5716 183.062 53.2135 183.295 53.0703C183.528 52.9092 183.769 52.8286 184.02 52.8286C184.324 52.8286 184.575 52.9092 184.772 53.0703C184.987 53.2135 185.094 53.5716 185.094 54.1445V60.8315H194.01C194.547 60.8315 194.816 61.0464 194.816 61.4761C194.816 61.9058 194.547 62.1206 194.01 62.1206H185.094V73.5073C185.094 75.244 185.318 76.5599 185.766 77.4551C186.231 78.3324 186.849 78.9232 187.619 79.2275C188.389 79.5319 189.239 79.6841 190.17 79.6841C191.029 79.6841 191.871 79.5319 192.694 79.2275C193.518 78.9232 194.467 78.4845 195.541 77.9116C195.756 77.8042 195.962 77.7505 196.159 77.7505C196.66 77.7505 196.911 77.9832 196.911 78.4487C196.911 78.8068 196.714 79.0933 196.32 79.3081C194.816 80.1317 193.616 80.6688 192.721 80.9194C191.826 81.1522 190.85 81.2686 189.794 81.2686ZM198.592 81C198.09 81 197.786 80.8478 197.679 80.5435C197.571 80.2391 197.518 79.8273 197.518 79.3081V62.0669C197.518 61.5477 197.571 61.109 197.679 60.751C197.786 60.375 198.09 60.187 198.592 60.187C199.039 60.187 199.326 60.375 199.451 60.751C199.594 61.127 199.666 61.5477 199.666 62.0132V79.3081C199.666 79.7736 199.612 80.1764 199.505 80.5166C199.415 80.8389 199.111 81 198.592 81ZM198.565 55.7559C198.099 55.7559 197.723 55.6216 197.437 55.353C197.151 55.0666 197.007 54.6995 197.007 54.252C197.007 53.7865 197.151 53.4105 197.437 53.124C197.723 52.8197 198.099 52.6675 198.565 52.6675C199.013 52.6675 199.389 52.8197 199.693 53.124C200.015 53.4105 200.176 53.7865 200.176 54.252C200.176 54.6995 200.015 55.0666 199.693 55.353C199.389 55.6216 199.013 55.7559 198.565 55.7559ZM211.848 81.2686C209.914 81.2686 208.285 80.7046 206.96 79.5767C205.653 78.4308 205 76.4077 205 73.5073V62.1206H202.636C202.135 62.1206 201.884 61.9058 201.884 61.4761C201.884 61.0464 202.135 60.8315 202.636 60.8315H205V54.1445C205 53.5716 205.116 53.2135 205.349 53.0703C205.581 52.9092 205.823 52.8286 206.074 52.8286C206.378 52.8286 206.629 52.9092 206.826 53.0703C207.041 53.2135 207.148 53.5716 207.148 54.1445V60.8315H216.064C216.601 60.8315 216.87 61.0464 216.87 61.4761C216.87 61.9058 216.601 62.1206 216.064 62.1206H207.148V73.5073C207.148 75.244 207.372 76.5599 207.819 77.4551C208.285 78.3324 208.903 78.9232 209.672 79.2275C210.442 79.5319 211.293 79.6841 212.224 79.6841C213.083 79.6841 213.924 79.5319 214.748 79.2275C215.572 78.9232 216.521 78.4845 217.595 77.9116C217.81 77.8042 218.015 77.7505 218.212 77.7505C218.714 77.7505 218.964 77.9832 218.964 78.4487C218.964 78.8068 218.767 79.0933 218.374 79.3081C216.87 80.1317 215.67 80.6688 214.775 80.9194C213.88 81.1522 212.904 81.2686 211.848 81.2686ZM229.938 81.2686C228.111 81.2686 226.446 81.0627 224.942 80.6509C223.456 80.2212 222.266 79.5498 221.371 78.6367C220.493 77.7057 220.055 76.4883 220.055 74.9844C220.055 73.2298 220.529 71.8602 221.478 70.8755C222.427 69.8908 223.707 69.2015 225.318 68.8076C226.93 68.3958 228.738 68.1899 230.743 68.1899C233.035 68.1899 235.246 68.3153 237.376 68.5659C239.525 68.8166 241.172 69.1925 242.318 69.6938C242.318 67.3127 241.897 65.5402 241.056 64.3765C240.232 63.1948 239.059 62.416 237.538 62.04C236.034 61.6462 234.261 61.4492 232.22 61.4492C229.427 61.4492 227.333 61.6104 225.936 61.9326C224.54 62.2549 223.412 62.5592 222.552 62.8457C222.445 62.8815 222.373 62.8994 222.337 62.8994C222.123 62.8994 221.926 62.792 221.747 62.5771C221.568 62.3444 221.478 62.1117 221.478 61.8789C221.478 61.6462 221.585 61.4761 221.8 61.3687C222.105 61.2254 223.134 60.9479 224.889 60.5361C226.643 60.1064 229.347 59.8916 232.999 59.8916C235.201 59.8916 237.171 60.1602 238.907 60.6973C240.644 61.2165 242.005 62.2459 242.989 63.7856C243.992 65.3075 244.493 67.5723 244.493 70.5801V79.1201C244.493 79.5319 244.431 79.9526 244.305 80.3823C244.198 80.7941 243.893 81 243.392 81C242.98 81 242.694 80.812 242.533 80.436C242.389 80.0601 242.318 79.5856 242.318 79.0127V77.5088C241.799 78.0459 241.038 78.6099 240.035 79.2007C239.05 79.7736 237.743 80.266 236.114 80.6777C234.485 81.0716 232.426 81.2686 229.938 81.2686ZM229.723 79.6841C233.25 79.6841 236.007 79.2902 237.994 78.5024C239.981 77.7147 241.423 76.9538 242.318 76.2197V70.8218C240.581 70.5711 238.728 70.3384 236.759 70.1235C234.807 69.8908 232.874 69.7744 230.958 69.7744C228.201 69.7744 226.052 70.1325 224.513 70.8486C222.973 71.5648 222.203 72.9434 222.203 74.9844C222.203 76.6852 222.91 77.8937 224.325 78.6099C225.739 79.326 227.538 79.6841 229.723 79.6841ZM262.288 81.2686C261.016 81.2686 259.611 81.2148 258.071 81.1074C256.532 81.0179 255.037 80.7941 253.586 80.436C252.154 80.0601 250.919 79.4692 249.88 78.6636C249.63 78.4666 249.504 78.2339 249.504 77.9653C249.504 77.3924 249.737 77.106 250.203 77.106C250.346 77.106 250.453 77.1418 250.525 77.2134C252.029 78.2518 253.757 78.9232 255.708 79.2275C257.66 79.5319 259.763 79.6841 262.019 79.6841C263.809 79.6841 265.492 79.5588 267.068 79.3081C268.643 79.0575 269.915 78.6188 270.881 77.9922C271.866 77.3656 272.358 76.4972 272.358 75.3872C272.358 74.2951 271.929 73.4805 271.069 72.9434C270.228 72.4062 269.109 72.0392 267.712 71.8423C266.334 71.6453 264.812 71.529 263.147 71.4932C261.482 71.4574 259.808 71.4036 258.125 71.332C256.46 71.2604 254.929 71.0724 253.533 70.7681C252.154 70.4458 251.035 69.9176 250.176 69.1836C249.334 68.4495 248.914 67.4022 248.914 66.0415C248.914 64.3944 249.478 63.1322 250.605 62.2549C251.751 61.3597 253.21 60.742 254.983 60.4019C256.755 60.0617 258.59 59.8916 260.488 59.8916C262.78 59.8916 264.955 60.0885 267.014 60.4824C269.091 60.8763 270.98 61.5208 272.681 62.416C272.967 62.5771 273.128 62.8278 273.164 63.168C273.164 63.4007 273.092 63.6066 272.949 63.7856C272.806 63.9647 272.645 64.0542 272.466 64.0542C272.358 64.0542 272.287 64.0363 272.251 64.0005C270.729 63.2306 268.993 62.6219 267.041 62.1743C265.09 61.7088 262.941 61.4761 260.596 61.4761C258.984 61.4761 257.445 61.6193 255.977 61.9058C254.526 62.1743 253.345 62.6398 252.432 63.3022C251.519 63.9647 251.062 64.8778 251.062 66.0415C251.062 67.0799 251.483 67.8498 252.324 68.3511C253.184 68.8345 254.303 69.1657 255.681 69.3447C257.078 69.5238 258.608 69.6312 260.273 69.667C261.956 69.7028 263.63 69.7655 265.295 69.855C266.96 69.9445 268.482 70.1593 269.861 70.4995C271.257 70.8397 272.376 71.3947 273.218 72.1646C274.077 72.9165 274.507 73.9907 274.507 75.3872C274.507 76.8553 273.925 78.019 272.761 78.8784C271.615 79.7199 270.111 80.3286 268.25 80.7046C266.388 81.0806 264.4 81.2686 262.288 81.2686ZM299.515 81.2686C297.366 81.2686 295.388 80.9552 293.58 80.3286C291.789 79.702 290.348 78.6278 289.256 77.106C288.164 75.5841 287.618 73.4805 287.618 70.7949C287.618 66.7845 288.647 63.9647 290.706 62.3354C292.783 60.7062 295.719 59.8916 299.515 59.8916C302.021 59.8916 304.08 60.0796 305.691 60.4556C307.303 60.8315 308.574 61.2881 309.505 61.8252C310.454 62.3444 311.152 62.8368 311.6 63.3022V52.9897C311.6 52.5063 311.644 52.0677 311.734 51.6738C311.823 51.2799 312.128 51.083 312.647 51.083C313.166 51.083 313.479 51.262 313.587 51.6201C313.694 51.9782 313.748 52.4168 313.748 52.936V79.5498C313.748 80.1227 313.632 80.5076 313.399 80.7046C313.184 80.9015 312.951 81 312.701 81C312.396 81 312.137 80.9105 311.922 80.7314C311.707 80.5524 311.6 80.1764 311.6 79.6035V75.8706C311.313 77.0164 310.695 77.9474 309.747 78.6636C308.816 79.3797 307.732 79.9258 306.497 80.3018C305.262 80.6777 304.017 80.9284 302.764 81.0537C301.511 81.1969 300.428 81.2686 299.515 81.2686ZM299.515 79.6841C300.589 79.6841 301.753 79.6125 303.006 79.4692C304.277 79.3081 305.503 79.0306 306.685 78.6367C307.867 78.2428 308.896 77.6968 309.773 76.9985C310.669 76.2824 311.277 75.3604 311.6 74.2324V64.5645C311.062 64.1169 310.302 63.6603 309.317 63.1948C308.35 62.7114 307.07 62.3086 305.477 61.9863C303.901 61.6462 301.914 61.4761 299.515 61.4761C296.077 61.4761 293.589 62.2191 292.049 63.7051C290.527 65.1732 289.766 67.5365 289.766 70.7949C289.766 73.0508 290.205 74.8322 291.082 76.1392C291.959 77.4282 293.132 78.3413 294.6 78.8784C296.086 79.4155 297.724 79.6841 299.515 79.6841ZM328.776 81.2686C326.95 81.2686 325.285 81.0627 323.781 80.6509C322.295 80.2212 321.105 79.5498 320.209 78.6367C319.332 77.7057 318.894 76.4883 318.894 74.9844C318.894 73.2298 319.368 71.8602 320.317 70.8755C321.266 69.8908 322.546 69.2015 324.157 68.8076C325.769 68.3958 327.577 68.1899 329.582 68.1899C331.874 68.1899 334.085 68.3153 336.215 68.5659C338.364 68.8166 340.011 69.1925 341.157 69.6938C341.157 67.3127 340.736 65.5402 339.895 64.3765C339.071 63.1948 337.898 62.416 336.376 62.04C334.873 61.6462 333.1 61.4492 331.059 61.4492C328.266 61.4492 326.171 61.6104 324.775 61.9326C323.378 62.2549 322.25 62.5592 321.391 62.8457C321.284 62.8815 321.212 62.8994 321.176 62.8994C320.961 62.8994 320.764 62.792 320.585 62.5771C320.406 62.3444 320.317 62.1117 320.317 61.8789C320.317 61.6462 320.424 61.4761 320.639 61.3687C320.944 61.2254 321.973 60.9479 323.728 60.5361C325.482 60.1064 328.186 59.8916 331.838 59.8916C334.04 59.8916 336.009 60.1602 337.746 60.6973C339.483 61.2165 340.843 62.2459 341.828 63.7856C342.831 65.3075 343.332 67.5723 343.332 70.5801V79.1201C343.332 79.5319 343.269 79.9526 343.144 80.3823C343.037 80.7941 342.732 81 342.231 81C341.819 81 341.533 80.812 341.372 80.436C341.228 80.0601 341.157 79.5856 341.157 79.0127V77.5088C340.638 78.0459 339.877 78.6099 338.874 79.2007C337.889 79.7736 336.582 80.266 334.953 80.6777C333.324 81.0716 331.265 81.2686 328.776 81.2686ZM328.562 79.6841C332.089 79.6841 334.846 79.2902 336.833 78.5024C338.82 77.7147 340.262 76.9538 341.157 76.2197V70.8218C339.42 70.5711 337.567 70.3384 335.598 70.1235C333.646 69.8908 331.713 69.7744 329.797 69.7744C327.04 69.7744 324.891 70.1325 323.352 70.8486C321.812 71.5648 321.042 72.9434 321.042 74.9844C321.042 76.6852 321.749 77.8937 323.164 78.6099C324.578 79.326 326.377 79.6841 328.562 79.6841ZM349.955 81C349.435 81 349.122 80.821 349.015 80.4629C348.907 80.0869 348.854 79.6572 348.854 79.1738V53.0166C348.854 52.4974 348.907 52.0498 349.015 51.6738C349.14 51.2799 349.471 51.083 350.008 51.083C350.456 51.083 350.733 51.2799 350.841 51.6738C350.948 52.0677 351.002 52.4974 351.002 52.9629V79.1201C351.002 79.6393 350.939 80.0869 350.814 80.4629C350.689 80.821 350.402 81 349.955 81ZM366.03 81.2686C364.204 81.2686 362.539 81.0627 361.035 80.6509C359.549 80.2212 358.359 79.5498 357.463 78.6367C356.586 77.7057 356.147 76.4883 356.147 74.9844C356.147 73.2298 356.622 71.8602 357.571 70.8755C358.52 69.8908 359.8 69.2015 361.411 68.8076C363.022 68.3958 364.831 68.1899 366.836 68.1899C369.128 68.1899 371.339 68.3153 373.469 68.5659C375.618 68.8166 377.265 69.1925 378.411 69.6938C378.411 67.3127 377.99 65.5402 377.148 64.3765C376.325 63.1948 375.152 62.416 373.63 62.04C372.126 61.6462 370.354 61.4492 368.313 61.4492C365.52 61.4492 363.425 61.6104 362.029 61.9326C360.632 62.2549 359.504 62.5592 358.645 62.8457C358.538 62.8815 358.466 62.8994 358.43 62.8994C358.215 62.8994 358.018 62.792 357.839 62.5771C357.66 62.3444 357.571 62.1117 357.571 61.8789C357.571 61.6462 357.678 61.4761 357.893 61.3687C358.197 61.2254 359.227 60.9479 360.981 60.5361C362.736 60.1064 365.439 59.8916 369.092 59.8916C371.294 59.8916 373.263 60.1602 375 60.6973C376.737 61.2165 378.097 62.2459 379.082 63.7856C380.085 65.3075 380.586 67.5723 380.586 70.5801V79.1201C380.586 79.5319 380.523 79.9526 380.398 80.3823C380.291 80.7941 379.986 81 379.485 81C379.073 81 378.787 80.812 378.625 80.436C378.482 80.0601 378.411 79.5856 378.411 79.0127V77.5088C377.891 78.0459 377.131 78.6099 376.128 79.2007C375.143 79.7736 373.836 80.266 372.207 80.6777C370.578 81.0716 368.519 81.2686 366.03 81.2686ZM365.815 79.6841C369.342 79.6841 372.1 79.2902 374.087 78.5024C376.074 77.7147 377.515 76.9538 378.411 76.2197V70.8218C376.674 70.5711 374.821 70.3384 372.852 70.1235C370.9 69.8908 368.966 69.7744 367.051 69.7744C364.294 69.7744 362.145 70.1325 360.605 70.8486C359.066 71.5648 358.296 72.9434 358.296 74.9844C358.296 76.6852 359.003 77.8937 360.417 78.6099C361.832 79.326 363.631 79.6841 365.815 79.6841ZM387.289 81C387.038 81 386.77 80.9373 386.483 80.812C386.215 80.6867 386.081 80.2839 386.081 79.6035V61.7446C386.081 61.1717 386.206 60.8136 386.457 60.6704C386.707 60.5093 386.949 60.4287 387.182 60.4287C387.486 60.4287 387.728 60.5093 387.907 60.6704C388.104 60.8136 388.202 61.1717 388.202 61.7446V65.0479C388.775 63.4186 389.957 62.1564 391.747 61.2612C393.555 60.3481 395.623 59.8916 397.951 59.8916C399.777 59.8916 401.138 60.196 402.033 60.8047C402.946 61.4134 403.572 62.1117 403.913 62.8994C404.253 63.6872 404.477 64.3586 404.584 64.9136C405.014 64.1616 405.64 63.4007 406.464 62.6309C407.305 61.861 408.38 61.2165 409.687 60.6973C410.993 60.1602 412.56 59.8916 414.386 59.8916C416.839 59.8916 418.656 60.5272 419.838 61.7983C421.037 63.0695 421.637 65.0926 421.637 67.8677V79.6035C421.637 80.2301 421.512 80.624 421.261 80.7852C421.028 80.9284 420.805 81 420.59 81C420.321 81 420.071 80.9373 419.838 80.812C419.605 80.6867 419.489 80.2839 419.489 79.6035V67.8677C419.489 65.3791 419.068 63.6961 418.227 62.8188C417.403 61.9237 416.141 61.4761 414.44 61.4761C412.148 61.4761 410.242 61.9416 408.72 62.8726C407.216 63.8035 405.963 65.0837 404.96 66.7129V79.6035C404.96 80.2301 404.844 80.624 404.611 80.7852C404.378 80.9284 404.154 81 403.939 81C403.689 81 403.438 80.9373 403.188 80.812C402.937 80.6867 402.812 80.2839 402.812 79.6035V66.7129C402.812 65.0837 402.427 63.8035 401.657 62.8726C400.905 61.9416 399.687 61.4761 398.004 61.4761C395.48 61.4761 393.323 62.0042 391.532 63.0605C389.76 64.1169 388.659 65.3701 388.229 66.8203V79.6035C388.229 80.2301 388.122 80.624 387.907 80.7852C387.71 80.9284 387.504 81 387.289 81ZM437.917 81C437.398 81 437.067 80.821 436.923 80.4629C436.798 80.0869 436.735 79.6572 436.735 79.1738V52.8555C436.735 52.3363 436.807 51.9155 436.95 51.5933C437.111 51.2531 437.451 51.083 437.971 51.083C438.4 51.083 438.687 51.2531 438.83 51.5933C438.973 51.9334 439.045 52.3363 439.045 52.8018V66.9277L460.556 51.4858C460.914 51.2173 461.272 51.083 461.63 51.083C462.221 51.083 462.517 51.3695 462.517 51.9424C462.517 52.3363 462.32 52.6764 461.926 52.9629L446.296 64.3228L461.953 78.9321C462.311 79.2544 462.49 79.6125 462.49 80.0063C462.49 80.2749 462.4 80.5076 462.221 80.7046C462.042 80.9015 461.818 81 461.55 81C461.263 81 460.968 80.8657 460.664 80.5972L444.604 65.4238L439.045 69.0762V79.1201C439.045 79.6393 438.964 80.0869 438.803 80.4629C438.642 80.821 438.347 81 437.917 81ZM476.202 81.2686C474.376 81.2686 472.711 81.0627 471.207 80.6509C469.721 80.2212 468.53 79.5498 467.635 78.6367C466.758 77.7057 466.319 76.4883 466.319 74.9844C466.319 73.2298 466.794 71.8602 467.743 70.8755C468.692 69.8908 469.972 69.2015 471.583 68.8076C473.194 68.3958 475.003 68.1899 477.008 68.1899C479.299 68.1899 481.511 68.3153 483.641 68.5659C485.79 68.8166 487.437 69.1925 488.583 69.6938C488.583 67.3127 488.162 65.5402 487.32 64.3765C486.497 63.1948 485.324 62.416 483.802 62.04C482.298 61.6462 480.526 61.4492 478.485 61.4492C475.692 61.4492 473.597 61.6104 472.201 61.9326C470.804 62.2549 469.676 62.5592 468.817 62.8457C468.709 62.8815 468.638 62.8994 468.602 62.8994C468.387 62.8994 468.19 62.792 468.011 62.5771C467.832 62.3444 467.743 62.1117 467.743 61.8789C467.743 61.6462 467.85 61.4761 468.065 61.3687C468.369 61.2254 469.399 60.9479 471.153 60.5361C472.908 60.1064 475.611 59.8916 479.264 59.8916C481.466 59.8916 483.435 60.1602 485.172 60.6973C486.909 61.2165 488.269 62.2459 489.254 63.7856C490.257 65.3075 490.758 67.5723 490.758 70.5801V79.1201C490.758 79.5319 490.695 79.9526 490.57 80.3823C490.462 80.7941 490.158 81 489.657 81C489.245 81 488.958 80.812 488.797 80.436C488.654 80.0601 488.583 79.5856 488.583 79.0127V77.5088C488.063 78.0459 487.302 78.6099 486.3 79.2007C485.315 79.7736 484.008 80.266 482.379 80.6777C480.75 81.0716 478.691 81.2686 476.202 81.2686ZM475.987 79.6841C479.514 79.6841 482.271 79.2902 484.259 78.5024C486.246 77.7147 487.687 76.9538 488.583 76.2197V70.8218C486.846 70.5711 484.993 70.3384 483.023 70.1235C481.072 69.8908 479.138 69.7744 477.223 69.7744C474.465 69.7744 472.317 70.1325 470.777 70.8486C469.238 71.5648 468.468 72.9434 468.468 74.9844C468.468 76.6852 469.175 77.8937 470.589 78.6099C472.004 79.326 473.803 79.6841 475.987 79.6841ZM497.327 81C496.825 81 496.512 80.8031 496.387 80.4092C496.279 80.0153 496.226 79.5856 496.226 79.1201V61.9326C496.226 61.5208 496.297 61.1717 496.44 60.8853C496.602 60.5809 496.933 60.4287 497.434 60.4287C497.828 60.4287 498.079 60.5719 498.186 60.8584C498.311 61.1449 498.374 61.5029 498.374 61.9326V65.0479C498.768 63.5798 499.493 62.4787 500.549 61.7446C501.624 61.0106 502.787 60.5182 504.041 60.2676C505.294 60.0169 506.386 59.8916 507.317 59.8916C508.695 59.8916 509.707 59.9632 510.352 60.1064C510.996 60.2497 511.569 60.3929 512.07 60.5361C512.446 60.6436 512.634 60.9121 512.634 61.3418C512.634 61.5745 512.554 61.7894 512.393 61.9863C512.249 62.1833 512.026 62.2817 511.721 62.2817C511.65 62.2817 511.596 62.2817 511.56 62.2817C511.542 62.2638 511.488 62.2459 511.399 62.228C510.701 62.0311 510.029 61.8789 509.385 61.7715C508.74 61.6641 508.051 61.6104 507.317 61.6104C505.204 61.6104 503.324 62.0311 501.677 62.8726C500.048 63.6961 498.947 64.9941 498.374 66.7666V79.1201C498.374 79.5856 498.311 80.0153 498.186 80.4092C498.061 80.8031 497.774 81 497.327 81ZM526.75 89.9697C524.744 89.9697 523.142 89.8354 521.942 89.5669C520.743 89.2983 519.794 88.9671 519.096 88.5732C518.415 88.1794 517.842 87.8034 517.377 87.4453C517.234 87.32 517.162 87.1499 517.162 86.9351C517.162 86.3442 517.44 86.0488 517.995 86.0488C518.138 86.0488 518.29 86.1025 518.451 86.21C519.132 86.7113 520.08 87.1947 521.298 87.6602C522.533 88.1436 524.35 88.3853 526.75 88.3853C529.22 88.3853 531.154 88.0093 532.55 87.2573C533.947 86.5233 534.931 85.2879 535.504 83.5513C536.095 81.8146 536.391 79.4424 536.391 76.4346C536.104 77.5267 535.54 78.395 534.699 79.0396C533.875 79.6841 532.908 80.1675 531.798 80.4897C530.706 80.812 529.587 81.0179 528.441 81.1074C527.313 81.2148 526.293 81.2686 525.38 81.2686C522.82 81.2686 520.77 80.9463 519.23 80.3018C517.708 79.6393 516.607 78.5293 515.927 76.9717C515.264 75.4141 514.933 73.2925 514.933 70.6069V62.3623C514.933 61.8968 514.987 61.4582 515.094 61.0464C515.202 60.6346 515.497 60.4287 515.98 60.4287C516.5 60.4287 516.813 60.6346 516.92 61.0464C517.028 61.4582 517.082 61.8968 517.082 62.3623V70.6069C517.082 72.9344 517.296 74.7606 517.726 76.0854C518.174 77.4103 518.988 78.3413 520.17 78.8784C521.369 79.4155 523.106 79.6841 525.38 79.6841C526.758 79.6841 528.218 79.5498 529.757 79.2812C531.315 78.9948 532.711 78.4845 533.947 77.7505C535.182 77.0164 535.997 75.9512 536.391 74.5547V62.3623C536.391 61.8968 536.453 61.4582 536.579 61.0464C536.704 60.6346 536.981 60.4287 537.411 60.4287C537.93 60.4287 538.244 60.6346 538.351 61.0464C538.476 61.4582 538.539 61.8968 538.539 62.3623V75.5483C538.539 79.2186 538.136 82.1011 537.331 84.1958C536.543 86.3084 535.281 87.7944 533.544 88.6538C531.825 89.5311 529.56 89.9697 526.75 89.9697ZM553.138 81.2686C551.312 81.2686 549.646 81.0627 548.143 80.6509C546.657 80.2212 545.466 79.5498 544.571 78.6367C543.694 77.7057 543.255 76.4883 543.255 74.9844C543.255 73.2298 543.729 71.8602 544.678 70.8755C545.627 69.8908 546.907 69.2015 548.519 68.8076C550.13 68.3958 551.938 68.1899 553.943 68.1899C556.235 68.1899 558.446 68.3153 560.577 68.5659C562.725 68.8166 564.372 69.1925 565.518 69.6938C565.518 67.3127 565.097 65.5402 564.256 64.3765C563.432 63.1948 562.26 62.416 560.738 62.04C559.234 61.6462 557.461 61.4492 555.42 61.4492C552.627 61.4492 550.533 61.6104 549.136 61.9326C547.74 62.2549 546.612 62.5592 545.752 62.8457C545.645 62.8815 545.573 62.8994 545.538 62.8994C545.323 62.8994 545.126 62.792 544.947 62.5771C544.768 62.3444 544.678 62.1117 544.678 61.8789C544.678 61.6462 544.786 61.4761 545 61.3687C545.305 61.2254 546.334 60.9479 548.089 60.5361C549.843 60.1064 552.547 59.8916 556.199 59.8916C558.401 59.8916 560.371 60.1602 562.107 60.6973C563.844 61.2165 565.205 62.2459 566.189 63.7856C567.192 65.3075 567.693 67.5723 567.693 70.5801V79.1201C567.693 79.5319 567.631 79.9526 567.505 80.3823C567.398 80.7941 567.094 81 566.592 81C566.181 81 565.894 80.812 565.733 80.436C565.59 80.0601 565.518 79.5856 565.518 79.0127V77.5088C564.999 78.0459 564.238 78.6099 563.235 79.2007C562.251 79.7736 560.944 80.266 559.314 80.6777C557.685 81.0716 555.626 81.2686 553.138 81.2686ZM552.923 79.6841C556.45 79.6841 559.207 79.2902 561.194 78.5024C563.182 77.7147 564.623 76.9538 565.518 76.2197V70.8218C563.781 70.5711 561.928 70.3384 559.959 70.1235C558.007 69.8908 556.074 69.7744 554.158 69.7744C551.401 69.7744 549.253 70.1325 547.713 70.8486C546.173 71.5648 545.403 72.9434 545.403 74.9844C545.403 76.6852 546.111 77.8937 547.525 78.6099C548.939 79.326 550.739 79.6841 552.923 79.6841Z" fill="white"/>
<path d="M625.521 134.089L672.572 133.95C664.82 110.253 643.249 91.7839 684.245 48.0581C701.28 74.0074 740.055 51.8401 718.294 22.3725L727.518 -8.54421C711.237 -0.627239 704.126 18.2615 680.377 33.5379C679.953 32.7741 677.421 28.1785 687.254 11.2535C731.97 -2.85195 667.278 -42.363 676.254 6.17387C674.687 15.9804 671.128 23.0543 665.254 26.9543C661.686 26.9915 659.855 22.2678 658.296 16.795C671.782 2.01805 678.853 -13.2271 657.622 -30.5382C662.273 -7.90581 658.909 4.67971 649.092 9.17546C637.714 2.50887 636.588 -12.029 641.235 -31C623.702 -17.5016 623.974 -1.81068 638.541 15.6405C639.376 21.0341 639.649 26.1386 632.929 27.6469C626.994 21.8092 622.626 12.7737 621.256 6.17387C635.393 -37.8985 565.157 -9.99639 611.155 11.2535C615.919 19.8 618.289 24.7925 617.06 33.5379C598.801 26.4023 592.731 1.54077 570.973 -8.8342L579.595 22.3725C559.44 51.9827 595.657 74.4622 612.951 48.4274C648.521 80.5675 641.063 107.79 625.521 134.089Z" fill="#F0EBE5"/>
<path d="M650.194 74.6584L646.771 92.0771C673.905 96.7298 693.128 101.39 704.948 105.615C710.513 107.604 714.096 109.474 716.193 110.866C714.617 111.887 712.547 113.127 708.837 114.511C699.878 117.854 685.566 121.279 667.618 124.272C595.825 136.242 465.291 142.136 346.133 135.458L345 153.133C465.633 159.893 596.343 154.144 670.952 141.705C689.604 138.595 704.718 135.118 715.875 130.954C721.453 128.873 726.073 126.689 729.921 123.67C733.768 120.651 737.392 115.849 736.966 110.056C736.539 104.264 732.637 100.1 728.328 97.0578C724.018 94.0156 718.639 91.5432 711.734 89.0748C697.923 84.138 677.952 79.4182 650.194 74.6584Z" fill="#F0EBE5"/>
<path d="M661.832 80.7183L659.758 90.2647C664.894 91.238 670.006 92.2583 675.071 93.3708L677.456 83.8866C672.25 82.743 667.036 81.7044 661.832 80.7183ZM682.59 85.035L680.079 94.4914C686.748 96.0334 693.332 97.7049 699.747 99.7005L703.044 90.4653C696.263 88.3558 689.418 86.6134 682.59 85.035ZM708.141 92.1394L704.496 101.264C708.325 102.599 711.983 104.044 715.327 105.795C717.486 106.949 719.324 108.115 720.608 109.399L728.232 102.751C725.793 100.314 723.009 98.669 720.468 97.3138L720.453 97.3068L720.43 97.2996C716.393 95.1849 712.229 93.5647 708.141 92.1394ZM731.965 109.669L721.631 110.969C721.623 110.915 721.623 111.102 721.497 111.336C721.137 111.994 720.276 112.854 718.971 113.778L718.964 113.785C716.492 115.484 713.484 116.843 710.2 118.122L714.215 127.115C717.827 125.709 721.649 124.052 725.216 121.588L725.239 121.567L725.262 121.553C727.144 120.222 729.332 118.455 730.81 115.735V115.728L730.818 115.721C731.753 113.988 732.29 111.921 731.965 109.669ZM705.607 119.755C699.3 121.821 692.755 123.446 686.087 124.902L688.457 134.386C695.326 132.886 702.247 131.182 709.067 128.948L705.607 119.755ZM681.079 125.953C674.381 127.303 667.628 128.472 660.832 129.53L662.543 139.138C669.465 138.062 676.389 136.862 683.286 135.472L681.079 125.953ZM655.72 130.304C648.915 131.312 642.079 132.202 635.222 133.023L636.548 142.687C643.485 141.857 650.427 140.946 657.358 139.92L655.72 130.304ZM630.073 133.625C623.214 134.409 616.342 135.111 609.457 135.755L610.494 145.447C617.446 144.797 624.396 144.083 631.34 143.289L630.073 133.625ZM604.286 136.233C597.4 136.854 590.503 137.404 583.595 137.914L584.417 147.626C591.373 147.113 598.328 146.552 605.286 145.924L604.286 136.233ZM578.416 138.287C571.507 138.77 564.595 139.209 557.681 139.595L558.303 149.314C565.272 148.925 572.235 148.486 579.194 148L578.416 138.287ZM349.815 139.553L349.178 149.28C356.141 149.676 363.112 150.03 370.084 150.338L370.573 140.612C363.653 140.306 356.734 139.948 349.815 139.553ZM552.48 139.878C545.563 140.25 538.647 140.572 531.723 140.854L532.175 150.587C539.145 150.304 546.113 149.972 553.08 149.598L552.48 139.878ZM375.774 140.833L375.299 150.566C382.27 150.86 389.246 151.107 396.22 151.313L396.546 141.58C389.619 141.376 382.697 141.125 375.774 140.833ZM526.522 141.061C519.598 141.329 512.671 141.549 505.742 141.732L506.039 151.473C513.012 151.288 519.981 151.064 526.952 150.795L526.522 141.061ZM401.754 141.726L401.443 151.459C408.418 151.653 415.391 151.803 422.363 151.915L422.541 142.175C415.608 142.064 408.68 141.918 401.754 141.726ZM500.542 141.871C493.612 142.041 486.678 142.169 479.747 142.258L479.888 151.998C486.863 151.909 493.842 151.775 500.816 151.604L500.542 141.871ZM427.742 142.258L427.594 151.991C434.567 152.086 441.539 152.147 448.514 152.164L448.544 142.424C441.611 142.406 434.675 142.352 427.742 142.258ZM474.539 142.321C467.608 142.397 460.678 142.433 453.744 142.431V152.171C460.719 152.173 467.69 152.139 474.665 152.061L474.539 142.321Z" fill="#826644"/>
<path d="M718.849 111.295L736.058 110.816L718.849 111.295Z" fill="#F0EBE5"/>
</g>
<path d="M30.2393 94.4727C30.2393 96.1953 29.7368 97.6468 28.7319 98.8271C27.7111 99.9915 25.9087 100.574 23.3247 100.574L13.1802 100.574L13.1802 102.679C13.1802 103.126 12.9888 103.349 12.606 103.349C12.2231 103.349 12.0317 103.126 12.0317 102.679L12.0317 100.574L6.07422 100.574C5.5638 100.574 5.24479 100.47 5.11719 100.263C4.97363 100.055 4.90186 99.84 4.90186 99.6167C4.90186 99.3455 4.97363 99.1222 5.11719 98.9468C5.24479 98.7554 5.5638 98.6597 6.07422 98.6597L12.0317 98.6597L12.0317 90.7163C12.0317 90.2378 12.2231 89.9985 12.606 89.9985C12.9888 89.9985 13.1802 90.2378 13.1802 90.7163L13.1802 98.6597L23.3247 98.6597C24.8719 98.6597 26.0443 98.4603 26.8418 98.0615C27.6234 97.6468 28.1497 97.0965 28.4209 96.4106C28.6921 95.7248 28.8276 94.9671 28.8276 94.1377C28.8276 93.3721 28.6921 92.6224 28.4209 91.8887C28.1497 91.1549 27.759 90.3096 27.2485 89.3525C27.1528 89.1611 27.105 88.9777 27.105 88.8022C27.105 88.3556 27.3123 88.1323 27.7271 88.1323C28.0461 88.1323 28.3013 88.3078 28.4927 88.6587C29.2264 89.9985 29.7049 91.0672 29.9282 91.8647C30.1356 92.6623 30.2393 93.5316 30.2393 94.4727ZM30.2632 76.179C30.2632 80.1666 29.4338 83.0457 27.7749 84.8162C26.1001 86.5867 23.7713 87.472 20.7886 87.472C18.3162 87.472 16.3862 86.9695 14.9985 85.9646C13.6108 84.9438 12.6299 83.5641 12.0557 81.8255C11.4814 80.0869 11.1943 78.1489 11.1943 76.0115C11.1943 72.6938 11.8324 70.2135 13.1084 68.5706C14.3685 66.9118 16.1789 66.0823 18.5395 66.0823C18.9702 66.0823 19.4806 66.1461 20.0708 66.2737C20.645 66.4013 20.9321 66.5289 20.9321 66.6565L20.6929 85.5579C23.8351 85.4941 25.9805 84.6806 27.1289 83.1175C28.2773 81.5384 28.8516 79.2335 28.8516 76.2029C28.8516 74.4165 28.6921 72.9251 28.373 71.7288C28.0381 70.5166 27.6712 69.5436 27.2725 68.8099C26.8577 68.0602 26.5308 67.5099 26.2915 67.159C26.2596 67.1111 26.2437 67.0473 26.2437 66.9676C26.2437 66.7921 26.3314 66.6326 26.5068 66.4891C26.6663 66.3296 26.8418 66.2498 27.0332 66.2498C27.2087 66.2498 27.3522 66.3296 27.4639 66.4891C27.6393 66.6645 27.9583 67.1191 28.4209 67.8528C28.8675 68.5706 29.2902 69.6154 29.689 70.9871C30.0718 72.3429 30.2632 74.0735 30.2632 76.179ZM19.5205 85.534L19.5205 67.4939L18.396 67.4939C17.3273 67.4939 16.3623 67.7651 15.501 68.3074C14.6237 68.8497 13.9219 69.743 13.3955 70.9871C12.8691 72.2312 12.606 73.9061 12.606 76.0115C12.606 78.9624 13.1164 81.2592 14.1372 82.9021C15.158 84.5291 16.9525 85.4064 19.5205 85.534ZM30 60.9C30 61.1233 29.9442 61.3626 29.8325 61.6178C29.7209 61.857 29.362 61.9767 28.7559 61.9767L12.8452 61.9767C12.3348 61.9767 12.0158 61.865 11.8882 61.6417C11.7446 61.4184 11.6728 61.2031 11.6728 60.9957C11.6728 60.7245 11.7446 60.5092 11.8882 60.3497C12.0158 60.1743 12.3348 60.0865 12.8452 60.0865L15.7881 60.0865C14.3366 59.5761 13.2121 58.5234 12.4145 56.9283C11.6011 55.3173 11.1943 53.475 11.1943 51.4015C11.1943 49.7745 11.4655 48.5623 12.0078 47.7647C12.5501 46.9513 13.1722 46.393 13.874 46.0899C14.5758 45.7869 15.174 45.5875 15.6685 45.4918C14.9985 45.109 14.3206 44.5507 13.6348 43.817C12.9489 43.0673 12.3747 42.1103 11.9121 40.9459C11.4336 39.7815 11.1943 38.3858 11.1943 36.7589C11.1943 34.5737 11.7606 32.9547 12.8931 31.902C14.0256 30.8333 15.828 30.2989 18.3003 30.2989L28.7559 30.2989C29.3141 30.2989 29.665 30.4106 29.8086 30.6339C29.9362 30.8412 30 31.0406 30 31.232C30 31.4713 29.9442 31.6946 29.8325 31.902C29.7209 32.1093 29.362 32.213 28.7559 32.213L18.3003 32.213C16.0832 32.213 14.5838 32.5878 13.8022 33.3375C13.0047 34.0712 12.606 35.1957 12.606 36.711C12.606 38.7527 13.0207 40.4514 13.8501 41.8072C14.6795 43.1471 15.82 44.2636 17.2715 45.1568L28.7559 45.1568C29.3141 45.1568 29.665 45.2605 29.8086 45.4679C29.9362 45.6752 30 45.8746 30 46.066C30 46.2893 29.9442 46.5126 29.8325 46.7359C29.7209 46.9592 29.362 47.0709 28.7559 47.0709L17.2715 47.0709C15.82 47.0709 14.6795 47.4138 13.8501 48.0997C13.0207 48.7696 12.606 49.8543 12.606 51.3536C12.606 53.6026 13.0765 55.5247 14.0176 57.1197C14.9587 58.6988 16.0752 59.6798 17.3672 60.0626L28.7559 60.0626C29.3141 60.0626 29.665 60.1583 29.8086 60.3497C29.9362 60.5252 30 60.7086 30 60.9ZM30.2393 17.2211C30.2393 18.848 30.0558 20.3314 29.689 21.6713C29.3061 22.9952 28.708 24.0559 27.8945 24.8534C27.0651 25.635 25.9805 26.0258 24.6406 26.0258C23.0775 26.0258 21.8573 25.6031 20.98 24.7577C20.1027 23.9123 19.4886 22.7719 19.1377 21.3363C18.7708 19.9008 18.5874 18.2898 18.5874 16.5033C18.5874 14.4617 18.6991 12.4918 18.9224 10.5936C19.1457 8.67959 19.4806 7.21214 19.9272 6.19131C17.8058 6.19131 16.2267 6.56614 15.1899 7.31582C14.1372 8.04954 13.4434 9.0943 13.1084 10.4501C12.7575 11.7899 12.582 13.369 12.582 15.1874C12.582 17.6757 12.7256 19.5419 13.0127 20.786C13.2998 22.0302 13.571 23.0351 13.8262 23.8007C13.8581 23.8964 13.874 23.9602 13.874 23.9921C13.874 24.1835 13.7783 24.3589 13.5869 24.5185C13.3796 24.678 13.1722 24.7577 12.9648 24.7577C12.7575 24.7577 12.606 24.662 12.5103 24.4706C12.3826 24.1994 12.1354 23.2823 11.7686 21.7191C11.3857 20.156 11.1943 17.7475 11.1943 14.4936C11.1943 12.5316 11.4336 10.7771 11.9121 9.22988C12.3747 7.68268 13.2918 6.47044 14.6636 5.59316C16.0194 4.69993 18.0371 4.25332 20.7168 4.25332L28.3252 4.25332C28.6921 4.25332 29.0669 4.30914 29.4497 4.4208C29.8166 4.5165 30 4.78766 30 5.23427C30 5.60114 29.8325 5.85634 29.4976 5.9999C29.1626 6.1275 28.7399 6.19131 28.2295 6.19131L26.8896 6.19131C27.3682 6.65387 27.8706 7.33177 28.397 8.225C28.9074 9.10228 29.346 10.2667 29.7129 11.7182C30.0638 13.1697 30.2393 15.004 30.2393 17.2211ZM28.8276 17.4125C28.8276 14.2702 28.4767 11.8139 27.7749 10.0434C27.0731 8.27285 26.3952 6.98883 25.7412 6.19131L20.9321 6.19131C20.7088 7.73851 20.5015 9.38939 20.3101 11.1439C20.1027 12.8825 19.999 14.6052 19.999 16.3119C19.999 18.7683 20.318 20.6824 20.9561 22.0541C21.5941 23.4258 22.8223 24.1117 24.6406 24.1117C26.1559 24.1117 27.2326 23.4817 27.8706 22.2216C28.5086 20.9615 28.8276 19.3585 28.8276 17.4125Z" fill="black"/>
<defs>
<clipPath id="clip0_349_92">
<rect width="742" height="104" fill="white" transform="translate(50)"/>
</clipPath>
</defs>
</svg>
