<svg width="599" height="1080" viewBox="0 0 599 1080" fill="none" xmlns="http://www.w3.org/2000/svg">
<path d="M189.705 89.2995C179.752 77.3929 165.504 71.4396 146.963 71.4396C121.591 71.4396 104.318 80.9063 95.1454 99.8398C89.8758 110.77 86.7531 128.142 85.7772 151.956H4.68408C6.05027 115.845 12.5885 86.6644 24.2987 64.4128C46.548 22.0565 86.07 0.878356 142.864 0.878356C187.754 0.878356 223.47 13.3705 250.013 38.3549C276.556 63.144 289.827 96.0336 289.827 137.023C289.827 168.449 280.459 196.361 261.723 220.76C249.427 236.961 229.227 255.016 201.123 274.925L167.749 298.641C146.865 313.475 132.52 324.211 124.714 330.847C117.102 337.484 110.661 345.194 105.392 353.977H290.706V427.466H0C0.78068 397.017 7.31887 369.202 19.6146 344.023C31.52 315.72 59.6244 285.758 103.928 254.138C142.377 226.616 167.261 206.902 178.581 194.995C195.951 176.452 204.636 156.152 204.636 134.096C204.636 116.138 199.659 101.206 189.705 89.2995Z" fill="white"/>
<path d="M450.14 438.007C396.078 438.007 358.117 419.073 336.258 381.206C314.594 343.339 303.763 289.369 303.763 219.296C303.763 149.223 314.594 95.1552 336.258 57.0931C358.117 19.031 396.078 0 450.14 0C504.202 0 542.163 19.031 564.022 57.0931C585.686 95.1552 596.518 149.223 596.518 219.296C596.518 289.369 585.588 343.339 563.729 381.206C542.065 419.073 504.202 438.007 450.14 438.007ZM499.03 331.14C506.642 305.375 510.448 268.094 510.448 219.296C510.448 168.156 506.544 130.289 498.737 105.695C491.126 81.1015 474.927 68.8045 450.14 68.8045C425.353 68.8045 408.959 81.1015 400.957 105.695C392.955 130.289 388.954 168.156 388.954 219.296C388.954 268.094 392.955 305.473 400.957 331.433C408.959 357.198 425.353 370.081 450.14 370.081C474.927 370.081 491.223 357.1 499.03 331.14Z" fill="white"/>
<path d="M189.705 571.091C179.752 559.184 165.504 553.231 146.963 553.231C121.591 553.231 104.318 562.697 95.1454 581.631C89.8758 592.561 86.7531 609.933 85.7772 633.747H4.68408C6.05027 597.636 12.5885 568.455 24.2987 546.204C46.548 503.848 86.07 482.669 142.864 482.669C187.754 482.669 223.47 495.162 250.013 520.146C276.556 544.935 289.827 577.825 289.827 618.815C289.827 650.24 280.459 678.152 261.723 702.551C249.427 718.752 229.227 736.807 201.123 756.716L167.749 780.432C146.865 795.266 132.52 806.002 124.714 812.638C117.102 819.275 110.661 826.985 105.392 835.768H290.706V909.257H0C0.78068 878.808 7.31887 850.993 19.6146 825.814C31.52 797.511 59.6244 767.549 103.928 735.929C142.377 708.407 167.261 688.693 178.581 676.786C195.951 658.243 204.636 637.943 204.636 615.887C204.636 597.929 199.659 582.997 189.705 571.091Z" fill="white"/>
<path d="M444.87 698.452C434.722 698.452 425.939 699.721 418.523 702.258C405.446 706.943 395.59 715.629 388.954 728.316L314.009 724.803L343.87 490.282H577.781V561.136H404.178L388.954 653.949C401.835 645.556 411.887 639.993 419.108 637.26C431.209 632.771 445.944 630.526 463.314 630.526C498.445 630.526 529.086 642.335 555.239 665.953C581.392 689.571 594.468 723.924 594.468 769.013C594.468 808.247 581.88 843.283 556.703 874.123C531.526 904.963 493.858 920.383 443.699 920.383C403.299 920.383 370.12 909.55 344.163 887.884C318.205 866.218 303.763 835.476 300.835 795.657H383.977C387.295 813.809 393.638 827.863 403.006 837.818C412.375 847.577 426.037 852.457 443.992 852.457C464.68 852.457 480.391 845.235 491.126 830.791C502.055 816.152 507.52 797.804 507.52 775.747C507.52 754.081 502.446 735.831 492.297 720.997C482.148 705.967 466.339 698.452 444.87 698.452Z" fill="white"/>
<path d="M59.7411 1033.97H34.289V1077.07H9.40613V957.199H61.6114C73.6462 957.199 83.2416 960.29 90.3974 966.47C97.5533 972.651 101.131 982.22 101.131 995.178C101.131 1009.33 97.5533 1019.33 90.3974 1025.19C83.2416 1031.04 73.0228 1033.97 59.7411 1033.97ZM71.4507 1009C74.7033 1006.13 76.3297 1001.58 76.3297 995.341C76.3297 989.106 74.6762 984.66 71.3693 982.003C68.1167 979.347 63.5359 978.019 57.6269 978.019H34.289V1013.31H57.6269C63.5359 1013.31 68.1438 1011.88 71.4507 1009Z" fill="white"/>
<path d="M185.587 1051.05C184.99 1056.31 182.253 1061.65 177.374 1067.07C169.784 1075.69 159.159 1080 145.498 1080C134.222 1080 124.274 1076.37 115.654 1069.1C107.035 1061.84 102.725 1050.02 102.725 1033.64C102.725 1018.3 106.601 1006.54 114.353 998.35C122.16 990.163 132.27 986.07 144.684 986.07C152.057 986.07 158.698 987.452 164.607 990.217C170.516 992.982 175.395 997.347 179.244 1003.31C182.713 1008.57 184.963 1014.67 185.993 1021.61C186.589 1025.67 186.833 1031.53 186.725 1039.17H126.063C126.388 1048.07 129.18 1054.3 134.438 1057.88C137.637 1060.1 141.486 1061.21 145.985 1061.21C150.756 1061.21 154.632 1059.86 157.614 1057.15C159.24 1055.68 160.677 1053.65 161.923 1051.05H185.587ZM162.655 1023.89C162.276 1017.76 160.406 1013.12 157.044 1009.98C153.738 1006.78 149.618 1005.18 144.684 1005.18C139.317 1005.18 135.143 1006.86 132.162 1010.22C129.234 1013.58 127.391 1018.14 126.632 1023.89H162.655Z" fill="white"/>
<path d="M238.654 1009.82C229.329 1009.82 223.068 1012.85 219.87 1018.92C218.081 1022.34 217.186 1027.6 217.186 1034.7V1077.07H193.848V988.428H215.966V1003.88C219.544 997.97 222.662 993.931 225.318 991.762C229.655 988.13 235.293 986.314 242.232 986.314C242.665 986.314 243.018 986.341 243.289 986.395C243.614 986.395 244.292 986.422 245.322 986.476V1010.22C243.858 1010.06 242.557 1009.95 241.419 1009.9C240.28 1009.84 239.359 1009.82 238.654 1009.82Z" fill="white"/>
<path d="M291.233 1060.56V1077.89L280.255 1078.29C269.305 1078.67 261.824 1076.77 257.812 1072.6C255.21 1069.94 253.909 1065.85 253.909 1060.32V1005.75H241.549V989.241H253.909V964.519H276.84V989.241H291.233V1005.75H276.84V1052.59C276.84 1056.23 277.301 1058.5 278.222 1059.42C279.144 1060.29 281.963 1060.73 286.679 1060.73C287.384 1060.73 288.116 1060.73 288.875 1060.73C289.688 1060.67 290.474 1060.62 291.233 1060.56Z" fill="white"/>
<path d="M301.121 998.024C307.247 990.217 317.764 986.314 332.672 986.314C342.376 986.314 350.995 988.238 358.531 992.088C366.066 995.937 369.834 1003.2 369.834 1013.88V1054.55C369.834 1057.36 369.888 1060.78 369.996 1064.79C370.159 1067.83 370.62 1069.89 371.379 1070.97C372.138 1072.06 373.276 1072.95 374.794 1073.66V1077.07H349.586C348.881 1075.28 348.393 1073.6 348.122 1072.03C347.851 1070.46 347.634 1068.67 347.472 1066.66C344.273 1070.13 340.587 1073.09 336.413 1075.53C331.425 1078.4 325.787 1079.84 319.499 1079.84C311.475 1079.84 304.835 1077.56 299.576 1073.01C294.372 1068.4 291.77 1061.89 291.77 1053.49C291.77 1042.59 295.971 1034.7 304.374 1029.82C308.982 1027.17 315.758 1025.27 324.703 1024.13L332.591 1023.15C336.873 1022.61 339.936 1021.93 341.779 1021.12C345.086 1019.71 346.74 1017.52 346.74 1014.53C346.74 1010.9 345.466 1008.41 342.918 1007.05C340.424 1005.64 336.738 1004.94 331.859 1004.94C326.384 1004.94 322.507 1006.29 320.231 1009C318.604 1011.01 317.52 1013.72 316.978 1017.14H294.616C295.104 1009.38 297.272 1003.01 301.121 998.024ZM318.36 1060.32C320.529 1062.11 323.185 1063 326.329 1063C331.317 1063 335.898 1061.54 340.072 1058.61C344.3 1055.68 346.496 1050.34 346.658 1042.59V1033.97C345.195 1034.89 343.704 1035.65 342.186 1036.25C340.722 1036.79 338.689 1037.3 336.087 1037.79L330.883 1038.77C326.004 1039.64 322.507 1040.69 320.393 1041.94C316.815 1044.05 315.026 1047.33 315.026 1051.78C315.026 1055.74 316.138 1058.58 318.36 1060.32Z" fill="white"/>
<path d="M431.927 1012.83C429.975 1008.54 426.154 1006.4 420.461 1006.4C413.848 1006.4 409.402 1008.54 407.125 1012.83C405.879 1015.27 405.255 1018.9 405.255 1023.72V1077.07H381.755V988.591H404.279V1001.52C407.153 996.913 409.863 993.633 412.411 991.681C416.911 988.211 422.738 986.476 429.894 986.476C436.67 986.476 442.146 987.967 446.32 990.949C449.681 993.714 452.229 997.265 453.964 1001.6C457 996.398 460.767 992.576 465.267 990.136C470.037 987.696 475.35 986.476 481.205 986.476C485.108 986.476 488.957 987.235 492.752 988.753C496.547 990.271 499.989 992.928 503.079 996.723C505.573 999.814 507.253 1003.61 508.121 1008.11C508.663 1011.09 508.934 1015.46 508.934 1021.2L508.771 1077.07H485.027V1020.63C485.027 1017.27 484.485 1014.51 483.4 1012.34C481.34 1008.22 477.546 1006.16 472.016 1006.16C465.619 1006.16 461.201 1008.81 458.761 1014.13C457.515 1016.95 456.891 1020.33 456.891 1024.29V1077.07H433.553V1024.29C433.553 1019.03 433.011 1015.21 431.927 1012.83Z" fill="white"/>
<path d="M525.327 998.024C531.453 990.217 541.97 986.314 556.878 986.314C566.582 986.314 575.201 988.238 582.737 992.088C590.272 995.937 594.04 1003.2 594.04 1013.88V1054.55C594.04 1057.36 594.094 1060.78 594.202 1064.79C594.365 1067.83 594.826 1069.89 595.585 1070.97C596.344 1072.06 597.482 1072.95 599 1073.66V1077.07H573.792C573.087 1075.28 572.599 1073.6 572.328 1072.03C572.057 1070.46 571.84 1068.67 571.678 1066.66C568.479 1070.13 564.793 1073.09 560.619 1075.53C555.631 1078.4 549.993 1079.84 543.705 1079.84C535.682 1079.84 529.041 1077.56 523.782 1073.01C518.578 1068.4 515.976 1061.89 515.976 1053.49C515.976 1042.59 520.177 1034.7 528.58 1029.82C533.188 1027.17 539.964 1025.27 548.909 1024.13L556.797 1023.15C561.079 1022.61 564.142 1021.93 565.985 1021.12C569.292 1019.71 570.946 1017.52 570.946 1014.53C570.946 1010.9 569.672 1008.41 567.124 1007.05C564.63 1005.64 560.944 1004.94 556.065 1004.94C550.59 1004.94 546.713 1006.29 544.437 1009C542.81 1011.01 541.726 1013.72 541.184 1017.14H518.822C519.31 1009.38 521.478 1003.01 525.327 998.024ZM542.566 1060.32C544.735 1062.11 547.391 1063 550.535 1063C555.523 1063 560.104 1061.54 564.278 1058.61C568.506 1055.68 570.702 1050.34 570.864 1042.59V1033.97C569.401 1034.89 567.91 1035.65 566.392 1036.25C564.928 1036.79 562.895 1037.3 560.293 1037.79L555.089 1038.77C550.21 1039.64 546.713 1040.69 544.599 1041.94C541.021 1044.05 539.232 1047.33 539.232 1051.78C539.232 1055.74 540.344 1058.58 542.566 1060.32Z" fill="white"/>
</svg>
