<svg width="599" height="912" viewBox="0 0 599 912" fill="none" xmlns="http://www.w3.org/2000/svg">
<path d="M379.412 773.251C379.412 794.96 385.257 812.68 396.946 826.41C408.636 840.141 423.479 847.006 441.478 847.006C459.104 847.006 472.928 840.419 482.947 827.245C493.152 813.886 498.255 796.63 498.255 775.478C498.255 751.913 492.503 733.915 480.999 721.483C469.495 708.866 455.394 702.558 438.694 702.558C425.149 702.558 413.182 706.64 402.791 714.804C387.205 726.864 379.412 746.347 379.412 773.251ZM491.019 599.022C491.019 592.528 488.514 585.385 483.504 577.592C474.969 564.975 462.073 558.666 444.817 558.666C419.026 558.666 400.657 573.139 389.71 602.084C383.772 618.041 379.69 641.605 377.464 672.777C387.298 661.088 398.709 652.553 411.697 647.172C424.686 641.791 439.529 639.101 456.229 639.101C492.039 639.101 521.355 651.254 544.178 675.561C567.186 699.867 578.689 730.946 578.689 768.798C578.689 806.464 567.464 839.677 545.013 868.437C522.562 897.196 487.679 911.576 440.364 911.576C389.524 911.576 352.044 890.331 327.923 847.841C309.183 814.628 299.812 771.767 299.812 719.257C299.812 688.456 301.111 663.407 303.709 644.11C308.348 609.784 317.347 581.21 330.706 558.388C342.21 538.905 357.239 523.227 375.794 511.352C394.534 499.477 416.893 493.539 442.869 493.539C480.35 493.539 510.223 503.188 532.488 522.484C554.754 541.596 567.278 567.108 570.062 599.022H491.019Z" fill="#F0EBE5"/>
<path d="M189.705 89.2995C179.752 77.3929 165.504 71.4396 146.963 71.4396C121.591 71.4396 104.318 80.9063 95.1454 99.8398C89.8758 110.77 86.7531 128.142 85.7772 151.956H4.68408C6.05027 115.845 12.5885 86.6644 24.2987 64.4128C46.548 22.0565 86.07 0.878357 142.864 0.878357C187.754 0.878357 223.47 13.3705 250.013 38.3549C276.556 63.144 289.827 96.0336 289.827 137.023C289.827 168.449 280.459 196.361 261.723 220.76C249.427 236.961 229.227 255.016 201.123 274.925L167.749 298.641C146.865 313.475 132.52 324.211 124.714 330.847C117.102 337.484 110.661 345.194 105.392 353.977H290.706V427.466H0C0.78068 397.017 7.31887 369.202 19.6146 344.023C31.52 315.72 59.6244 285.758 103.928 254.138C142.377 226.616 167.261 206.902 178.581 194.995C195.951 176.452 204.636 156.152 204.636 134.096C204.636 116.138 199.659 101.206 189.705 89.2995Z" fill="#F0EBE5"/>
<path d="M450.14 438.007C396.078 438.007 358.117 419.073 336.258 381.206C314.594 343.339 303.763 289.369 303.763 219.296C303.763 149.223 314.594 95.1552 336.258 57.0931C358.117 19.031 396.078 0 450.14 0C504.202 0 542.163 19.031 564.022 57.0931C585.686 95.1552 596.518 149.223 596.518 219.296C596.518 289.369 585.588 343.339 563.729 381.206C542.065 419.073 504.202 438.007 450.14 438.007ZM499.03 331.14C506.642 305.375 510.448 268.094 510.448 219.296C510.448 168.156 506.544 130.289 498.737 105.695C491.126 81.1015 474.927 68.8045 450.14 68.8045C425.353 68.8045 408.959 81.1015 400.957 105.695C392.955 130.289 388.954 168.156 388.954 219.296C388.954 268.094 392.955 305.473 400.957 331.433C408.959 357.198 425.353 370.081 450.14 370.081C474.927 370.081 491.223 357.1 499.03 331.14Z" fill="#F0EBE5"/>
<path d="M189.705 571.091C179.752 559.184 165.504 553.231 146.963 553.231C121.591 553.231 104.318 562.697 95.1454 581.631C89.8758 592.561 86.7531 609.933 85.7772 633.747H4.68408C6.05027 597.636 12.5885 568.455 24.2987 546.204C46.548 503.848 86.07 482.669 142.864 482.669C187.754 482.669 223.47 495.162 250.013 520.146C276.556 544.935 289.827 577.825 289.827 618.815C289.827 650.24 280.459 678.152 261.723 702.551C249.427 718.752 229.227 736.807 201.123 756.716L167.749 780.432C146.865 795.266 132.52 806.002 124.714 812.638C117.102 819.275 110.661 826.985 105.392 835.768H290.706V909.257H0C0.78068 878.808 7.31887 850.993 19.6146 825.814C31.52 797.511 59.6244 767.549 103.928 735.929C142.377 708.407 167.261 688.693 178.581 676.786C195.951 658.243 204.636 637.943 204.636 615.887C204.636 597.929 199.659 582.997 189.705 571.091Z" fill="#F0EBE5"/>
</svg>
