<svg width="1501" height="767" viewBox="0 0 1501 767" fill="none" xmlns="http://www.w3.org/2000/svg">
<path d="M1074.14 677.128L1254.3 676.562C1224.62 579.364 1142.02 503.611 1299 324.265C1364.22 430.699 1512.7 339.777 1429.37 218.913L1464.69 92.1048C1402.35 124.577 1375.12 202.051 1284.19 264.709C1282.56 261.576 1272.87 242.727 1310.52 173.307C1481.74 115.452 1234.03 -46.6067 1268.4 152.473C1262.4 192.695 1248.77 221.709 1226.28 237.705C1212.62 237.858 1205.6 218.483 1199.63 196.036C1251.28 135.427 1278.35 72.8974 1197.06 1.89411C1214.86 94.7232 1201.98 146.344 1164.39 164.784C1120.83 137.44 1116.51 77.8117 1134.31 0C1067.17 55.3649 1068.21 119.723 1123.99 191.301C1127.19 213.423 1128.24 234.36 1102.5 240.546C1079.78 216.602 1063.05 179.543 1057.81 152.473C1111.94 -28.295 842.998 86.1485 1019.13 173.307C1037.37 208.362 1046.45 228.839 1041.74 264.709C971.825 235.442 948.583 133.469 865.268 90.9153L898.283 218.913C821.107 340.362 959.784 432.564 1026 325.78C1162.21 457.606 1133.65 569.261 1074.14 677.128Z" fill="#FAF9F6"/>
<path d="M1168.61 433.369L1155.51 504.814C1259.4 523.897 1333.01 543.011 1378.27 560.341C1399.58 568.5 1413.3 576.169 1421.33 581.876C1415.29 586.064 1407.37 591.15 1393.16 596.829C1358.86 610.542 1304.06 624.59 1235.33 636.864C960.43 685.962 460.603 710.134 4.34007 682.744L0 755.239C461.914 782.967 962.412 759.389 1248.1 708.366C1319.52 695.61 1377.39 681.351 1420.11 664.273C1441.47 655.734 1459.16 646.78 1473.89 634.396C1488.62 622.012 1502.5 602.315 1500.87 578.556C1499.24 554.798 1484.3 537.721 1467.79 525.243C1451.29 512.764 1430.69 502.624 1404.25 492.499C1351.37 472.25 1274.9 452.892 1168.61 433.369Z" fill="#FAF9F6"/>
<path d="M1213.18 458.224L1205.23 497.38C1224.9 501.372 1244.47 505.557 1263.87 510.12L1273 471.219C1253.07 466.529 1233.1 462.269 1213.18 458.224ZM1292.66 475.93L1283.04 514.716C1308.58 521.041 1333.79 527.896 1358.36 536.081L1370.98 498.203C1345.01 489.55 1318.8 482.404 1292.66 475.93ZM1390.5 505.069L1376.54 542.494C1391.2 547.969 1405.21 553.896 1418.01 561.079C1426.28 565.812 1433.32 570.594 1438.24 575.861L1467.42 548.594C1458.09 538.598 1447.43 531.851 1437.7 526.293L1437.64 526.263L1437.55 526.234C1422.09 517.561 1406.15 510.915 1390.5 505.069ZM1481.72 576.968L1442.15 582.302C1442.12 582.08 1442.12 582.847 1441.64 583.806C1440.26 586.506 1436.96 590.034 1431.97 593.822C1431.95 593.833 1431.95 593.836 1431.94 593.851C1422.47 600.818 1410.95 606.395 1398.38 611.641L1413.75 648.527C1427.58 642.757 1442.22 635.961 1455.88 625.856L1455.97 625.769L1456.05 625.711C1463.26 620.255 1471.64 613.007 1477.3 601.849V601.82L1477.33 601.791C1480.91 594.683 1482.97 586.203 1481.72 576.968ZM1380.79 618.337C1356.65 626.81 1331.58 633.476 1306.05 639.447L1315.13 678.347C1341.43 672.197 1367.93 665.208 1394.04 656.045L1380.79 618.337ZM1286.87 643.759C1261.23 649.298 1235.37 654.092 1209.35 658.429L1215.9 697.84C1242.4 693.424 1268.92 688.505 1295.33 682.801L1286.87 643.759ZM1189.77 661.606C1163.71 665.738 1137.54 669.391 1111.28 672.757L1116.36 712.395C1142.92 708.989 1169.51 705.253 1196.04 701.046L1189.77 661.606ZM1091.57 675.226C1065.3 678.443 1038.99 681.323 1012.63 683.965L1016.6 723.716C1043.22 721.049 1069.83 718.121 1096.42 714.864L1091.57 675.226ZM992.826 685.922C966.461 688.469 940.05 690.727 913.598 692.817L916.747 732.654C943.383 730.549 970.013 728.247 996.655 725.674L992.826 685.922ZM893.77 694.349C867.312 696.331 840.846 698.13 814.372 699.712L816.755 739.577C843.44 737.982 870.102 736.182 896.749 734.186L893.77 694.349ZM18.4383 699.542L15.9988 739.435C42.6592 741.063 69.3533 742.513 96.0489 743.776L97.9211 703.883C71.423 702.629 44.9321 701.16 18.4383 699.542ZM794.459 700.875C767.972 702.398 741.489 703.722 714.976 704.876L716.707 744.798C743.397 743.636 770.078 742.274 796.757 740.74L794.459 700.875ZM117.834 704.791L116.019 744.713C142.708 745.917 169.423 746.933 196.126 747.777L197.374 707.855C170.85 707.017 144.344 705.987 117.834 704.791ZM695.063 705.728C668.549 706.825 642.027 707.728 615.495 708.48L616.63 748.43C643.33 747.673 670.016 746.754 696.709 745.649L695.063 705.728ZM217.315 708.452L216.124 748.373C242.832 749.169 269.533 749.787 296.231 750.246L296.912 710.295C270.364 709.839 243.838 709.241 217.315 708.452ZM595.582 709.047C569.049 709.746 542.499 710.271 515.957 710.636L516.496 750.586C543.203 750.219 569.93 749.673 596.632 748.969L595.582 709.047ZM316.825 710.636L316.258 750.558C342.958 750.946 369.657 751.197 396.365 751.267L396.478 711.317C369.933 711.244 343.372 711.021 316.825 710.636ZM496.016 710.892C469.476 711.207 442.94 711.354 416.391 711.345V751.295C443.096 751.304 469.789 751.165 496.498 750.842L496.016 710.892Z" fill="#333333"/>
<path d="M1431.5 583.638L1497.39 581.672L1431.5 583.638Z" fill="#FAF9F6"/>
<path d="M172.75 82.3758H89.5587V120.534H162.393V149.35H89.5587V218.913H55.1116V53.2224H172.75V82.3758Z" fill="#FAF9F6"/>
<path d="M286.966 182.893C286.14 190.172 282.35 197.564 275.596 205.068C265.089 216.999 250.38 222.965 231.467 222.965C215.857 222.965 202.086 217.937 190.153 207.882C178.221 197.826 172.254 181.468 172.254 158.805C172.254 137.569 177.62 121.285 188.352 109.953C199.159 98.6222 213.156 92.9566 230.342 92.9566C240.548 92.9566 249.742 94.8702 257.922 98.6973C266.102 102.524 272.857 108.565 278.185 116.82C282.988 124.099 286.103 132.541 287.529 142.146C288.354 147.774 288.692 155.879 288.542 166.459H204.563C205.013 178.766 208.878 187.396 216.158 192.348C220.585 195.425 225.914 196.964 232.143 196.964C238.747 196.964 244.113 195.087 248.241 191.335C250.492 189.309 252.481 186.495 254.207 182.893H286.966ZM255.22 145.298C254.695 136.818 252.106 130.402 247.453 126.05C242.875 121.622 237.171 119.409 230.342 119.409C222.912 119.409 217.133 121.735 213.006 126.387C208.953 131.04 206.401 137.343 205.351 145.298H255.22Z" fill="#FAF9F6"/>
<path d="M383.283 101.849C392.889 108.002 398.405 118.583 399.831 133.591H367.748C367.297 129.464 366.134 126.2 364.258 123.798C360.731 119.446 354.727 117.27 346.246 117.27C339.267 117.27 334.276 118.358 331.274 120.534C328.347 122.71 326.884 125.262 326.884 128.188C326.884 131.865 328.46 134.529 331.612 136.18C334.764 137.906 345.909 140.87 365.046 145.073C377.804 148.074 387.373 152.614 393.752 158.693C400.056 164.846 403.208 172.538 403.208 181.768C403.208 193.924 398.667 203.867 389.587 211.597C380.581 219.251 366.622 223.078 347.71 223.078C328.422 223.078 314.163 219.026 304.932 210.921C295.776 202.742 291.198 192.348 291.198 179.742H323.732C324.407 185.445 325.871 189.497 328.122 191.898C332.1 196.176 339.454 198.314 350.186 198.314C356.49 198.314 361.481 197.376 365.158 195.5C368.911 193.624 370.787 190.81 370.787 187.058C370.787 183.456 369.286 180.717 366.284 178.841C363.282 176.965 352.138 173.738 332.85 169.161C318.966 165.709 309.172 161.394 303.469 156.216C297.765 151.113 294.913 143.759 294.913 134.154C294.913 122.823 299.341 113.105 308.197 105.001C317.128 96.8212 329.661 92.7315 345.796 92.7315C361.106 92.7315 373.601 95.7707 383.283 101.849Z" fill="#FAF9F6"/>
<path d="M471.719 196.063V220.039L456.522 220.601C441.362 221.127 431.006 218.5 425.452 212.722C421.85 209.045 420.049 203.38 420.049 195.725V120.197H402.938V97.3465H420.049V63.1278H451.794V97.3465H471.719V120.197H451.794V185.032C451.794 190.06 452.432 193.211 453.708 194.487C454.984 195.688 458.886 196.288 465.415 196.288C466.391 196.288 467.404 196.288 468.455 196.288C469.581 196.213 470.669 196.138 471.719 196.063Z" fill="#FAF9F6"/>
<path d="M513.776 96.2209V218.913H481.243V96.2209H513.776ZM513.776 51.9842V81.5879H481.243V51.9842H513.776Z" fill="#FAF9F6"/>
<path d="M521.386 96.2209H557.41L582.963 186.72L609.08 96.2209H643.527L599.286 218.913H565.402L521.386 96.2209Z" fill="#FAF9F6"/>
<path d="M654.852 109.503C663.333 98.6973 677.892 93.2943 698.53 93.2943C711.964 93.2943 723.897 95.9583 734.328 101.286C744.76 106.614 749.976 116.67 749.976 131.453V187.733C749.976 191.636 750.051 196.363 750.201 201.916C750.426 206.118 751.064 208.97 752.115 210.471C753.165 211.972 754.741 213.21 756.843 214.185V218.913H721.945C720.97 216.437 720.294 214.11 719.919 211.934C719.544 209.758 719.244 207.282 719.018 204.505C714.591 209.308 709.487 213.398 703.709 216.774C696.804 220.752 688.999 222.74 680.293 222.74C669.186 222.74 659.993 219.588 652.713 213.285C645.509 206.906 641.906 197.902 641.906 186.27C641.906 171.187 647.723 160.268 659.355 153.515C665.734 149.838 675.115 147.211 687.498 145.635L698.418 144.285C704.346 143.534 708.587 142.596 711.138 141.471C715.716 139.52 718.005 136.48 718.005 132.353C718.005 127.325 716.242 123.874 712.714 121.998C709.262 120.046 704.159 119.071 697.404 119.071C689.825 119.071 684.459 120.947 681.307 124.699C679.055 127.476 677.554 131.228 676.804 135.955H645.846C646.522 125.224 649.524 116.407 654.852 109.503ZM678.717 195.725C681.719 198.202 685.397 199.44 689.75 199.44C696.654 199.44 702.996 197.414 708.774 193.362C714.628 189.309 717.668 181.918 717.893 171.187V159.255C715.866 160.531 713.803 161.582 711.701 162.407C709.675 163.158 706.861 163.87 703.258 164.546L696.054 165.897C689.299 167.097 684.459 168.56 681.532 170.286C676.579 173.213 674.102 177.753 674.102 183.906C674.102 189.384 675.641 193.324 678.717 195.725Z" fill="#FAF9F6"/>
<path d="M767.717 52.9973H799.8V218.913H767.717V52.9973Z" fill="#FAF9F6"/>
<path d="M172.75 289.909H89.5587V328.067H162.393V356.883H89.5587V426.446H55.1116V260.755H172.75V289.909Z" fill="#FAF9F6"/>
<path d="M214.919 303.754V426.446H182.386V303.754H214.919ZM214.919 259.517V289.121H182.386V259.517H214.919Z" fill="#FAF9F6"/>
<path d="M235.25 260.53H267.333V426.446H235.25V260.53Z" fill="#FAF9F6"/>
<path d="M356.108 337.522C353.406 331.594 348.115 328.63 340.235 328.63C331.079 328.63 324.925 331.594 321.773 337.522C320.047 340.899 319.184 345.927 319.184 352.605V426.446H286.65V303.979H317.833V321.876C321.811 315.498 325.563 310.958 329.09 308.256C335.319 303.453 343.387 301.052 353.293 301.052C362.674 301.052 370.254 303.116 376.033 307.243C380.686 311.07 384.213 315.985 386.615 321.989C390.817 314.785 396.033 309.494 402.262 306.117C408.867 302.741 416.221 301.052 424.326 301.052C429.73 301.052 435.058 302.103 440.312 304.204C445.565 306.305 450.331 309.982 454.608 315.235C458.061 319.512 460.387 324.765 461.588 330.993C462.338 335.121 462.714 341.162 462.714 349.116L462.488 426.446H429.617V348.328C429.617 343.675 428.867 339.848 427.366 336.847C424.514 331.144 419.261 328.292 411.606 328.292C402.75 328.292 396.634 331.969 393.257 339.323C391.53 343.225 390.667 347.915 390.667 353.393V426.446H358.359V353.393C358.359 346.114 357.609 340.824 356.108 337.522Z" fill="#FAF9F6"/>
<path d="M172.187 621.597C159.804 632.928 143.969 638.593 124.681 638.593C100.816 638.593 82.0539 630.939 68.3951 615.631C54.7364 600.247 47.907 579.161 47.907 552.371C47.907 523.405 55.6745 501.081 71.2094 485.397C84.7181 471.74 101.904 464.911 122.768 464.911C150.686 464.911 171.099 474.066 184.007 492.376C191.137 502.657 194.964 512.975 195.489 523.33H160.817C158.566 515.376 155.676 509.373 152.149 505.321C145.845 498.117 136.501 494.515 124.118 494.515C111.51 494.515 101.566 499.617 94.2868 509.823C87.0071 519.954 83.3673 534.324 83.3673 552.934C83.3673 571.544 87.1947 585.502 94.8496 594.807C102.58 604.037 112.373 608.652 124.231 608.652C136.389 608.652 145.657 604.675 152.036 596.721C155.564 592.443 158.491 586.027 160.817 577.473H195.152C192.15 595.557 184.495 610.265 172.187 621.597Z" fill="#FAF9F6"/>
<path d="M312.632 597.959C311.807 605.238 308.017 612.629 301.262 620.133C290.756 632.065 276.046 638.031 257.134 638.031C241.524 638.031 227.753 633.003 215.82 622.947C203.887 612.892 197.921 596.533 197.921 573.871C197.921 552.634 203.287 536.35 214.019 525.019C224.826 513.688 238.822 508.022 256.008 508.022C266.215 508.022 275.408 509.936 283.588 513.763C291.769 517.59 298.523 523.631 303.852 531.885C308.655 539.164 311.769 547.606 313.195 557.211C314.021 562.839 314.358 570.944 314.208 581.525H230.229C230.679 593.831 234.544 602.461 241.824 607.414C246.252 610.491 251.58 612.029 257.809 612.029C264.414 612.029 269.78 610.153 273.907 606.401C276.159 604.375 278.147 601.561 279.874 597.959H312.632ZM280.887 560.363C280.361 551.884 277.772 545.467 273.119 541.115C268.541 536.688 262.838 534.474 256.008 534.474C248.578 534.474 242.8 536.8 238.672 541.453C234.619 546.105 232.068 552.409 231.017 560.363H280.887Z" fill="#FAF9F6"/>
<path d="M382.157 535.037C371.275 535.037 363.808 539.652 359.755 548.882C357.654 553.76 356.603 559.988 356.603 567.567V633.978H324.632V511.511H355.59V529.409C359.717 523.105 363.62 518.565 367.297 515.789C373.902 510.836 382.269 508.36 392.401 508.36C405.084 508.36 415.441 511.699 423.471 518.378C431.576 524.981 435.629 535.975 435.629 551.358V633.978H402.758V559.35C402.758 552.897 401.895 547.944 400.168 544.492C397.016 538.189 391.013 535.037 382.157 535.037Z" fill="#FAF9F6"/>
<path d="M565.492 468.288V633.978H534.31V616.982C529.732 624.261 524.516 629.551 518.662 632.853C512.808 636.155 505.529 637.805 496.823 637.805C482.489 637.805 470.406 632.027 460.575 620.471C450.818 608.84 445.94 593.944 445.94 575.784C445.94 554.848 450.743 538.376 460.35 526.37C470.031 514.363 482.939 508.36 499.074 508.36C506.504 508.36 513.109 510.011 518.887 513.312C524.666 516.539 529.356 521.042 532.959 526.82V468.288H565.492ZM479.037 573.42C479.037 584.752 481.288 593.794 485.791 600.548C490.219 607.376 496.973 610.791 506.054 610.791C515.135 610.791 522.039 607.414 526.767 600.66C531.495 593.906 533.859 585.164 533.859 574.433C533.859 559.425 530.069 548.694 522.49 542.241C517.837 538.339 512.433 536.388 506.279 536.388C496.898 536.388 489.994 539.952 485.566 547.081C481.213 554.135 479.037 562.915 479.037 573.42Z" fill="#FAF9F6"/>
<path d="M587.849 524.569C596.33 513.763 610.889 508.36 631.527 508.36C644.961 508.36 656.893 511.024 667.325 516.352C677.757 521.68 682.973 531.735 682.973 546.518V602.799C682.973 606.701 683.048 611.429 683.198 616.982C683.423 621.184 684.061 624.035 685.112 625.536C686.162 627.037 687.738 628.275 689.84 629.251V633.978H654.942C653.967 631.502 653.291 629.176 652.916 627C652.541 624.823 652.24 622.347 652.015 619.571C647.587 624.373 642.484 628.463 636.705 631.84C629.801 635.817 621.996 637.805 613.29 637.805C602.183 637.805 592.99 634.654 585.71 628.35C578.506 621.972 574.903 612.967 574.903 601.336C574.903 586.252 580.719 575.334 592.352 568.58C598.731 564.903 608.112 562.277 620.495 560.701L631.415 559.35C637.343 558.6 641.584 557.662 644.135 556.536C648.713 554.585 651.002 551.546 651.002 547.419C651.002 542.391 649.239 538.939 645.711 537.063C642.259 535.112 637.156 534.136 630.401 534.136C622.822 534.136 617.456 536.012 614.304 539.764C612.052 542.541 610.551 546.293 609.801 551.021H578.843C579.519 540.29 582.521 531.472 587.849 524.569ZM611.714 610.791C614.716 613.267 618.394 614.505 622.746 614.505C629.651 614.505 635.992 612.479 641.771 608.427C647.625 604.375 650.664 596.983 650.89 586.252V574.321C648.863 575.596 646.799 576.647 644.698 577.473C642.672 578.223 639.857 578.936 636.255 579.611L629.051 580.962C622.296 582.163 617.456 583.626 614.529 585.352C609.576 588.278 607.099 592.818 607.099 598.972C607.099 604.45 608.637 608.389 611.714 610.791Z" fill="#FAF9F6"/>
<path d="M757.788 535.037C746.906 535.037 739.439 539.652 735.386 548.882C733.285 553.76 732.234 559.988 732.234 567.567V633.978H700.264V511.511H731.221V529.409C735.349 523.105 739.251 518.565 742.929 515.789C749.533 510.836 757.901 508.36 768.032 508.36C780.716 508.36 791.072 511.699 799.102 518.378C807.208 524.981 811.26 535.975 811.26 551.358V633.978H778.389V559.35C778.389 552.897 777.526 547.944 775.8 544.492C772.648 538.189 766.644 535.037 757.788 535.037Z" fill="#FAF9F6"/>
<path d="M834.067 524.569C842.548 513.763 857.107 508.36 877.745 508.36C891.179 508.36 903.112 511.024 913.543 516.352C923.975 521.68 929.191 531.735 929.191 546.518V602.799C929.191 606.701 929.266 611.429 929.416 616.982C929.641 621.184 930.279 624.035 931.33 625.536C932.381 627.037 933.957 628.275 936.058 629.251V633.978H901.16C900.185 631.502 899.509 629.176 899.134 627C898.759 624.823 898.459 622.347 898.234 619.571C893.806 624.373 888.702 628.463 882.924 631.84C876.019 635.817 868.214 637.805 859.509 637.805C848.402 637.805 839.208 634.654 831.928 628.35C824.724 621.972 821.122 612.967 821.122 601.336C821.122 586.252 826.938 575.334 838.57 568.58C844.949 564.903 854.33 562.277 866.713 560.701L877.633 559.35C883.562 558.6 887.802 557.662 890.354 556.536C894.932 554.585 897.22 551.546 897.22 547.419C897.22 542.391 895.457 538.939 891.93 537.063C888.477 535.112 883.374 534.136 876.62 534.136C869.04 534.136 863.674 536.012 860.522 539.764C858.27 542.541 856.769 546.293 856.019 551.021H825.062C825.737 540.29 828.739 531.472 834.067 524.569ZM857.933 610.791C860.935 613.267 864.612 614.505 868.965 614.505C875.869 614.505 882.211 612.479 887.99 608.427C893.843 604.375 896.883 596.983 897.108 586.252V574.321C895.082 575.596 893.018 576.647 890.916 577.473C888.89 578.223 886.076 578.936 882.474 579.611L875.269 580.962C868.515 582.163 863.674 583.626 860.747 585.352C855.794 588.278 853.317 592.818 853.317 598.972C853.317 604.45 854.856 608.389 857.933 610.791Z" fill="#FAF9F6"/>
</svg>
