<svg width="794" height="404" viewBox="0 0 794 404" fill="none" xmlns="http://www.w3.org/2000/svg">
<path d="M568.199 356.662L663.501 356.364C647.8 305.167 604.107 265.266 687.145 170.799C721.649 226.861 800.189 178.97 756.111 115.308L774.795 48.5141C741.816 65.6182 727.414 106.426 679.31 139.429C678.451 137.779 673.323 127.851 693.238 91.2856C783.811 60.8118 652.778 -24.549 670.959 80.3115C667.785 101.498 660.576 116.78 648.679 125.206C641.451 125.286 637.741 115.081 634.584 103.258C661.901 71.3331 676.223 38.3971 633.219 0.997679C642.64 49.8933 635.826 77.0834 615.941 86.7962C592.895 72.3935 590.614 40.9856 600.027 0C564.513 29.1622 565.065 63.0614 594.571 100.763C596.262 112.416 596.815 123.444 583.204 126.702C571.182 114.091 562.335 94.57 559.56 80.3115C588.195 -14.9038 445.93 45.3768 539.099 91.2856C548.749 109.75 553.551 120.536 551.06 139.429C514.077 124.014 501.782 70.302 457.71 47.8876L475.175 115.308C434.35 179.278 507.707 227.843 542.737 171.597C614.785 241.034 599.678 299.845 568.199 356.662Z" fill="#F0EBE5"/>
<path d="M618.174 228.267L611.241 265.899C666.2 275.951 705.138 286.019 729.078 295.147C740.35 299.445 747.607 303.484 751.856 306.49C748.663 308.696 744.471 311.375 736.956 314.366C718.81 321.589 689.82 328.989 653.466 335.454C508.049 361.315 243.65 374.047 2.29581 359.62L0 397.805C244.344 412.411 509.097 399.991 660.219 373.116C697.999 366.397 728.612 358.886 751.211 349.891C762.51 345.393 771.868 340.677 779.661 334.154C787.454 327.631 794.794 317.256 793.931 304.742C793.067 292.227 785.164 283.232 776.435 276.66C767.706 270.087 756.81 264.746 742.823 259.413C714.849 248.747 674.398 238.551 618.174 228.267Z" fill="#F0EBE5"/>
<path d="M641.747 241.359L637.545 261.984C647.949 264.086 658.303 266.291 668.561 268.694L673.393 248.204C662.848 245.734 652.287 243.49 641.747 241.359ZM683.792 250.685L678.705 271.115C692.215 274.447 705.551 278.058 718.544 282.369L725.221 262.417C711.486 257.859 697.621 254.095 683.792 250.685ZM735.545 266.034L728.162 285.747C735.919 288.631 743.328 291.752 750.1 295.536C754.475 298.029 758.197 300.548 760.799 303.322L776.239 288.96C771.301 283.694 765.661 280.141 760.514 277.213L760.483 277.197L760.437 277.182C752.26 272.613 743.827 269.113 735.545 266.034ZM783.802 303.905L762.87 306.715C762.854 306.597 762.854 307.002 762.599 307.507C761.87 308.929 760.125 310.787 757.482 312.782C757.475 312.788 757.475 312.79 757.467 312.798C752.461 316.467 746.367 319.405 739.716 322.168L747.849 341.597C755.164 338.558 762.907 334.978 770.132 329.656L770.178 329.61L770.224 329.579C774.036 326.705 778.469 322.888 781.463 317.01V316.995L781.478 316.98C783.372 313.236 784.461 308.769 783.802 303.905ZM730.413 325.695C717.639 330.158 704.382 333.669 690.874 336.814L695.676 357.304C709.589 354.064 723.607 350.383 737.421 345.557L730.413 325.695ZM680.731 339.086C667.165 342.003 653.487 344.529 639.721 346.812L643.187 367.571C657.207 365.245 671.232 362.654 685.202 359.65L680.731 339.086ZM629.368 348.486C615.583 350.663 601.738 352.587 587.848 354.36L590.534 375.238C604.585 373.444 618.646 371.476 632.684 369.26L629.368 348.486ZM577.419 355.66C563.525 357.355 549.606 358.872 535.659 360.263L537.76 381.201C551.843 379.796 565.918 378.254 579.985 376.538L577.419 355.66ZM525.186 361.294C511.239 362.636 497.268 363.825 483.276 364.926L484.941 385.909C499.031 384.8 513.118 383.588 527.211 382.232L525.186 361.294ZM472.787 365.733C458.792 366.777 444.791 367.724 430.787 368.558L432.048 389.556C446.164 388.716 460.267 387.767 474.363 386.716L472.787 365.733ZM9.75352 368.468L8.46306 389.481C22.5659 390.338 36.6865 391.102 50.808 391.768L51.7984 370.755C37.7814 370.094 23.7682 369.32 9.75352 368.468ZM420.254 369.17C406.243 369.972 392.233 370.67 378.209 371.278L379.124 392.305C393.243 391.693 407.357 390.976 421.469 390.168L420.254 369.17ZM62.3321 371.233L61.3718 392.261C75.4899 392.895 89.6216 393.43 103.747 393.875L104.407 372.847C90.3764 372.405 76.3551 371.863 62.3321 371.233ZM367.675 371.726C353.649 372.304 339.62 372.78 325.585 373.176L326.185 394.219C340.309 393.82 354.425 393.336 368.545 392.754L367.675 371.726ZM114.956 373.161L114.325 394.189C128.453 394.608 142.578 394.933 156.7 395.175L157.061 374.132C143.017 373.892 128.985 373.577 114.956 373.161ZM315.051 373.475C301.016 373.843 286.971 374.119 272.932 374.312L273.217 395.355C287.344 395.161 301.482 394.873 315.607 394.503L315.051 373.475ZM167.594 374.312L167.294 395.34C181.418 395.544 195.541 395.676 209.669 395.713L209.729 374.67C195.687 374.632 181.637 374.515 167.594 374.312ZM262.383 374.446C248.344 374.612 234.307 374.69 220.263 374.685V395.728C234.389 395.733 248.509 395.659 262.638 395.489L262.383 374.446Z" fill="#826644"/>
<path d="M757.235 307.418L792.092 306.382Z" fill="#F0EBE5"/>
<path d="M91.3813 43.3896H47.3748V63.4887H85.9028V78.6667H47.3748V115.308H29.153V28.0337H91.3813V43.3896Z" fill="#F0EBE5"/>
<path d="M151.799 96.3349C151.363 100.169 149.358 104.062 145.785 108.015C140.227 114.3 132.446 117.442 122.442 117.442C114.184 117.442 106.9 114.794 100.587 109.497C94.2753 104.201 91.1193 95.5839 91.1193 83.647C91.1193 72.4611 93.9577 63.884 99.6347 57.9155C105.351 51.947 112.755 48.9628 121.846 48.9628C127.245 48.9628 132.109 49.9707 136.436 51.9866C140.763 54.0024 144.336 57.1843 147.154 61.5321C149.695 65.3662 151.343 69.8129 152.097 74.8722C152.534 77.8367 152.712 82.1055 152.633 87.6787H108.21C108.448 94.161 110.492 98.7065 114.343 101.315C116.685 102.936 119.504 103.746 122.799 103.746C126.293 103.746 129.131 102.758 131.315 100.782C132.506 99.7144 133.558 98.2322 134.471 96.3349H151.799ZM135.007 76.5323C134.729 72.0659 133.359 68.6864 130.898 66.3939C128.476 64.0618 125.459 62.8958 121.846 62.8958C117.916 62.8958 114.859 64.1211 112.676 66.5717C110.532 69.0224 109.182 72.3426 108.627 76.5323H135.007Z" fill="#F0EBE5"/>
<path d="M202.749 53.6467C207.831 56.8878 210.748 62.461 211.503 70.3662H194.531C194.293 68.1923 193.678 66.4729 192.685 65.2081C190.819 62.9156 187.644 61.7693 183.158 61.7693C179.466 61.7693 176.826 62.3424 175.238 63.4887C173.689 64.6349 172.915 65.9788 172.915 67.5204C172.915 69.4571 173.749 70.8603 175.416 71.7299C177.084 72.639 182.979 74.2003 193.102 76.4137C199.851 77.9948 204.913 80.3861 208.287 83.5878C211.622 86.8289 213.289 90.8803 213.289 95.7421C213.289 102.145 210.887 107.383 206.084 111.454C201.32 115.485 193.936 117.501 183.932 117.501C173.729 117.501 166.186 115.367 161.303 111.098C156.46 106.79 154.038 101.315 154.038 94.6748H171.248C171.605 97.6788 172.379 99.8133 173.57 101.078C175.674 103.331 179.565 104.458 185.242 104.458C188.577 104.458 191.216 103.963 193.162 102.975C195.147 101.987 196.139 100.505 196.139 98.5287C196.139 96.6314 195.345 95.1887 193.757 94.2005C192.169 93.2124 186.274 91.5128 176.071 89.1017C168.727 87.2835 163.546 85.0107 160.529 82.2834C157.512 79.5956 156.003 75.722 156.003 70.6627C156.003 64.6942 158.346 59.5756 163.03 55.3068C167.754 50.9984 174.384 48.8442 182.919 48.8442C191.018 48.8442 197.628 50.445 202.749 53.6467Z" fill="#F0EBE5"/>
<path d="M249.53 103.272V115.9L241.491 116.197C233.472 116.474 227.994 115.09 225.056 112.047C223.15 110.11 222.198 107.126 222.198 103.094V63.3108H213.146V51.2751H222.198V33.2512H238.99V51.2751H249.53V63.3108H238.99V97.4614C238.99 100.11 239.328 101.77 240.003 102.442C240.678 103.074 242.742 103.39 246.196 103.39C246.712 103.39 247.248 103.39 247.804 103.39C248.399 103.351 248.975 103.311 249.53 103.272Z" fill="#F0EBE5"/>
<path d="M271.778 50.6822V115.308H254.568V50.6822H271.778ZM271.778 27.3815V42.9746H254.568V27.3815H271.778Z" fill="#F0EBE5"/>
<path d="M275.803 50.6822H294.859L308.376 98.3508L322.192 50.6822H340.414L317.011 115.308H299.087L275.803 50.6822Z" fill="#F0EBE5"/>
<path d="M346.404 57.6783C350.89 51.9866 358.592 49.1407 369.509 49.1407C376.615 49.1407 382.927 50.5439 388.445 53.3502C393.964 56.1566 396.723 61.4531 396.723 69.2397V98.8844C396.723 100.94 396.762 103.43 396.842 106.355C396.961 108.568 397.298 110.07 397.854 110.861C398.41 111.651 399.244 112.304 400.355 112.817V115.308H381.895C381.379 114.003 381.022 112.778 380.823 111.632C380.625 110.485 380.466 109.181 380.347 107.718C378.005 110.248 375.305 112.402 372.248 114.181C368.596 116.276 364.467 117.323 359.862 117.323C353.987 117.323 349.124 115.663 345.273 112.343C341.462 108.983 339.556 104.24 339.556 98.1136C339.556 90.1689 342.633 84.4178 348.786 80.8604C352.161 78.9237 357.123 77.5402 363.673 76.7102L369.449 75.9987C372.586 75.6035 374.829 75.1094 376.178 74.5165C378.6 73.4888 379.811 71.888 379.811 69.7141C379.811 67.0658 378.878 65.2476 377.012 64.2594C375.186 63.2318 372.486 62.7179 368.914 62.7179C364.904 62.7179 362.065 63.7061 360.398 65.6824C359.207 67.1449 358.413 69.1212 358.016 71.6113H341.64C341.998 65.9591 343.586 61.3147 346.404 57.6783ZM359.028 103.094C360.616 104.398 362.562 105.05 364.864 105.05C368.517 105.05 371.871 103.983 374.928 101.849C378.024 99.7144 379.632 95.8211 379.751 90.1689V83.8842C378.68 84.5561 377.588 85.1095 376.476 85.5443C375.404 85.9396 373.916 86.3151 372.01 86.6708L368.199 87.3823C364.626 88.0147 362.065 88.7854 360.517 89.6945C357.897 91.2361 356.587 93.6274 356.587 96.8685C356.587 99.754 357.401 101.829 359.028 103.094Z" fill="#F0EBE5"/>
<path d="M406.108 27.9151H423.079V115.308H406.108V27.9151Z" fill="#F0EBE5"/>
<path d="M91.3813 152.703H47.3748V172.802H85.9028V187.98H47.3748V224.621H29.153V137.347H91.3813V152.703Z" fill="#F0EBE5"/>
<path d="M113.688 159.995V224.621H96.4786V159.995H113.688ZM113.688 136.695V152.288H96.4786V136.695H113.688Z" fill="#F0EBE5"/>
<path d="M124.443 137.228H141.414V224.621H124.443V137.228Z" fill="#F0EBE5"/>
<path d="M188.374 177.782C186.945 174.66 184.146 173.098 179.978 173.098C175.134 173.098 171.879 174.66 170.212 177.782C169.299 179.561 168.842 182.209 168.842 185.727V224.621H151.633V160.114H168.128V169.541C170.232 166.181 172.217 163.79 174.082 162.367C177.377 159.837 181.645 158.572 186.885 158.572C191.848 158.572 195.857 159.659 198.914 161.833C201.376 163.849 203.241 166.438 204.512 169.6C206.735 165.806 209.494 163.019 212.789 161.24C216.282 159.462 220.173 158.572 224.461 158.572C227.319 158.572 230.137 159.126 232.916 160.233C235.695 161.339 238.216 163.276 240.479 166.043C242.305 168.296 243.536 171.063 244.171 174.343C244.568 176.517 244.767 179.699 244.767 183.889L244.647 224.621H227.259V183.474C227.259 181.023 226.862 179.007 226.068 177.426C224.56 174.422 221.781 172.92 217.732 172.92C213.047 172.92 209.812 174.857 208.025 178.731C207.112 180.786 206.655 183.257 206.655 186.142V224.621H189.565V186.142C189.565 182.308 189.168 179.521 188.374 177.782Z" fill="#F0EBE5"/>
<path d="M91.0835 327.412C84.5332 333.381 76.1567 336.365 65.954 336.365C53.3297 336.365 43.4049 332.333 36.1797 324.27C28.9545 316.167 25.3419 305.06 25.3419 290.949C25.3419 275.692 29.4507 263.933 37.6684 255.672C44.8143 248.478 53.9053 244.881 64.9417 244.881C79.7097 244.881 90.5079 249.704 97.3361 259.348C101.108 264.763 103.132 270.198 103.41 275.653H85.0691C83.8781 271.463 82.3497 268.301 80.4839 266.166C77.1492 262.372 72.2066 260.474 65.6563 260.474C58.9868 260.474 53.7267 263.162 49.8759 268.538C46.0251 273.874 44.0997 281.443 44.0997 291.246C44.0997 301.048 46.1243 308.4 50.1736 313.301C54.2626 318.163 59.4434 320.594 65.7158 320.594C72.1471 320.594 77.0499 318.499 80.4243 314.309C82.2902 312.056 83.8384 308.677 85.0691 304.171H103.231C101.643 313.697 97.5942 321.444 91.0835 327.412Z" fill="#F0EBE5"/>
<path d="M165.376 314.961C164.94 318.795 162.935 322.689 159.362 326.641C153.804 332.926 146.023 336.068 136.019 336.068C127.761 336.068 120.477 333.42 114.165 328.124C107.852 322.827 104.696 314.21 104.696 302.273C104.696 291.088 107.535 282.51 113.212 276.542C118.928 270.573 126.332 267.589 135.423 267.589C140.822 267.589 145.686 268.597 150.013 270.613C154.34 272.629 157.913 275.811 160.732 280.159C163.272 283.993 164.92 288.439 165.674 293.499C166.111 296.463 166.289 300.732 166.21 306.305H121.787C122.025 312.787 124.069 317.333 127.92 319.942C130.263 321.562 133.081 322.372 136.376 322.372C139.87 322.372 142.708 321.384 144.892 319.408C146.083 318.341 147.135 316.859 148.048 314.961H165.376ZM148.584 295.159C148.306 290.692 146.936 287.313 144.475 285.02C142.053 282.688 139.036 281.522 135.423 281.522C131.493 281.522 128.436 282.748 126.253 285.198C124.109 287.649 122.759 290.969 122.204 295.159H148.584Z" fill="#F0EBE5"/>
<path d="M202.154 281.819C196.397 281.819 192.447 284.249 190.303 289.111C189.192 291.68 188.636 294.961 188.636 298.953V333.934H171.724V269.427H188.1V278.854C190.284 275.534 192.348 273.143 194.293 271.68C197.787 269.071 202.213 267.767 207.573 267.767C214.282 267.767 219.76 269.526 224.008 273.044C228.295 276.522 230.439 282.313 230.439 290.416V333.934H213.051V294.625C213.051 291.226 212.594 288.617 211.681 286.799C210.014 283.479 206.838 281.819 202.154 281.819Z" fill="#F0EBE5"/>
<path d="M299.134 246.66V333.934H282.639V324.981C280.218 328.815 277.459 331.602 274.362 333.341C271.266 335.08 267.415 335.95 262.81 335.95C255.227 335.95 248.836 332.906 243.635 326.819C238.474 320.693 235.894 312.847 235.894 303.281C235.894 292.254 238.435 283.578 243.516 277.253C248.637 270.929 255.465 267.767 264.001 267.767C267.931 267.767 271.425 268.637 274.481 270.376C277.538 272.075 280.019 274.447 281.925 277.49V246.66H299.134ZM253.401 302.036C253.401 308.005 254.592 312.768 256.974 316.325C259.316 319.922 262.889 321.72 267.693 321.72C272.496 321.72 276.149 319.942 278.65 316.384C281.151 312.827 282.401 308.222 282.401 302.57C282.401 294.665 280.397 289.012 276.387 285.613C273.926 283.558 271.067 282.53 267.812 282.53C262.85 282.53 259.197 284.408 256.855 288.163C254.552 291.878 253.401 296.503 253.401 302.036Z" fill="#F0EBE5"/>
<path d="M310.961 276.305C315.447 270.613 323.148 267.767 334.066 267.767C341.172 267.767 347.484 269.17 353.002 271.977C358.52 274.783 361.279 280.079 361.279 287.866V317.511C361.279 319.566 361.319 322.056 361.398 324.981C361.518 327.195 361.855 328.697 362.411 329.487C362.967 330.278 363.8 330.93 364.912 331.444V333.934H346.452C345.936 332.63 345.578 331.404 345.38 330.258C345.181 329.112 345.023 327.807 344.904 326.345C342.561 328.875 339.862 331.029 336.805 332.807C333.153 334.902 329.024 335.95 324.419 335.95C318.543 335.95 313.68 334.29 309.829 330.969C306.018 327.61 304.113 322.867 304.113 316.74C304.113 308.795 307.189 303.044 313.343 299.487C316.717 297.55 321.68 296.167 328.23 295.337L334.006 294.625C337.142 294.23 339.385 293.736 340.735 293.143C343.157 292.115 344.368 290.514 344.368 288.34C344.368 285.692 343.435 283.874 341.569 282.886C339.743 281.858 337.043 281.344 333.47 281.344C329.461 281.344 326.622 282.332 324.955 284.309C323.764 285.771 322.97 287.748 322.573 290.238H306.197C306.554 284.585 308.142 279.941 310.961 276.305ZM323.585 321.72C325.173 323.025 327.118 323.677 329.421 323.677C333.073 323.677 336.428 322.61 339.485 320.475C342.581 318.341 344.189 314.447 344.308 308.795V302.511C343.236 303.183 342.144 303.736 341.033 304.171C339.961 304.566 338.472 304.941 336.567 305.297L332.756 306.009C329.183 306.641 326.622 307.412 325.074 308.321C322.454 309.862 321.144 312.254 321.144 315.495C321.144 318.38 321.957 320.455 323.585 321.72Z" fill="#F0EBE5"/>
<path d="M400.855 281.819C395.099 281.819 391.149 284.249 389.005 289.111C387.894 291.68 387.338 294.961 387.338 298.953V333.934H370.426V269.427H386.802V278.854C388.985 275.534 391.05 273.143 392.995 271.68C396.488 269.071 400.915 267.767 406.274 267.767C412.983 267.767 418.462 269.526 422.71 273.044C426.997 276.522 429.141 282.313 429.141 290.416V333.934H411.753V294.625C411.753 291.226 411.296 288.617 410.383 286.799C408.716 283.479 405.54 281.819 400.855 281.819Z" fill="#F0EBE5"/>
<path d="M441.206 276.305C445.692 270.613 453.393 267.767 464.31 267.767C471.417 267.767 477.729 269.17 483.247 271.977C488.765 274.783 491.524 280.079 491.524 287.866V317.511C491.524 319.566 491.564 322.056 491.643 324.981C491.762 327.195 492.1 328.697 492.656 329.487C493.211 330.278 494.045 330.93 495.157 331.444V333.934H476.696C476.18 332.63 475.823 331.404 475.625 330.258C475.426 329.112 475.267 327.807 475.148 326.345C472.806 328.875 470.106 331.029 467.05 332.807C463.397 334.902 459.269 335.95 454.664 335.95C448.788 335.95 443.925 334.29 440.074 330.969C436.263 327.61 434.357 322.867 434.357 316.74C434.357 308.795 437.434 303.044 443.588 299.487C446.962 297.55 451.924 296.167 458.475 295.337L464.251 294.625C467.387 294.23 469.63 293.736 470.98 293.143C473.401 292.115 474.612 290.514 474.612 288.34C474.612 285.692 473.679 283.874 471.814 282.886C469.987 281.858 467.288 281.344 463.715 281.344C459.705 281.344 456.867 282.332 455.199 284.309C454.009 285.771 453.215 287.748 452.818 290.238H436.442C436.799 284.585 438.387 279.941 441.206 276.305ZM453.83 321.72C455.418 323.025 457.363 323.677 459.666 323.677C463.318 323.677 466.672 322.61 469.729 320.475C472.826 318.341 474.434 314.447 474.553 308.795V302.511C473.481 303.183 472.389 303.736 471.278 304.171C470.206 304.566 468.717 304.941 466.811 305.297L463 306.009C459.427 306.641 456.867 307.412 455.319 308.321C452.698 309.862 451.388 312.254 451.388 315.495C451.388 318.38 452.202 320.455 453.83 321.72Z" fill="#F0EBE5"/>
</svg>
