<svg width="571" height="142" viewBox="0 0 571 142" fill="none" xmlns="http://www.w3.org/2000/svg">
<path d="M180.752 19.1324H151.517V32.5433H177.112V42.6708H151.517V67.1191H139.411V8.88627H180.752V19.1324Z" fill="white"/>
<path d="M220.89 54.4598C220.6 57.018 219.268 59.6158 216.894 62.2531C213.202 66.4465 208.033 68.5432 201.387 68.5432C195.901 68.5432 191.061 66.7762 186.868 63.2421C182.675 59.7081 180.578 53.9587 180.578 45.9938C180.578 38.5301 182.464 32.8071 186.235 28.8247C190.033 24.8423 194.951 22.8511 200.991 22.8511C204.578 22.8511 207.809 23.5236 210.683 24.8686C213.558 26.2137 215.932 28.3368 217.804 31.2379C219.492 33.7961 220.586 36.7631 221.088 40.1389C221.378 42.1169 221.496 44.9653 221.444 48.6839H191.932C192.09 53.0092 193.448 56.0422 196.006 57.7828C197.562 58.8641 199.435 59.4048 201.624 59.4048C203.945 59.4048 205.83 58.7455 207.281 57.4268C208.072 56.7147 208.771 55.7257 209.378 54.4598H220.89ZM209.734 41.2466C209.549 38.2664 208.639 36.0115 207.004 34.4818C205.395 32.9258 203.391 32.1477 200.991 32.1477C198.38 32.1477 196.349 32.9653 194.899 34.6005C193.474 36.2356 192.578 38.451 192.209 41.2466H209.734Z" fill="white"/>
<path d="M254.738 25.9763C258.113 28.139 260.052 31.8576 260.553 37.1323H249.278C249.12 35.6818 248.711 34.5345 248.052 33.6906C246.812 32.1609 244.702 31.3961 241.722 31.3961C239.27 31.3961 237.516 31.7785 236.461 32.5433C235.432 33.3082 234.918 34.2049 234.918 35.2334C234.918 36.5257 235.472 37.462 236.579 38.0422C237.687 38.6488 241.604 39.6906 248.329 41.1675C252.812 42.2224 256.175 43.818 258.417 45.9543C260.632 48.1169 261.74 50.8202 261.74 54.0641C261.74 58.3367 260.144 61.8312 256.953 64.5476C253.788 67.2377 248.883 68.5828 242.237 68.5828C235.459 68.5828 230.448 67.1586 227.204 64.3103C223.986 61.4356 222.377 57.7828 222.377 53.3521H233.81C234.048 55.3565 234.562 56.7806 235.353 57.6246C236.751 59.1279 239.335 59.8795 243.107 59.8795C245.322 59.8795 247.076 59.5498 248.368 58.8905C249.687 58.2312 250.346 57.2422 250.346 55.9235C250.346 54.6576 249.819 53.6949 248.764 53.0356C247.709 52.3762 243.793 51.2422 237.015 49.6334C232.135 48.4202 228.694 46.9037 226.689 45.084C224.685 43.2906 223.683 40.706 223.683 37.3301C223.683 33.3477 225.239 29.9324 228.351 27.084C231.489 24.2093 235.894 22.7719 241.564 22.7719C246.944 22.7719 251.335 23.8401 254.738 25.9763Z" fill="white"/>
<path d="M285.816 59.0883V67.5147L280.476 67.7125C275.148 67.8971 271.509 66.974 269.557 64.9432C268.291 63.6509 267.658 61.6597 267.658 58.9696V32.4247H261.645V24.3939H267.658V12.3676H278.814V24.3939H285.816V32.4247H278.814V55.2114C278.814 56.9784 279.038 58.0861 279.487 58.5345C279.935 58.9564 281.306 59.1674 283.601 59.1674C283.944 59.1674 284.3 59.1674 284.669 59.1674C285.065 59.1411 285.447 59.1147 285.816 59.0883Z" fill="white"/>
<path d="M300.596 23.9983V67.1191H289.163V23.9983H300.596ZM300.596 8.45111V18.8555H289.163V8.45111H300.596Z" fill="white"/>
<path d="M303.27 23.9983H315.929L324.91 55.8048L334.088 23.9983H346.193L330.646 67.1191H318.738L303.27 23.9983Z" fill="white"/>
<path d="M350.173 28.6664C353.153 24.8686 358.27 22.9697 365.522 22.9697C370.243 22.9697 374.437 23.906 378.102 25.7785C381.768 27.651 383.601 31.1851 383.601 36.3807V56.1608C383.601 57.5323 383.628 59.1938 383.68 61.1454C383.76 62.6224 383.984 63.6246 384.353 64.152C384.722 64.6795 385.276 65.1147 386.015 65.4575V67.1191H373.751C373.408 66.2487 373.171 65.4311 373.039 64.6663C372.907 63.9015 372.801 63.0312 372.722 62.0553C371.166 63.7432 369.373 65.1806 367.342 66.3674C364.916 67.7652 362.173 68.4641 359.114 68.4641C355.21 68.4641 351.979 67.3564 349.421 65.141C346.889 62.8993 345.623 59.7345 345.623 55.6466C345.623 50.3455 347.667 46.5081 351.755 44.1345C353.997 42.8422 357.294 41.9191 361.645 41.3653L365.483 40.8906C367.566 40.6268 369.056 40.2972 369.953 39.9016C371.562 39.2158 372.366 38.1477 372.366 36.6972C372.366 34.9301 371.746 33.717 370.507 33.0576C369.294 32.3719 367.5 32.0291 365.127 32.0291C362.463 32.0291 360.577 32.6884 359.47 34.0071C358.678 34.9829 358.151 36.3016 357.887 37.9631H347.008C347.245 34.1917 348.3 31.0928 350.173 28.6664ZM358.56 58.9696C359.615 59.84 360.907 60.2751 362.437 60.2751C364.863 60.2751 367.092 59.563 369.122 58.1389C371.179 56.7147 372.248 54.1169 372.327 50.3455V46.1521C371.615 46.6004 370.889 46.9697 370.151 47.2598C369.439 47.5235 368.45 47.7741 367.184 48.0114L364.652 48.4861C362.278 48.9081 360.577 49.4224 359.549 50.029C357.808 51.0576 356.938 52.6532 356.938 54.8158C356.938 56.7411 357.478 58.1257 358.56 58.9696Z" fill="white"/>
<path d="M389.836 8.80715H401.111V67.1191H389.836V8.80715Z" fill="white"/>
<path d="M468.846 19.1324H439.611V32.5433H465.206V42.6708H439.611V67.1191H427.505V8.88627H468.846V19.1324Z" fill="white"/>
<path d="M483.665 23.9983V67.1191H472.232V23.9983H483.665ZM483.665 8.45111V18.8555H472.232V8.45111H483.665Z" fill="white"/>
<path d="M490.81 8.80715H502.085V67.1191H490.81V8.80715Z" fill="white"/>
<path d="M533.282 35.8664C532.332 33.7829 530.473 32.7411 527.704 32.7411C524.486 32.7411 522.324 33.7829 521.216 35.8664C520.609 37.0532 520.306 38.8202 520.306 41.1675V67.1191H508.873V24.0774H519.831V30.3675C521.229 28.1258 522.548 26.5302 523.787 25.5807C525.976 23.8928 528.811 23.0489 532.293 23.0489C535.589 23.0489 538.253 23.7741 540.284 25.2247C541.919 26.5697 543.159 28.2972 544.003 30.4071C545.48 27.8752 547.312 26.0159 549.501 24.8291C551.822 23.6423 554.407 23.0489 557.255 23.0489C559.154 23.0489 561.027 23.4181 562.873 24.1566C564.719 24.895 566.394 26.1873 567.897 28.0335C569.11 29.5368 569.928 31.3829 570.35 33.5719C570.613 35.0225 570.745 37.1455 570.745 39.9411L570.666 67.1191H559.115V53.3916V39.6642C559.115 38.029 558.851 36.684 558.323 35.629C557.321 33.6247 555.475 32.6225 552.785 32.6225C549.673 32.6225 547.523 33.9148 546.337 36.4994C545.73 37.8708 545.427 39.5191 545.427 41.4444V67.1191H534.073V41.4444C534.073 38.8862 533.809 37.0268 533.282 35.8664Z" fill="white"/>
<path d="M180.554 136.026C176.202 140.009 170.638 142 163.86 142C155.473 142 148.879 139.31 144.079 133.93C139.28 128.523 136.88 121.112 136.88 111.697C136.88 101.517 139.609 93.6705 145.069 88.1584C149.816 83.3584 155.855 80.9584 163.187 80.9584C172.998 80.9584 180.172 84.176 184.708 90.6111C187.213 94.2243 188.558 97.8507 188.743 101.49H176.559C175.767 98.6946 174.752 96.5847 173.512 95.1606C171.297 92.6287 168.013 91.3628 163.662 91.3628C159.231 91.3628 155.737 93.1562 153.178 96.743C150.62 100.303 149.341 105.354 149.341 111.895C149.341 118.435 150.686 123.341 153.376 126.611C156.093 129.855 159.534 131.477 163.701 131.477C167.974 131.477 171.231 130.079 173.473 127.284C174.712 125.78 175.741 123.525 176.559 120.519H188.624C187.569 126.875 184.879 132.044 180.554 136.026Z" fill="white"/>
<path d="M229.91 127.719C229.619 130.277 228.288 132.875 225.914 135.512C222.222 139.705 217.052 141.802 210.406 141.802C204.921 141.802 200.081 140.035 195.888 136.501C191.694 132.967 189.598 127.218 189.598 119.253C189.598 111.789 191.483 106.066 195.255 102.084C199.053 98.1012 203.971 96.11 210.011 96.11C213.598 96.11 216.828 96.7825 219.703 98.1276C222.578 99.4726 224.951 101.596 226.824 104.497C228.512 107.055 229.606 110.022 230.107 113.398C230.397 115.376 230.516 118.224 230.463 121.943H200.951C201.11 126.268 202.468 129.301 205.026 131.042C206.582 132.123 208.455 132.664 210.644 132.664C212.965 132.664 214.85 132.004 216.301 130.686C217.092 129.974 217.791 128.985 218.397 127.719H229.91ZM218.754 114.506C218.569 111.525 217.659 109.27 216.024 107.741C214.415 106.185 212.411 105.407 210.011 105.407C207.4 105.407 205.369 106.224 203.918 107.859C202.494 109.495 201.598 111.71 201.228 114.506H218.754Z" fill="white"/>
<path d="M254.342 105.604C250.518 105.604 247.894 107.226 246.469 110.47C245.731 112.185 245.362 114.374 245.362 117.037V140.378H234.127V97.3364H245.006V103.626C246.456 101.411 247.828 99.8155 249.12 98.8397C251.441 97.099 254.382 96.2287 257.942 96.2287C262.399 96.2287 266.039 97.4023 268.861 99.7496C271.709 102.07 273.133 105.934 273.133 111.341V140.378H261.582V114.15C261.582 111.881 261.278 110.141 260.672 108.928C259.564 106.712 257.454 105.604 254.342 105.604Z" fill="white"/>
<path d="M318.77 82.1452V140.378H307.812V134.404C306.203 136.963 304.37 138.822 302.313 139.982C300.256 141.143 297.697 141.723 294.638 141.723C289.601 141.723 285.355 139.692 281.9 135.631C278.471 131.543 276.757 126.308 276.757 119.925C276.757 112.567 278.445 106.778 281.821 102.558C285.223 98.3386 289.759 96.2287 295.429 96.2287C298.04 96.2287 300.361 96.8089 302.392 97.9694C304.423 99.1034 306.071 100.686 307.337 102.717V82.1452H318.77ZM288.388 119.095C288.388 123.077 289.179 126.255 290.761 128.629C292.317 131.029 294.691 132.229 297.882 132.229C301.073 132.229 303.5 131.042 305.161 128.668C306.823 126.295 307.653 123.222 307.653 119.451C307.653 114.176 306.322 110.404 303.658 108.136C302.023 106.765 300.124 106.079 297.961 106.079C294.665 106.079 292.238 107.332 290.682 109.837C289.152 112.317 288.388 115.402 288.388 119.095Z" fill="white"/>
<path d="M326.627 101.925C329.607 98.1276 334.723 96.2287 341.976 96.2287C346.697 96.2287 350.89 97.165 354.556 99.0375C358.222 100.91 360.055 104.444 360.055 109.64V129.42C360.055 130.791 360.081 132.453 360.134 134.404C360.213 135.881 360.437 136.884 360.807 137.411C361.176 137.938 361.73 138.374 362.468 138.716V140.378H350.205C349.862 139.508 349.624 138.69 349.492 137.925C349.361 137.16 349.255 136.29 349.176 135.314C347.62 137.002 345.827 138.44 343.796 139.626C341.369 141.024 338.627 141.723 335.567 141.723C331.664 141.723 328.433 140.615 325.875 138.4C323.343 136.158 322.077 132.993 322.077 128.906C322.077 123.604 324.121 119.767 328.209 117.393C330.451 116.101 333.747 115.178 338.099 114.624L341.936 114.15C344.02 113.886 345.51 113.556 346.407 113.161C348.016 112.475 348.82 111.407 348.82 109.956C348.82 108.189 348.2 106.976 346.961 106.317C345.747 105.631 343.954 105.288 341.58 105.288C338.917 105.288 337.031 105.947 335.923 107.266C335.132 108.242 334.605 109.561 334.341 111.222H323.462C323.699 107.451 324.754 104.352 326.627 101.925ZM335.013 132.229C336.068 133.099 337.361 133.534 338.89 133.534C341.317 133.534 343.545 132.822 345.576 131.398C347.633 129.974 348.701 127.376 348.78 123.604V119.411C348.068 119.859 347.343 120.229 346.605 120.519C345.892 120.782 344.903 121.033 343.638 121.27L341.106 121.745C338.732 122.167 337.031 122.681 336.002 123.288C334.262 124.317 333.391 125.912 333.391 128.075C333.391 130 333.932 131.385 335.013 132.229Z" fill="white"/>
<path d="M386.347 105.604C382.523 105.604 379.899 107.226 378.474 110.47C377.736 112.185 377.367 114.374 377.367 117.037V140.378H366.132V97.3364H377.011V103.626C378.461 101.411 379.833 99.8155 381.125 98.8397C383.446 97.099 386.386 96.2287 389.947 96.2287C394.404 96.2287 398.044 97.4023 400.865 99.7496C403.714 102.07 405.138 105.934 405.138 111.341V140.378H393.586V114.15C393.586 111.881 393.283 110.141 392.676 108.928C391.569 106.712 389.459 105.604 386.347 105.604Z" fill="white"/>
<path d="M413.153 101.925C416.133 98.1276 421.25 96.2287 428.502 96.2287C433.223 96.2287 437.417 97.165 441.082 99.0375C444.748 100.91 446.581 104.444 446.581 109.64V129.42C446.581 130.791 446.608 132.453 446.66 134.404C446.74 135.881 446.964 136.884 447.333 137.411C447.702 137.938 448.256 138.374 448.995 138.716V140.378H436.731C436.388 139.508 436.151 138.69 436.019 137.925C435.887 137.16 435.781 136.29 435.702 135.314C434.146 137.002 432.353 138.44 430.322 139.626C427.896 141.024 425.153 141.723 422.094 141.723C418.19 141.723 414.959 140.615 412.401 138.4C409.869 136.158 408.603 132.993 408.603 128.906C408.603 123.604 410.647 119.767 414.735 117.393C416.977 116.101 420.274 115.178 424.625 114.624L428.463 114.15C430.546 113.886 432.036 113.556 432.933 113.161C434.542 112.475 435.346 111.407 435.346 109.956C435.346 108.189 434.726 106.976 433.487 106.317C432.274 105.631 430.48 105.288 428.107 105.288C425.443 105.288 423.557 105.947 422.45 107.266C421.658 108.242 421.131 109.561 420.867 111.222H409.988C410.225 107.451 411.28 104.352 413.153 101.925ZM421.54 132.229C422.595 133.099 423.887 133.534 425.417 133.534C427.843 133.534 430.072 132.822 432.102 131.398C434.159 129.974 435.228 127.376 435.307 123.604V119.411C434.595 119.859 433.869 120.229 433.131 120.519C432.419 120.782 431.43 121.033 430.164 121.27L427.632 121.745C425.258 122.167 423.557 122.681 422.529 123.288C420.788 124.317 419.918 125.912 419.918 128.075C419.918 130 420.458 131.385 421.54 132.229Z" fill="white"/>
<path d="M44.2837 136.12L80.7554 136.008C74.7464 116.756 58.0254 101.751 89.8037 66.2279C103.008 87.3095 133.065 69.3005 116.197 45.3606L123.347 20.2434C110.726 26.6752 105.215 42.0207 86.8054 54.4314C86.4766 53.811 84.5141 50.0774 92.1356 36.3273C126.797 24.8679 76.6517 -7.23149 83.6093 32.2006C82.3948 40.1675 79.6358 45.9144 75.0829 49.0828C72.317 49.113 70.8971 45.2755 69.6887 40.8293C80.1428 28.8243 85.6238 16.4389 69.1667 2.37517C72.7717 20.762 70.1642 30.9867 62.5544 34.6391C53.7346 29.2231 52.8616 17.4123 56.4641 2C42.8731 12.9662 43.0841 25.7138 54.376 39.8914C55.0233 44.2732 55.2348 48.4202 50.0259 49.6456C45.4251 44.9029 42.0395 37.5624 40.9775 32.2006C51.936 -3.60445 -2.50835 19.0636 33.1472 36.3273C36.8404 43.2706 38.6777 47.3266 37.7245 54.4314C23.5713 48.6344 18.8661 28.4366 2 20.0078L8.68358 45.3606C-6.93983 69.4163 21.1338 87.6789 34.5393 66.5279C62.112 92.639 56.3305 114.755 44.2837 136.12Z" fill="white" stroke="white" stroke-width="1.5"/>
</svg>
