<svg width="1837" height="592" viewBox="0 0 1837 592" fill="none" xmlns="http://www.w3.org/2000/svg">
<g style="mix-blend-mode:difference">
<path d="M189.275 145.596H134.383C133.38 137.951 130.811 131.058 126.675 124.917C120.66 116.646 111.323 112.51 98.665 112.51C80.6182 112.51 68.2736 121.471 61.6313 139.393C58.1222 148.917 56.3677 161.575 56.3677 177.366C56.3677 192.405 58.1222 204.499 61.6313 213.648C68.0229 230.692 80.0542 239.214 97.7251 239.214C110.258 239.214 119.156 235.831 124.419 229.063C129.683 222.295 132.879 213.523 134.007 202.745H188.711C187.458 219.037 181.568 234.452 171.041 248.99C154.247 272.426 129.37 284.144 96.4092 284.144C63.4486 284.144 39.1981 274.368 23.6577 254.817C8.11735 235.267 0.347168 209.888 0.347168 178.682C0.347168 143.466 8.93197 116.082 26.1016 96.5312C43.2712 76.9805 66.9577 67.2051 97.1611 67.2051C122.853 67.2051 143.845 72.9701 160.137 84.5C176.555 96.0299 186.268 116.395 189.275 145.596ZM382.452 216.844C381.074 229 374.745 241.345 363.465 253.877C345.92 273.804 321.356 283.768 289.774 283.768C263.706 283.768 240.709 275.371 220.782 258.577C200.855 241.784 190.892 214.463 190.892 176.614C190.892 141.147 199.853 113.951 217.774 95.0273C235.821 76.1032 259.194 66.6411 287.894 66.6411C304.938 66.6411 320.291 69.8369 333.951 76.2285C347.612 82.6201 358.891 92.7088 367.789 106.495C375.81 118.651 381.011 132.75 383.392 148.792C384.771 158.191 385.335 171.727 385.084 189.397H244.845C245.597 209.951 252.051 224.363 264.208 232.635C271.602 237.773 280.5 240.342 290.902 240.342C301.931 240.342 310.891 237.209 317.784 230.943C321.544 227.559 324.865 222.859 327.748 216.844H382.452ZM329.439 154.056C328.562 139.894 324.238 129.179 316.468 121.91C308.823 114.515 299.299 110.818 287.894 110.818C275.487 110.818 265.837 114.703 258.944 122.474C252.176 130.244 247.915 140.771 246.161 154.056H329.439ZM498.554 111.758C480.382 111.758 467.912 119.466 461.144 134.881C457.635 143.027 455.88 153.429 455.88 166.087V277H402.492V72.4688H454.188V102.359C461.081 91.8315 467.598 84.2493 473.739 79.6123C484.768 71.3408 498.742 67.2051 515.661 67.2051C536.841 67.2051 554.136 72.7821 567.545 83.936C581.081 94.9647 587.848 113.325 587.848 139.017V277H532.956V152.364C532.956 141.586 531.514 133.314 528.632 127.549C523.368 117.022 513.342 111.758 498.554 111.758ZM804.711 0.28125V277H752.639V248.614C744.994 260.77 736.284 269.606 726.508 275.12C716.733 280.634 704.576 283.392 690.039 283.392C666.101 283.392 645.924 273.742 629.506 254.441C613.214 235.016 605.068 210.139 605.068 179.81C605.068 144.844 613.089 117.335 629.13 97.2832C645.297 77.2311 666.853 67.2051 693.798 67.2051C706.206 67.2051 717.234 69.9622 726.884 75.4766C736.534 80.8656 744.367 88.3851 750.383 98.0352V0.28125H804.711ZM660.336 175.862C660.336 194.786 664.096 209.888 671.616 221.167C679.01 232.572 690.289 238.274 705.454 238.274C720.618 238.274 732.148 232.635 740.043 221.355C747.939 210.076 751.887 195.476 751.887 177.554C751.887 152.489 745.558 134.568 732.9 123.79C725.13 117.273 716.106 114.014 705.83 114.014C690.164 114.014 678.634 119.967 671.24 131.873C663.971 143.654 660.336 158.317 660.336 175.862ZM842.046 94.2754C856.208 76.2285 880.521 67.2051 914.985 67.2051C937.419 67.2051 957.345 71.6541 974.766 80.5522C992.186 89.4504 1000.9 106.244 1000.9 130.933V224.927C1000.9 231.444 1001.02 239.34 1001.27 248.614C1001.65 255.632 1002.71 260.394 1004.47 262.901C1006.22 265.407 1008.85 267.475 1012.36 269.104V277H954.087C952.458 272.864 951.33 268.979 950.703 265.345C950.076 261.71 949.575 257.575 949.199 252.938C941.805 260.958 933.283 267.789 923.633 273.428C912.103 280.07 899.069 283.392 884.531 283.392C865.983 283.392 850.631 278.128 838.474 267.601C826.443 256.948 820.427 241.909 820.427 222.483C820.427 197.293 830.14 179.058 849.565 167.779C860.218 161.638 875.884 157.251 896.562 154.62L914.797 152.364C924.698 151.111 931.779 149.544 936.04 147.664C943.685 144.406 947.507 139.33 947.507 132.437C947.507 124.04 944.562 118.275 938.672 115.142C932.907 111.884 924.385 110.254 913.105 110.254C900.448 110.254 891.487 113.388 886.223 119.654C882.463 124.291 879.957 130.557 878.704 138.453H827.007C828.135 120.531 833.148 105.805 842.046 94.2754ZM881.899 238.274C886.912 242.41 893.053 244.478 900.322 244.478C911.852 244.478 922.442 241.094 932.092 234.327C941.868 227.559 946.943 215.215 947.319 197.293V177.366C943.936 179.497 940.489 181.251 936.98 182.63C933.596 183.883 928.896 185.074 922.881 186.202L910.85 188.458C899.57 190.463 891.487 192.907 886.599 195.789C878.328 200.677 874.192 208.259 874.192 218.536C874.192 227.684 876.761 234.264 881.899 238.274ZM1125.83 111.758C1107.66 111.758 1095.19 119.466 1088.42 134.881C1084.91 143.027 1083.16 153.429 1083.16 166.087V277H1029.77V72.4688H1081.47V102.359C1088.36 91.8315 1094.88 84.2493 1101.02 79.6123C1112.05 71.3408 1126.02 67.2051 1142.94 67.2051C1164.12 67.2051 1181.41 72.7821 1194.82 83.936C1208.36 94.9647 1215.13 113.325 1215.13 139.017V277H1160.23V152.364C1160.23 141.586 1158.79 133.314 1155.91 127.549C1150.65 117.022 1140.62 111.758 1125.83 111.758ZM1253.21 94.2754C1267.38 76.2285 1291.69 67.2051 1326.15 67.2051C1348.59 67.2051 1368.51 71.6541 1385.93 80.5522C1403.35 89.4504 1412.06 106.244 1412.06 130.933V224.927C1412.06 231.444 1412.19 239.34 1412.44 248.614C1412.82 255.632 1413.88 260.394 1415.64 262.901C1417.39 265.407 1420.02 267.475 1423.53 269.104V277H1365.25C1363.63 272.864 1362.5 268.979 1361.87 265.345C1361.24 261.71 1360.74 257.575 1360.37 252.938C1352.97 260.958 1344.45 267.789 1334.8 273.428C1323.27 280.07 1310.24 283.392 1295.7 283.392C1277.15 283.392 1261.8 278.128 1249.64 267.601C1237.61 256.948 1231.6 241.909 1231.6 222.483C1231.6 197.293 1241.31 179.058 1260.73 167.779C1271.39 161.638 1287.05 157.251 1307.73 154.62L1325.97 152.364C1335.87 151.111 1342.95 149.544 1347.21 147.664C1354.85 144.406 1358.68 139.33 1358.68 132.437C1358.68 124.04 1355.73 118.275 1349.84 115.142C1344.07 111.884 1335.55 110.254 1324.27 110.254C1311.62 110.254 1302.65 113.388 1297.39 119.654C1293.63 124.291 1291.12 130.557 1289.87 138.453H1238.17C1239.3 120.531 1244.32 105.805 1253.21 94.2754ZM1293.07 238.274C1298.08 242.41 1304.22 244.478 1311.49 244.478C1323.02 244.478 1333.61 241.094 1343.26 234.327C1353.04 227.559 1358.11 215.215 1358.49 197.293V177.366C1355.1 179.497 1351.66 181.251 1348.15 182.63C1344.76 183.883 1340.06 185.074 1334.05 186.202L1322.02 188.458C1310.74 190.463 1302.65 192.907 1297.77 195.789C1289.5 200.677 1285.36 208.259 1285.36 218.536C1285.36 227.684 1287.93 234.264 1293.07 238.274ZM127.051 436.489C122.54 426.589 113.704 421.638 100.545 421.638C85.2552 421.638 74.9785 426.589 69.7148 436.489C66.8324 442.129 65.3911 450.526 65.3911 461.68V585H11.0625V380.469H63.1353V410.359C69.7775 399.706 76.0438 392.124 81.9341 387.612C92.3361 379.591 105.809 375.581 122.352 375.581C138.017 375.581 150.675 379.028 160.325 385.92C168.095 392.312 173.986 400.521 177.996 410.547C185.014 398.516 193.724 389.68 204.126 384.041C215.155 378.401 227.437 375.581 240.972 375.581C249.996 375.581 258.894 377.336 267.667 380.845C276.439 384.354 284.397 390.495 291.541 399.268C297.306 406.411 301.191 415.184 303.196 425.586C304.45 432.479 305.076 442.568 305.076 455.852L304.7 585H249.808V454.536C249.808 446.766 248.554 440.374 246.048 435.361C241.285 425.837 232.513 421.074 219.729 421.074C204.941 421.074 194.727 427.215 189.087 439.497C186.205 446.014 184.764 453.847 184.764 462.996V585H130.811V462.996C130.811 450.839 129.558 442.004 127.051 436.489ZM466.671 556.05C466.17 556.676 464.916 558.556 462.911 561.689C460.906 564.823 458.525 567.58 455.768 569.961C447.371 577.48 439.225 582.619 431.329 585.376C423.559 588.133 414.41 589.512 403.883 589.512C373.554 589.512 353.126 578.608 342.599 556.802C336.708 544.771 333.763 527.037 333.763 503.601V380.093H388.656V503.601C388.656 515.256 390.034 524.029 392.792 529.919C397.679 540.321 407.267 545.522 421.554 545.522C439.851 545.522 452.384 538.128 459.151 523.34C462.66 515.319 464.415 504.729 464.415 491.57V380.093H518.744V585H466.671V556.05ZM552.506 307.905H606.083V585H552.506V307.905ZM733.088 546.838V586.88L707.709 587.82C682.394 588.697 665.099 584.311 655.825 574.661C649.809 568.52 646.801 559.058 646.801 546.274V420.134H618.227V381.973H646.801V324.824H699.814V381.973H733.088V420.134H699.814V528.416C699.814 536.812 700.879 542.076 703.01 544.207C705.14 546.212 711.657 547.214 722.561 547.214C724.19 547.214 725.882 547.214 727.636 547.214C729.516 547.089 731.333 546.964 733.088 546.838ZM803.32 380.093V585H748.992V380.093H803.32ZM803.32 306.213V355.654H748.992V306.213H803.32ZM951.192 436.489C946.68 426.589 937.845 421.638 924.686 421.638C909.396 421.638 899.119 426.589 893.855 436.489C890.973 442.129 889.532 450.526 889.532 461.68V585H835.203V380.469H887.276V410.359C893.918 399.706 900.184 392.124 906.075 387.612C916.477 379.591 929.949 375.581 946.492 375.581C962.158 375.581 974.816 379.028 984.466 385.92C992.236 392.312 998.126 400.521 1002.14 410.547C1009.15 398.516 1017.87 389.68 1028.27 384.041C1039.3 378.401 1051.58 375.581 1065.11 375.581C1074.14 375.581 1083.03 377.336 1091.81 380.845C1100.58 384.354 1108.54 390.495 1115.68 399.268C1121.45 406.411 1125.33 415.184 1127.34 425.586C1128.59 432.479 1129.22 442.568 1129.22 455.852L1128.84 585H1073.95V454.536C1073.95 446.766 1072.69 440.374 1070.19 435.361C1065.43 425.837 1056.65 421.074 1043.87 421.074C1029.08 421.074 1018.87 427.215 1013.23 439.497C1010.35 446.014 1008.9 453.847 1008.9 462.996V585H954.952V462.996C954.952 450.839 953.698 442.004 951.192 436.489ZM1334.8 524.844C1333.42 537 1327.09 549.345 1315.81 561.877C1298.27 581.804 1273.7 591.768 1242.12 591.768C1216.05 591.768 1193.06 583.371 1173.13 566.577C1153.2 549.784 1143.24 522.463 1143.24 484.614C1143.24 449.147 1152.2 421.951 1170.12 403.027C1188.17 384.103 1211.54 374.641 1240.24 374.641C1257.29 374.641 1272.64 377.837 1286.3 384.229C1299.96 390.62 1311.24 400.709 1320.14 414.495C1328.16 426.651 1333.36 440.75 1335.74 456.792C1337.12 466.191 1337.68 479.727 1337.43 497.397H1197.19C1197.95 517.951 1204.4 532.363 1216.56 540.635C1223.95 545.773 1232.85 548.342 1243.25 548.342C1254.28 548.342 1263.24 545.209 1270.13 538.943C1273.89 535.559 1277.21 530.859 1280.1 524.844H1334.8ZM1281.79 462.056C1280.91 447.894 1276.59 437.179 1268.82 429.91C1261.17 422.515 1251.65 418.818 1240.24 418.818C1227.84 418.818 1218.19 422.703 1211.29 430.474C1204.52 438.244 1200.26 448.771 1198.51 462.056H1281.79ZM1540.95 308.281V585H1488.88V556.614C1481.23 568.77 1472.52 577.606 1462.75 583.12C1452.97 588.634 1440.81 591.392 1426.28 591.392C1402.34 591.392 1382.16 581.742 1365.74 562.441C1349.45 543.016 1341.31 518.139 1341.31 487.81C1341.31 452.844 1349.33 425.335 1365.37 405.283C1381.53 385.231 1403.09 375.205 1430.04 375.205C1442.44 375.205 1453.47 377.962 1463.12 383.477C1472.77 388.866 1480.6 396.385 1486.62 406.035V308.281H1540.95ZM1396.57 483.862C1396.57 502.786 1400.33 517.888 1407.85 529.167C1415.25 540.572 1426.53 546.274 1441.69 546.274C1456.86 546.274 1468.39 540.635 1476.28 529.355C1484.18 518.076 1488.12 503.476 1488.12 485.554C1488.12 460.489 1481.8 442.568 1469.14 431.79C1461.37 425.273 1452.34 422.014 1442.07 422.014C1426.4 422.014 1414.87 427.967 1407.48 439.873C1400.21 451.654 1396.57 466.317 1396.57 483.862ZM1625.66 380.093V585H1571.33V380.093H1625.66ZM1625.66 306.213V355.654H1571.33V306.213H1625.66ZM1666.19 402.275C1680.35 384.229 1704.66 375.205 1739.13 375.205C1761.56 375.205 1781.49 379.654 1798.91 388.552C1816.33 397.45 1825.04 414.244 1825.04 438.933V532.927C1825.04 539.444 1825.16 547.34 1825.41 556.614C1825.79 563.632 1826.85 568.394 1828.61 570.901C1830.36 573.407 1832.99 575.475 1836.5 577.104V585H1778.23C1776.6 580.864 1775.47 576.979 1774.84 573.345C1774.22 569.71 1773.72 565.575 1773.34 560.938C1765.95 568.958 1757.42 575.789 1747.77 581.428C1736.24 588.07 1723.21 591.392 1708.67 591.392C1690.12 591.392 1674.77 586.128 1662.61 575.601C1650.58 564.948 1644.57 549.909 1644.57 530.483C1644.57 505.293 1654.28 487.058 1673.71 475.779C1684.36 469.638 1700.02 465.251 1720.7 462.62L1738.94 460.364C1748.84 459.111 1755.92 457.544 1760.18 455.664C1767.83 452.406 1771.65 447.33 1771.65 440.437C1771.65 432.04 1768.7 426.275 1762.81 423.142C1757.05 419.884 1748.53 418.254 1737.25 418.254C1724.59 418.254 1715.63 421.388 1710.36 427.654C1706.6 432.291 1704.1 438.557 1702.84 446.453H1651.15C1652.28 428.531 1657.29 413.805 1666.19 402.275ZM1706.04 546.274C1711.05 550.41 1717.19 552.478 1724.46 552.478C1735.99 552.478 1746.58 549.094 1756.23 542.327C1766.01 535.559 1771.08 523.215 1771.46 505.293V485.366C1768.08 487.497 1764.63 489.251 1761.12 490.63C1757.74 491.883 1753.04 493.074 1747.02 494.202L1734.99 496.458C1723.71 498.463 1715.63 500.907 1710.74 503.789C1702.47 508.677 1698.33 516.259 1698.33 526.536C1698.33 535.684 1700.9 542.264 1706.04 546.274Z" fill="#FF0000"/>
</g>
</svg>
